<?xml version="1.0" encoding="UTF-8" standalone="no"?>
<!DOCTYPE svg PUBLIC "-//W3C//DTD SVG 1.0//EN" "http://www.w3.org/TR/2001/PR-SVG-20010719/DTD/svg10.dtd">
<svg width="21cm" height="15cm" viewBox="16 -2 415 281" xmlns="http://www.w3.org/2000/svg" xmlns:xlink="http://www.w3.org/1999/xlink">
  <text style="fill: #000000;text-anchor:start;font-size:12.7998;font-family:sanserif;font-style:normal;font-weight:normal" x="24.6667" y="14">
    <tspan x="24.6667" y="14">Addr[10:6]</tspan>
  </text>
  <g>
    <rect style="fill: #ffffff" x="100" y="0" width="100" height="20"/>
    <rect style="fill: none; fill-opacity:0; stroke-width: 2; stroke: #000000" x="100" y="0" width="100" height="20"/>
    <text style="fill: #000000;text-anchor:middle;font-size:12.8;font-family:monospace;font-style:normal;font-weight:normal" x="150" y="13.9">
      <tspan x="150" y="13.9">Tag SRAM</tspan>
    </text>
  </g>
  <g>
    <rect style="fill: #ffffff" x="100" y="20" width="50" height="20"/>
    <rect style="fill: none; fill-opacity:0; stroke-width: 2; stroke: #000000" x="100" y="20" width="50" height="20"/>
    <text style="fill: #000000;text-anchor:middle;font-size:12.7998;font-family:sanserif;font-style:normal;font-weight:normal" x="125" y="33.9">
      <tspan x="125" y="33.9">Way0</tspan>
    </text>
  </g>
  <g>
    <rect style="fill: #ffffff" x="150" y="20" width="50" height="20"/>
    <rect style="fill: none; fill-opacity:0; stroke-width: 2; stroke: #000000" x="150" y="20" width="50" height="20"/>
    <text style="fill: #000000;text-anchor:middle;font-size:12.7998;font-family:sanserif;font-style:normal;font-weight:normal" x="175" y="33.9">
      <tspan x="175" y="33.9">Way1</tspan>
    </text>
  </g>
  <g>
    <rect style="fill: #ffffff" x="150" y="40" width="50" height="20"/>
    <rect style="fill: none; fill-opacity:0; stroke-width: 2; stroke: #000000" x="150" y="40" width="50" height="20"/>
    <text style="fill: #000000;text-anchor:middle;font-size:12.7998;font-family:sanserif;font-style:normal;font-weight:normal" x="175" y="53.9">
      <tspan x="175" y="53.9"></tspan>
    </text>
  </g>
  <g>
    <rect style="fill: #ffffff" x="100" y="40" width="50" height="20"/>
    <rect style="fill: none; fill-opacity:0; stroke-width: 2; stroke: #000000" x="100" y="40" width="50" height="20"/>
    <text style="fill: #000000;text-anchor:middle;font-size:12.7998;font-family:sanserif;font-style:normal;font-weight:normal" x="125" y="53.9">
      <tspan x="125" y="53.9"></tspan>
    </text>
  </g>
  <g>
    <rect style="fill: #ffffff" x="150" y="60" width="50" height="20"/>
    <rect style="fill: none; fill-opacity:0; stroke-width: 2; stroke: #000000" x="150" y="60" width="50" height="20"/>
    <text style="fill: #000000;text-anchor:middle;font-size:12.7998;font-family:sanserif;font-style:normal;font-weight:normal" x="175" y="73.9">
      <tspan x="175" y="73.9"></tspan>
    </text>
  </g>
  <g>
    <rect style="fill: #ffffff" x="100" y="60" width="50" height="20"/>
    <rect style="fill: none; fill-opacity:0; stroke-width: 2; stroke: #000000" x="100" y="60" width="50" height="20"/>
    <text style="fill: #000000;text-anchor:middle;font-size:12.7998;font-family:sanserif;font-style:normal;font-weight:normal" x="125" y="73.9">
      <tspan x="125" y="73.9"></tspan>
    </text>
  </g>
  <g>
    <rect style="fill: #ffffff" x="150" y="80" width="50" height="20"/>
    <rect style="fill: none; fill-opacity:0; stroke-width: 2; stroke: #000000" x="150" y="80" width="50" height="20"/>
    <text style="fill: #000000;text-anchor:middle;font-size:12.7998;font-family:sanserif;font-style:normal;font-weight:normal" x="175" y="93.9">
      <tspan x="175" y="93.9"></tspan>
    </text>
  </g>
  <g>
    <rect style="fill: #ffffff" x="100" y="80" width="50" height="20"/>
    <rect style="fill: none; fill-opacity:0; stroke-width: 2; stroke: #000000" x="100" y="80" width="50" height="20"/>
    <text style="fill: #000000;text-anchor:middle;font-size:12.7998;font-family:sanserif;font-style:normal;font-weight:normal" x="125" y="93.9">
      <tspan x="125" y="93.9"></tspan>
    </text>
  </g>
  <g>
    <rect style="fill: #ffffff" x="150" y="100" width="50" height="20"/>
    <rect style="fill: none; fill-opacity:0; stroke-width: 2; stroke: #000000" x="150" y="100" width="50" height="20"/>
    <text style="fill: #000000;text-anchor:middle;font-size:12.7998;font-family:sanserif;font-style:normal;font-weight:normal" x="175" y="113.9">
      <tspan x="175" y="113.9"></tspan>
    </text>
  </g>
  <g>
    <rect style="fill: #ffffff" x="100" y="100" width="50" height="20"/>
    <rect style="fill: none; fill-opacity:0; stroke-width: 2; stroke: #000000" x="100" y="100" width="50" height="20"/>
    <text style="fill: #000000;text-anchor:middle;font-size:12.7998;font-family:sanserif;font-style:normal;font-weight:normal" x="125" y="113.9">
      <tspan x="125" y="113.9"></tspan>
    </text>
  </g>
  <g>
    <rect style="fill: #ffffff" x="20" y="40" width="80" height="20"/>
    <rect style="fill: none; fill-opacity:0; stroke-width: 2; stroke: #000000" x="20" y="40" width="80" height="20"/>
    <text style="fill: #000000;text-anchor:middle;font-size:12.7998;font-family:sanserif;font-style:normal;font-weight:normal" x="60" y="53.9">
      <tspan x="60" y="53.9">Index 0</tspan>
    </text>
  </g>
  <g>
    <line style="fill: none; fill-opacity:0; stroke-width: 3; stroke: #000000" x1="60" y1="20" x2="60" y2="33.6459"/>
    <polygon style="fill: #000000" points="60,36.6459 58,32.6459 60,33.6459 62,32.6459 "/>
    <polygon style="fill: none; fill-opacity:0; stroke-width: 3; stroke: #000000" points="60,36.6459 58,32.6459 60,33.6459 62,32.6459 "/>
  </g>
  <g>
    <rect style="fill: #ffffff" x="20" y="60" width="80" height="20"/>
    <rect style="fill: none; fill-opacity:0; stroke-width: 2; stroke: #000000" x="20" y="60" width="80" height="20"/>
    <text style="fill: #000000;text-anchor:middle;font-size:12.7998;font-family:sanserif;font-style:normal;font-weight:normal" x="60" y="73.9">
      <tspan x="60" y="73.9">Index 1</tspan>
    </text>
  </g>
  <g>
    <rect style="fill: #ffffff" x="20" y="80" width="80" height="20"/>
    <rect style="fill: none; fill-opacity:0; stroke-width: 2; stroke: #000000" x="20" y="80" width="80" height="20"/>
    <text style="fill: #000000;text-anchor:middle;font-size:12.7998;font-family:sanserif;font-style:normal;font-weight:normal" x="60" y="93.9">
      <tspan x="60" y="93.9">Index 2</tspan>
    </text>
  </g>
  <g>
    <rect style="fill: #ffffff" x="20" y="100" width="80" height="20"/>
    <rect style="fill: none; fill-opacity:0; stroke-width: 2; stroke: #000000" x="20" y="100" width="80" height="20"/>
    <text style="fill: #000000;text-anchor:middle;font-size:12.7998;font-family:sanserif;font-style:normal;font-weight:normal" x="60" y="113.9">
      <tspan x="60" y="113.9">(32 Entries)</tspan>
    </text>
  </g>
  <text style="fill: #000000;text-anchor:start;font-size:12.7998;font-family:sanserif;font-style:normal;font-weight:normal" x="250" y="14">
    <tspan x="250" y="14">Addr[10:2]</tspan>
  </text>
  <g>
    <rect style="fill: #ffffff" x="330" y="-2.75335e-013" width="100" height="20"/>
    <rect style="fill: none; fill-opacity:0; stroke-width: 2; stroke: #000000" x="330" y="-2.75335e-013" width="100" height="20"/>
    <text style="fill: #000000;text-anchor:middle;font-size:12.8;font-family:monospace;font-style:normal;font-weight:normal" x="380" y="13.9">
      <tspan x="380" y="13.9">Data SRAM</tspan>
    </text>
  </g>
  <g>
    <rect style="fill: #ffffff" x="330" y="20" width="50" height="20"/>
    <rect style="fill: none; fill-opacity:0; stroke-width: 2; stroke: #000000" x="330" y="20" width="50" height="20"/>
    <text style="fill: #000000;text-anchor:middle;font-size:12.7998;font-family:sanserif;font-style:normal;font-weight:normal" x="355" y="33.9">
      <tspan x="355" y="33.9">Way0</tspan>
    </text>
  </g>
  <g>
    <rect style="fill: #ffffff" x="380" y="20" width="50" height="20"/>
    <rect style="fill: none; fill-opacity:0; stroke-width: 2; stroke: #000000" x="380" y="20" width="50" height="20"/>
    <text style="fill: #000000;text-anchor:middle;font-size:12.7998;font-family:sanserif;font-style:normal;font-weight:normal" x="405" y="33.9">
      <tspan x="405" y="33.9">Way1</tspan>
    </text>
  </g>
  <g>
    <rect style="fill: #ffffff" x="380" y="40" width="50" height="20"/>
    <rect style="fill: none; fill-opacity:0; stroke-width: 2; stroke: #000000" x="380" y="40" width="50" height="20"/>
    <text style="fill: #000000;text-anchor:middle;font-size:12.7998;font-family:sanserif;font-style:normal;font-weight:normal" x="405" y="53.9">
      <tspan x="405" y="53.9"></tspan>
    </text>
  </g>
  <g>
    <rect style="fill: #ffffff" x="330" y="40" width="50" height="20"/>
    <rect style="fill: none; fill-opacity:0; stroke-width: 2; stroke: #000000" x="330" y="40" width="50" height="20"/>
    <text style="fill: #000000;text-anchor:middle;font-size:12.7998;font-family:sanserif;font-style:normal;font-weight:normal" x="355" y="53.9">
      <tspan x="355" y="53.9"></tspan>
    </text>
  </g>
  <g>
    <rect style="fill: #ffffff" x="380" y="60" width="50" height="20"/>
    <rect style="fill: none; fill-opacity:0; stroke-width: 2; stroke: #000000" x="380" y="60" width="50" height="20"/>
    <text style="fill: #000000;text-anchor:middle;font-size:12.7998;font-family:sanserif;font-style:normal;font-weight:normal" x="405" y="73.9">
      <tspan x="405" y="73.9"></tspan>
    </text>
  </g>
  <g>
    <rect style="fill: #ffffff" x="330" y="60" width="50" height="20"/>
    <rect style="fill: none; fill-opacity:0; stroke-width: 2; stroke: #000000" x="330" y="60" width="50" height="20"/>
    <text style="fill: #000000;text-anchor:middle;font-size:12.7998;font-family:sanserif;font-style:normal;font-weight:normal" x="355" y="73.9">
      <tspan x="355" y="73.9"></tspan>
    </text>
  </g>
  <g>
    <rect style="fill: #ffffff" x="380" y="80" width="50" height="20"/>
    <rect style="fill: none; fill-opacity:0; stroke-width: 2; stroke: #000000" x="380" y="80" width="50" height="20"/>
    <text style="fill: #000000;text-anchor:middle;font-size:12.7998;font-family:sanserif;font-style:normal;font-weight:normal" x="405" y="93.9">
      <tspan x="405" y="93.9"></tspan>
    </text>
  </g>
  <g>
    <rect style="fill: #ffffff" x="330" y="80" width="50" height="20"/>
    <rect style="fill: none; fill-opacity:0; stroke-width: 2; stroke: #000000" x="330" y="80" width="50" height="20"/>
    <text style="fill: #000000;text-anchor:middle;font-size:12.7998;font-family:sanserif;font-style:normal;font-weight:normal" x="355" y="93.9">
      <tspan x="355" y="93.9"></tspan>
    </text>
  </g>
  <g>
    <rect style="fill: #ffffff" x="380" y="100" width="50" height="20"/>
    <rect style="fill: none; fill-opacity:0; stroke-width: 2; stroke: #000000" x="380" y="100" width="50" height="20"/>
    <text style="fill: #000000;text-anchor:middle;font-size:12.7998;font-family:sanserif;font-style:normal;font-weight:normal" x="405" y="113.9">
      <tspan x="405" y="113.9"></tspan>
    </text>
  </g>
  <g>
    <rect style="fill: #ffffff" x="330" y="100" width="50" height="20"/>
    <rect style="fill: none; fill-opacity:0; stroke-width: 2; stroke: #000000" x="330" y="100" width="50" height="20"/>
    <text style="fill: #000000;text-anchor:middle;font-size:12.7998;font-family:sanserif;font-style:normal;font-weight:normal" x="355" y="113.9">
      <tspan x="355" y="113.9"></tspan>
    </text>
  </g>
  <g>
    <rect style="fill: #ffffff" x="230" y="40" width="100" height="20"/>
    <rect style="fill: none; fill-opacity:0; stroke-width: 2; stroke: #000000" x="230" y="40" width="100" height="20"/>
    <text style="fill: #000000;text-anchor:middle;font-size:12.7998;font-family:sanserif;font-style:normal;font-weight:normal" x="280" y="53.9">
      <tspan x="280" y="53.9">Index 0</tspan>
    </text>
  </g>
  <g>
    <line style="fill: none; fill-opacity:0; stroke-width: 3; stroke: #000000" x1="280" y1="20" x2="280" y2="33.6459"/>
    <polygon style="fill: #000000" points="280,36.6459 278,32.6459 280,33.6459 282,32.6459 "/>
    <polygon style="fill: none; fill-opacity:0; stroke-width: 3; stroke: #000000" points="280,36.6459 278,32.6459 280,33.6459 282,32.6459 "/>
  </g>
  <g>
    <rect style="fill: #ffffff" x="230" y="60" width="100" height="20"/>
    <rect style="fill: none; fill-opacity:0; stroke-width: 2; stroke: #000000" x="230" y="60" width="100" height="20"/>
    <text style="fill: #000000;text-anchor:middle;font-size:12.7998;font-family:sanserif;font-style:normal;font-weight:normal" x="280" y="73.9">
      <tspan x="280" y="73.9">Index 1</tspan>
    </text>
  </g>
  <g>
    <rect style="fill: #ffffff" x="230" y="80" width="100" height="20"/>
    <rect style="fill: none; fill-opacity:0; stroke-width: 2; stroke: #000000" x="230" y="80" width="100" height="20"/>
    <text style="fill: #000000;text-anchor:middle;font-size:12.7998;font-family:sanserif;font-style:normal;font-weight:normal" x="280" y="93.9">
      <tspan x="280" y="93.9">Index 2</tspan>
    </text>
  </g>
  <g>
    <rect style="fill: #ffffff" x="230" y="100" width="100" height="20"/>
    <rect style="fill: none; fill-opacity:0; stroke-width: 2; stroke: #000000" x="230" y="100" width="100" height="20"/>
    <text style="fill: #000000;text-anchor:middle;font-size:12.7998;font-family:sanserif;font-style:normal;font-weight:normal" x="280" y="113.9">
      <tspan x="280" y="113.9">Index 3</tspan>
    </text>
  </g>
  <g>
    <rect style="fill: #ffffff" x="380" y="120" width="50" height="20"/>
    <rect style="fill: none; fill-opacity:0; stroke-width: 2; stroke: #000000" x="380" y="120" width="50" height="20"/>
    <text style="fill: #000000;text-anchor:middle;font-size:12.7998;font-family:sanserif;font-style:normal;font-weight:normal" x="405" y="133.9">
      <tspan x="405" y="133.9"></tspan>
    </text>
  </g>
  <g>
    <rect style="fill: #ffffff" x="330" y="120" width="50" height="30"/>
    <rect style="fill: none; fill-opacity:0; stroke-width: 2; stroke: #000000" x="330" y="120" width="50" height="30"/>
    <text style="fill: #000000;text-anchor:middle;font-size:12.7998;font-family:sanserif;font-style:normal;font-weight:normal" x="355" y="138.9">
      <tspan x="355" y="138.9"></tspan>
    </text>
  </g>
  <g>
    <rect style="fill: #ffffff" x="380" y="140" width="50" height="20"/>
    <rect style="fill: none; fill-opacity:0; stroke-width: 2; stroke: #000000" x="380" y="140" width="50" height="20"/>
    <text style="fill: #000000;text-anchor:middle;font-size:12.7998;font-family:sanserif;font-style:normal;font-weight:normal" x="405" y="153.9">
      <tspan x="405" y="153.9"></tspan>
    </text>
  </g>
  <g>
    <rect style="fill: #ffffff" x="330" y="140" width="50" height="20"/>
    <rect style="fill: none; fill-opacity:0; stroke-width: 2; stroke: #000000" x="330" y="140" width="50" height="20"/>
    <text style="fill: #000000;text-anchor:middle;font-size:12.7998;font-family:sanserif;font-style:normal;font-weight:normal" x="355" y="153.9">
      <tspan x="355" y="153.9"></tspan>
    </text>
  </g>
  <g>
    <rect style="fill: #ffffff" x="230" y="120" width="100" height="20"/>
    <rect style="fill: none; fill-opacity:0; stroke-width: 2; stroke: #000000" x="230" y="120" width="100" height="20"/>
    <text style="fill: #000000;text-anchor:middle;font-size:12.7998;font-family:sanserif;font-style:normal;font-weight:normal" x="280" y="133.9">
      <tspan x="280" y="133.9">Index 4</tspan>
    </text>
  </g>
  <g>
    <rect style="fill: #ffffff" x="230" y="140" width="100" height="20"/>
    <rect style="fill: none; fill-opacity:0; stroke-width: 2; stroke: #000000" x="230" y="140" width="100" height="20"/>
    <text style="fill: #000000;text-anchor:middle;font-size:12.7998;font-family:sanserif;font-style:normal;font-weight:normal" x="280" y="153.9">
      <tspan x="280" y="153.9">(512 Entries)</tspan>
    </text>
  </g>
  <g>
    <ellipse style="fill: #ffffff" cx="124.989" cy="183.995" rx="12.9894" ry="13.9947"/>
    <ellipse style="fill: none; fill-opacity:0; stroke-width: 2; stroke: #000000" cx="124.989" cy="183.995" rx="12.9894" ry="13.9947"/>
    <text style="fill: #000000;text-anchor:middle;font-size:12.7998;font-family:sanserif;font-style:normal;font-weight:normal" x="124.989" y="187.895">
      <tspan x="124.989" y="187.895">=?</tspan>
    </text>
  </g>
  <g>
    <ellipse style="fill: #ffffff" cx="174.989" cy="183.995" rx="12.9894" ry="13.9947"/>
    <ellipse style="fill: none; fill-opacity:0; stroke-width: 2; stroke: #000000" cx="174.989" cy="183.995" rx="12.9894" ry="13.9947"/>
    <text style="fill: #000000;text-anchor:middle;font-size:12.7998;font-family:sanserif;font-style:normal;font-weight:normal" x="174.989" y="187.895">
      <tspan x="174.989" y="187.895">=?</tspan>
    </text>
  </g>
  <g>
    <line style="fill: none; fill-opacity:0; stroke-width: 2; stroke: #000000" x1="125" y1="120" x2="124.991" y2="164.764"/>
    <polygon style="fill: #000000" points="124.99,167.764 122.991,163.764 124.991,164.764 126.991,163.764 "/>
    <polygon style="fill: none; fill-opacity:0; stroke-width: 2; stroke: #000000" points="124.99,167.764 122.991,163.764 124.991,164.764 126.991,163.764 "/>
  </g>
  <g>
    <line style="fill: none; fill-opacity:0; stroke-width: 2; stroke: #000000" x1="175" y1="120" x2="174.991" y2="164.764"/>
    <polygon style="fill: #000000" points="174.99,167.764 172.991,163.764 174.991,164.764 176.991,163.764 "/>
    <polygon style="fill: none; fill-opacity:0; stroke-width: 2; stroke: #000000" points="174.99,167.764 172.991,163.764 174.991,164.764 176.991,163.764 "/>
  </g>
  <g>
    <line style="fill: none; fill-opacity:0; stroke-width: 3; stroke: #000000" x1="355" y1="160" x2="355.038" y2="204.289"/>
    <polygon style="fill: #000000" points="355.041,207.289 353.037,203.291 355.038,204.289 357.037,203.288 "/>
    <polygon style="fill: none; fill-opacity:0; stroke-width: 3; stroke: #000000" points="355.041,207.289 353.037,203.291 355.038,204.289 357.037,203.288 "/>
  </g>
  <g>
    <line style="fill: none; fill-opacity:0; stroke-width: 3; stroke: #000000" x1="405" y1="160" x2="405.077" y2="204.289"/>
    <polygon style="fill: #000000" points="405.082,207.289 403.075,203.293 405.077,204.289 407.075,203.286 "/>
    <polygon style="fill: none; fill-opacity:0; stroke-width: 3; stroke: #000000" points="405.082,207.289 403.075,203.293 405.077,204.289 407.075,203.286 "/>
  </g>
  <g>
    <line style="fill: none; fill-opacity:0; stroke-width: 2; stroke: #000000" x1="124.142" y1="210" x2="324.764" y2="210"/>
    <polygon style="fill: #000000" points="327.764,210 323.764,212 324.764,210 323.764,208 "/>
    <polygon style="fill: none; fill-opacity:0; stroke-width: 2; stroke: #000000" points="327.764,210 323.764,212 324.764,210 323.764,208 "/>
  </g>
  <line style="fill: none; fill-opacity:0; stroke-width: 3; stroke: #000000" x1="340" y1="210" x2="420" y2="210"/>
  <g>
    <line style="fill: none; fill-opacity:0; stroke-width: 3; stroke: #000000" x1="380" y1="210" x2="380" y2="233.646"/>
    <polygon style="fill: #000000" points="380,236.646 378,232.646 380,233.646 382,232.646 "/>
    <polygon style="fill: none; fill-opacity:0; stroke-width: 3; stroke: #000000" points="380,236.646 378,232.646 380,233.646 382,232.646 "/>
  </g>
  <text style="fill: #000000;text-anchor:start;font-size:12.7998;font-family:sanserif;font-style:normal;font-weight:normal" x="354" y="253">
    <tspan x="354" y="253">Data Out</tspan>
  </text>
  <g>
    <line style="fill: none; fill-opacity:0; stroke-width: 2; stroke: #000000" x1="174.989" y1="197.989" x2="174.995" y2="204.764"/>
    <polygon style="fill: #000000" points="174.998,207.764 172.995,203.766 174.995,204.764 176.995,203.762 "/>
    <polygon style="fill: none; fill-opacity:0; stroke-width: 2; stroke: #000000" points="174.998,207.764 172.995,203.766 174.995,204.764 176.995,203.762 "/>
  </g>
  <line style="fill: none; fill-opacity:0; stroke-width: 2; stroke: #000000" x1="124.989" y1="197.989" x2="125.025" y2="211.192"/>
  <text style="fill: #000000;text-anchor:start;font-size:11.4468;font-family:sanserif;font-style:normal;font-weight:normal" x="56.002" y="276.692">
    <tspan x="56.002" y="276.692">4KB, 2-way set-associative 64B line cache read path</tspan>
  </text>
  <text style="fill: #000000;text-anchor:start;font-size:12.7998;font-family:sanserif;font-style:normal;font-weight:normal" x="16.902" y="154.992">
    <tspan x="16.902" y="154.992">Addr[31:11]</tspan>
  </text>
  <line style="fill: none; fill-opacity:0; stroke-width: 2; stroke: #000000" x1="100" y1="150" x2="160" y2="150"/>
  <g>
    <line style="fill: none; fill-opacity:0; stroke-width: 2; stroke: #000000" x1="160" y1="150" x2="167.77" y2="166.337"/>
    <polygon style="fill: #000000" points="169.058,169.046 165.534,166.293 167.77,166.337 169.146,164.575 "/>
    <polygon style="fill: none; fill-opacity:0; stroke-width: 2; stroke: #000000" points="169.058,169.046 165.534,166.293 167.77,166.337 169.146,164.575 "/>
  </g>
  <g>
    <line style="fill: none; fill-opacity:0; stroke-width: 2; stroke: #000000" x1="110" y1="150" x2="117.77" y2="166.337"/>
    <polygon style="fill: #000000" points="119.058,169.046 115.534,166.293 117.77,166.337 119.146,164.575 "/>
    <polygon style="fill: none; fill-opacity:0; stroke-width: 2; stroke: #000000" points="119.058,169.046 115.534,166.293 117.77,166.337 119.146,164.575 "/>
  </g>
</svg>
