<?xml version="1.0" encoding="UTF-8" standalone="no"?>
<!-- Created with Inkscape (http://www.inkscape.org/) -->

<svg
   xmlns:dc="http://purl.org/dc/elements/1.1/"
   xmlns:cc="http://creativecommons.org/ns#"
   xmlns:rdf="http://www.w3.org/1999/02/22-rdf-syntax-ns#"
   xmlns:svg="http://www.w3.org/2000/svg"
   xmlns="http://www.w3.org/2000/svg"
   xmlns:sodipodi="http://sodipodi.sourceforge.net/DTD/sodipodi-0.dtd"
   xmlns:inkscape="http://www.inkscape.org/namespaces/inkscape"
   version="1.1"
   id="svg2"
   xml:space="preserve"
   width="690"
   height="90"
   viewBox="0 0 690 90"
   sodipodi:docname="IPv6_link_local_unicast_address_stracture-en.svg"
   inkscape:version="0.92.4 (5da689c313, 2019-01-14)"><metadata
     id="metadata8"><rdf:RDF><cc:Work
         rdf:about=""><dc:format>image/svg+xml</dc:format><dc:type
           rdf:resource="http://purl.org/dc/dcmitype/StillImage" /><dc:title /></cc:Work></rdf:RDF></metadata><defs
     id="defs6"><clipPath
       clipPathUnits="userSpaceOnUse"
       id="clipPath18"><path
         d="M 0,1.2207e-4 H 960 V 540.00012 H 0 Z"
         id="path16"
         inkscape:connector-curvature="0"
         style="clip-rule:evenodd" /></clipPath><clipPath
       clipPathUnits="userSpaceOnUse"
       id="clipPath32"><path
         d="M 1.4305e-5,0 H 960.00001 V 540 H 1.4305e-5 Z"
         id="path30"
         inkscape:connector-curvature="0"
         style="clip-rule:evenodd" /></clipPath><clipPath
       clipPathUnits="userSpaceOnUse"
       id="clipPath48"><path
         d="M 1.4305e-5,0 H 960.00001 V 540 H 1.4305e-5 Z"
         id="path46"
         inkscape:connector-curvature="0"
         style="clip-rule:evenodd" /></clipPath><clipPath
       clipPathUnits="userSpaceOnUse"
       id="clipPath60"><path
         d="M -1.2207e-4,540 H 960 V 1.2207e-4 H -6.1035e-5"
         id="path58"
         inkscape:connector-curvature="0"
         style="clip-rule:evenodd" /></clipPath><clipPath
       clipPathUnits="userSpaceOnUse"
       id="clipPath70"><path
         d="M 1.4305e-5,0 H 960.00001 V 540 H 1.4305e-5 Z"
         id="path68"
         inkscape:connector-curvature="0"
         style="clip-rule:evenodd" /></clipPath><clipPath
       clipPathUnits="userSpaceOnUse"
       id="clipPath82"><path
         d="M 1.4305e-5,0 H 960.00001 V 540 H 1.4305e-5 Z"
         id="path80"
         inkscape:connector-curvature="0"
         style="clip-rule:evenodd" /></clipPath><clipPath
       clipPathUnits="userSpaceOnUse"
       id="clipPath94"><path
         d="M 1.4305e-5,0 H 960.00001 V 540 H 1.4305e-5 Z"
         id="path92"
         inkscape:connector-curvature="0"
         style="clip-rule:evenodd" /></clipPath><clipPath
       clipPathUnits="userSpaceOnUse"
       id="clipPath106"><path
         d="M 1.4305e-5,0 H 960.00001 V 540 H 1.4305e-5 Z"
         id="path104"
         inkscape:connector-curvature="0"
         style="clip-rule:evenodd" /></clipPath><clipPath
       clipPathUnits="userSpaceOnUse"
       id="clipPath118"><path
         d="M 1.4305e-5,0 H 960.00001 V 540 H 1.4305e-5 Z"
         id="path116"
         inkscape:connector-curvature="0"
         style="clip-rule:evenodd" /></clipPath><clipPath
       clipPathUnits="userSpaceOnUse"
       id="clipPath94-9"><path
         d="M 1.4305e-5,0 H 960.00001 V 540 H 1.4305e-5 Z"
         id="path92-0"
         inkscape:connector-curvature="0"
         style="clip-rule:evenodd" /></clipPath><clipPath
       clipPathUnits="userSpaceOnUse"
       id="clipPath60-8"><path
         d="M -1.2207e-4,540 H 960 V 1.2207e-4 H -6.1035e-5"
         id="path58-1"
         inkscape:connector-curvature="0"
         style="clip-rule:evenodd" /></clipPath><clipPath
       clipPathUnits="userSpaceOnUse"
       id="clipPath60-8-0"><path
         d="M -1.2207e-4,540 H 960 V 1.2207e-4 H -6.1035e-5"
         id="path58-1-1"
         inkscape:connector-curvature="0"
         style="clip-rule:evenodd" /></clipPath><clipPath
       clipPathUnits="userSpaceOnUse"
       id="clipPath60-8-0-0"><path
         d="M -1.2207e-4,540 H 960 V 1.2207e-4 H -6.1035e-5"
         id="path58-1-1-0"
         inkscape:connector-curvature="0"
         style="clip-rule:evenodd" /></clipPath><clipPath
       clipPathUnits="userSpaceOnUse"
       id="clipPath60-3"><path
         d="M -1.2207e-4,540 H 960 V 1.2207e-4 H -6.1035e-5"
         id="path58-6"
         inkscape:connector-curvature="0"
         style="clip-rule:evenodd" /></clipPath></defs><sodipodi:namedview
     pagecolor="#ffffff"
     bordercolor="#666666"
     borderopacity="1"
     objecttolerance="10"
     gridtolerance="10"
     guidetolerance="10"
     inkscape:pageopacity="0"
     inkscape:pageshadow="2"
     inkscape:window-width="1920"
     inkscape:window-height="986"
     id="namedview4"
     showgrid="false"
     inkscape:zoom="1.4142136"
     inkscape:cx="36.609741"
     inkscape:cy="-13.878233"
     inkscape:window-x="-11"
     inkscape:window-y="-11"
     inkscape:window-maximized="1"
     inkscape:current-layer="g10" /><g
     id="g10"
     inkscape:groupmode="layer"
     inkscape:label="New Microsoft PowerPoint Presentation"
     transform="matrix(1.3333333,0,0,-1.3333333,0,90)"><path
       inkscape:connector-curvature="0"
       style="opacity:1;fill:none;fill-opacity:1;fill-rule:nonzero;stroke:#000000;stroke-width:0.7486437;stroke-linecap:square;stroke-linejoin:miter;stroke-miterlimit:10;stroke-dasharray:none;stroke-dashoffset:0;stroke-opacity:1;paint-order:fill markers stroke"
       d="M 10.359404,38.426621 H 75.377388 V 9.3508551 H 10.359404 Z"
       id="rect958-7" /><path
       inkscape:connector-curvature="0"
       style="opacity:1;fill:none;fill-opacity:1;fill-rule:nonzero;stroke:#000000;stroke-width:0.75;stroke-linecap:square;stroke-linejoin:miter;stroke-miterlimit:10;stroke-dasharray:none;stroke-dashoffset:0;stroke-opacity:1;paint-order:fill markers stroke"
       d="M 75.377388,38.426621 H 258.7529 V 9.3508551 H 75.377388 Z"
       id="rect958-7-0" /><path
       inkscape:connector-curvature="0"
       style="opacity:1;fill:none;fill-opacity:1;fill-rule:nonzero;stroke:#000000;stroke-width:0.75;stroke-linecap:square;stroke-linejoin:miter;stroke-miterlimit:10;stroke-dasharray:none;stroke-dashoffset:0;stroke-opacity:1;paint-order:fill markers stroke"
       d="M 258.7529,38.426621 H 507.13993 V 9.3508551 H 258.7529 Z"
       id="rect958-4-0" /><g
       aria-label="مُعرِّف المُضيف"
       transform="matrix(1,0,0,-1,14.514673,-5.8990294)"
       inkscape:transform-center-x="-32.79661"
       style="font-style:normal;font-variant:normal;font-weight:normal;font-stretch:normal;font-size:20px;line-height:1.25;font-family:Calibri;-inkscape-font-specification:Calibri;letter-spacing:0px;word-spacing:0px;direction:rtl;fill:#000000;fill-opacity:1;stroke:none;stroke-width:0.75"
       id="text1019-9-3-8" /><g
       id="text930-3"
       style="font-style:normal;font-variant:normal;font-weight:normal;font-stretch:normal;font-size:12px;line-height:1.25;font-family:Calibri;-inkscape-font-specification:Calibri;letter-spacing:0px;word-spacing:0px;fill:#000000;fill-opacity:1;stroke:none;stroke-width:0.75"
       transform="matrix(1,0,0,-1,-4.7906496,-5.4263159)"
       aria-label="1111111010"><path
         inkscape:connector-curvature="0"
         id="path1137"
         style="stroke-width:0.75"
         d="m 22.325613,-25.729551 q 0,0.111328 -0.01758,0.1875 -0.01758,0.07617 -0.04687,0.123047 -0.0293,0.04687 -0.07031,0.07031 -0.03516,0.01758 -0.07617,0.01758 h -3.960938 q -0.04102,0 -0.07617,-0.01758 -0.03516,-0.02344 -0.07031,-0.07031 -0.0293,-0.04687 -0.04687,-0.123047 -0.01758,-0.07617 -0.01758,-0.1875 0,-0.105469 0.01758,-0.181641 0.01758,-0.07617 0.04102,-0.123047 0.0293,-0.05273 0.06445,-0.07617 0.04102,-0.0293 0.08789,-0.0293 h 1.582031 v -5.765625 l -1.464843,0.873047 q -0.111329,0.05859 -0.181641,0.07031 -0.06445,0.01172 -0.105469,-0.02344 -0.04102,-0.04102 -0.05859,-0.128906 -0.01172,-0.08789 -0.01172,-0.222656 0,-0.09961 0.0059,-0.169922 0.01172,-0.07031 0.0293,-0.117188 0.01758,-0.04687 0.04687,-0.08203 0.03516,-0.03516 0.08789,-0.07031 l 1.746093,-1.119141 q 0.02344,-0.01758 0.05859,-0.0293 0.03516,-0.01172 0.08789,-0.02344 0.05273,-0.01172 0.123047,-0.01172 0.07031,-0.0059 0.175781,-0.0059 0.140625,0 0.234375,0.01172 0.09375,0.01172 0.146484,0.03516 0.05273,0.01758 0.07031,0.05273 0.01758,0.0293 0.01758,0.06445 v 6.662109 h 1.371094 q 0.04687,0 0.08789,0.0293 0.04102,0.02344 0.06445,0.07617 0.0293,0.04687 0.04102,0.123047 0.01758,0.07617 0.01758,0.181641 z" /><path
         inkscape:connector-curvature="0"
         id="path1139"
         style="stroke-width:0.75"
         d="m 28.419363,-25.729551 q 0,0.111328 -0.01758,0.1875 -0.01758,0.07617 -0.04687,0.123047 -0.0293,0.04687 -0.07031,0.07031 -0.03516,0.01758 -0.07617,0.01758 h -3.960938 q -0.04102,0 -0.07617,-0.01758 -0.03516,-0.02344 -0.07031,-0.07031 -0.0293,-0.04687 -0.04687,-0.123047 -0.01758,-0.07617 -0.01758,-0.1875 0,-0.105469 0.01758,-0.181641 0.01758,-0.07617 0.04102,-0.123047 0.0293,-0.05273 0.06445,-0.07617 0.04102,-0.0293 0.08789,-0.0293 h 1.582031 v -5.765625 l -1.464843,0.873047 q -0.111329,0.05859 -0.181641,0.07031 -0.06445,0.01172 -0.105469,-0.02344 -0.04102,-0.04102 -0.05859,-0.128906 -0.01172,-0.08789 -0.01172,-0.222656 0,-0.09961 0.0059,-0.169922 0.01172,-0.07031 0.0293,-0.117188 0.01758,-0.04687 0.04687,-0.08203 0.03516,-0.03516 0.08789,-0.07031 l 1.746093,-1.119141 q 0.02344,-0.01758 0.05859,-0.0293 0.03516,-0.01172 0.08789,-0.02344 0.05273,-0.01172 0.123047,-0.01172 0.07031,-0.0059 0.175781,-0.0059 0.140625,0 0.234375,0.01172 0.09375,0.01172 0.146484,0.03516 0.05273,0.01758 0.07031,0.05273 0.01758,0.0293 0.01758,0.06445 v 6.662109 h 1.371094 q 0.04687,0 0.08789,0.0293 0.04102,0.02344 0.06445,0.07617 0.0293,0.04687 0.04102,0.123047 0.01758,0.07617 0.01758,0.181641 z" /><path
         inkscape:connector-curvature="0"
         id="path1141"
         style="stroke-width:0.75"
         d="m 34.513113,-25.729551 q 0,0.111328 -0.01758,0.1875 -0.01758,0.07617 -0.04687,0.123047 -0.0293,0.04687 -0.07031,0.07031 -0.03516,0.01758 -0.07617,0.01758 h -3.960938 q -0.04102,0 -0.07617,-0.01758 -0.03516,-0.02344 -0.07031,-0.07031 -0.0293,-0.04687 -0.04687,-0.123047 -0.01758,-0.07617 -0.01758,-0.1875 0,-0.105469 0.01758,-0.181641 0.01758,-0.07617 0.04102,-0.123047 0.0293,-0.05273 0.06445,-0.07617 0.04102,-0.0293 0.08789,-0.0293 h 1.582031 v -5.765625 l -1.464843,0.873047 q -0.111329,0.05859 -0.181641,0.07031 -0.06445,0.01172 -0.105469,-0.02344 -0.04102,-0.04102 -0.05859,-0.128906 -0.01172,-0.08789 -0.01172,-0.222656 0,-0.09961 0.0059,-0.169922 0.01172,-0.07031 0.0293,-0.117188 0.01758,-0.04687 0.04687,-0.08203 0.03516,-0.03516 0.08789,-0.07031 l 1.746093,-1.119141 q 0.02344,-0.01758 0.05859,-0.0293 0.03516,-0.01172 0.08789,-0.02344 0.05273,-0.01172 0.123047,-0.01172 0.07031,-0.0059 0.175781,-0.0059 0.140625,0 0.234375,0.01172 0.09375,0.01172 0.146484,0.03516 0.05274,0.01758 0.07031,0.05273 0.01758,0.0293 0.01758,0.06445 v 6.662109 h 1.371094 q 0.04687,0 0.08789,0.0293 0.04102,0.02344 0.06445,0.07617 0.0293,0.04687 0.04102,0.123047 0.01758,0.07617 0.01758,0.181641 z" /><path
         inkscape:connector-curvature="0"
         id="path1143"
         style="stroke-width:0.75"
         d="m 40.606863,-25.729551 q 0,0.111328 -0.01758,0.1875 -0.01758,0.07617 -0.04687,0.123047 -0.0293,0.04687 -0.07031,0.07031 -0.03516,0.01758 -0.07617,0.01758 h -3.960938 q -0.04102,0 -0.07617,-0.01758 -0.03516,-0.02344 -0.07031,-0.07031 -0.0293,-0.04687 -0.04687,-0.123047 -0.01758,-0.07617 -0.01758,-0.1875 0,-0.105469 0.01758,-0.181641 0.01758,-0.07617 0.04101,-0.123047 0.0293,-0.05273 0.06445,-0.07617 0.04102,-0.0293 0.08789,-0.0293 h 1.582031 v -5.765625 l -1.464843,0.873047 q -0.111329,0.05859 -0.181641,0.07031 -0.06445,0.01172 -0.105469,-0.02344 -0.04101,-0.04102 -0.05859,-0.128906 -0.01172,-0.08789 -0.01172,-0.222656 0,-0.09961 0.0059,-0.169922 0.01172,-0.07031 0.0293,-0.117188 0.01758,-0.04687 0.04687,-0.08203 0.03516,-0.03516 0.08789,-0.07031 l 1.746093,-1.119141 q 0.02344,-0.01758 0.05859,-0.0293 0.03516,-0.01172 0.08789,-0.02344 0.05273,-0.01172 0.123047,-0.01172 0.07031,-0.0059 0.175781,-0.0059 0.140625,0 0.234375,0.01172 0.09375,0.01172 0.146484,0.03516 0.05274,0.01758 0.07031,0.05273 0.01758,0.0293 0.01758,0.06445 v 6.662109 h 1.371094 q 0.04687,0 0.08789,0.0293 0.04102,0.02344 0.06445,0.07617 0.0293,0.04687 0.04102,0.123047 0.01758,0.07617 0.01758,0.181641 z" /><path
         inkscape:connector-curvature="0"
         id="path1145"
         style="stroke-width:0.75"
         d="m 46.700613,-25.729551 q 0,0.111328 -0.01758,0.1875 -0.01758,0.07617 -0.04687,0.123047 -0.0293,0.04687 -0.07031,0.07031 -0.03516,0.01758 -0.07617,0.01758 h -3.960938 q -0.04102,0 -0.07617,-0.01758 -0.03516,-0.02344 -0.07031,-0.07031 -0.0293,-0.04687 -0.04687,-0.123047 -0.01758,-0.07617 -0.01758,-0.1875 0,-0.105469 0.01758,-0.181641 0.01758,-0.07617 0.04101,-0.123047 0.0293,-0.05273 0.06445,-0.07617 0.04102,-0.0293 0.08789,-0.0293 h 1.582031 v -5.765625 l -1.464843,0.873047 q -0.111329,0.05859 -0.181641,0.07031 -0.06445,0.01172 -0.105469,-0.02344 -0.04101,-0.04102 -0.05859,-0.128906 -0.01172,-0.08789 -0.01172,-0.222656 0,-0.09961 0.0059,-0.169922 0.01172,-0.07031 0.0293,-0.117188 0.01758,-0.04687 0.04687,-0.08203 0.03516,-0.03516 0.08789,-0.07031 l 1.746093,-1.119141 q 0.02344,-0.01758 0.05859,-0.0293 0.03516,-0.01172 0.08789,-0.02344 0.05273,-0.01172 0.123047,-0.01172 0.07031,-0.0059 0.175781,-0.0059 0.140625,0 0.234375,0.01172 0.09375,0.01172 0.146484,0.03516 0.05274,0.01758 0.07031,0.05273 0.01758,0.0293 0.01758,0.06445 v 6.662109 h 1.371094 q 0.04687,0 0.08789,0.0293 0.04102,0.02344 0.06445,0.07617 0.0293,0.04687 0.04102,0.123047 0.01758,0.07617 0.01758,0.181641 z" /><path
         inkscape:connector-curvature="0"
         id="path1147"
         style="stroke-width:0.75"
         d="m 52.794363,-25.729551 q 0,0.111328 -0.01758,0.1875 -0.01758,0.07617 -0.04687,0.123047 -0.0293,0.04687 -0.07031,0.07031 -0.03516,0.01758 -0.07617,0.01758 h -3.960938 q -0.04102,0 -0.07617,-0.01758 -0.03516,-0.02344 -0.07031,-0.07031 -0.0293,-0.04687 -0.04687,-0.123047 -0.01758,-0.07617 -0.01758,-0.1875 0,-0.105469 0.01758,-0.181641 0.01758,-0.07617 0.04101,-0.123047 0.0293,-0.05273 0.06445,-0.07617 0.04102,-0.0293 0.08789,-0.0293 h 1.582031 v -5.765625 l -1.464843,0.873047 q -0.111329,0.05859 -0.181641,0.07031 -0.06445,0.01172 -0.105469,-0.02344 -0.04101,-0.04102 -0.05859,-0.128906 -0.01172,-0.08789 -0.01172,-0.222656 0,-0.09961 0.0059,-0.169922 0.01172,-0.07031 0.0293,-0.117188 0.01758,-0.04687 0.04687,-0.08203 0.03516,-0.03516 0.08789,-0.07031 l 1.746093,-1.119141 q 0.02344,-0.01758 0.05859,-0.0293 0.03516,-0.01172 0.08789,-0.02344 0.05273,-0.01172 0.123047,-0.01172 0.07031,-0.0059 0.175781,-0.0059 0.140625,0 0.234375,0.01172 0.09375,0.01172 0.146484,0.03516 0.05274,0.01758 0.07031,0.05273 0.01758,0.0293 0.01758,0.06445 v 6.662109 h 1.371094 q 0.04687,0 0.08789,0.0293 0.04102,0.02344 0.06445,0.07617 0.0293,0.04687 0.04102,0.123047 0.01758,0.07617 0.01758,0.181641 z" /><path
         inkscape:connector-curvature="0"
         id="path1149"
         style="stroke-width:0.75"
         d="m 58.888113,-25.729551 q 0,0.111328 -0.01758,0.1875 -0.01758,0.07617 -0.04687,0.123047 -0.0293,0.04687 -0.07031,0.07031 -0.03516,0.01758 -0.07617,0.01758 h -3.960938 q -0.04102,0 -0.07617,-0.01758 -0.03516,-0.02344 -0.07031,-0.07031 -0.0293,-0.04687 -0.04687,-0.123047 -0.01758,-0.07617 -0.01758,-0.1875 0,-0.105469 0.01758,-0.181641 0.01758,-0.07617 0.04101,-0.123047 0.0293,-0.05273 0.06445,-0.07617 0.04102,-0.0293 0.08789,-0.0293 h 1.582031 v -5.765625 l -1.464843,0.873047 q -0.111329,0.05859 -0.181641,0.07031 -0.06445,0.01172 -0.105469,-0.02344 -0.04101,-0.04102 -0.05859,-0.128906 -0.01172,-0.08789 -0.01172,-0.222656 0,-0.09961 0.0059,-0.169922 0.01172,-0.07031 0.0293,-0.117188 0.01758,-0.04687 0.04687,-0.08203 0.03516,-0.03516 0.08789,-0.07031 l 1.746093,-1.119141 q 0.02344,-0.01758 0.05859,-0.0293 0.03516,-0.01172 0.08789,-0.02344 0.05273,-0.01172 0.123047,-0.01172 0.07031,-0.0059 0.175781,-0.0059 0.140625,0 0.234375,0.01172 0.09375,0.01172 0.146484,0.03516 0.05274,0.01758 0.07031,0.05273 0.01758,0.0293 0.01758,0.06445 v 6.662109 h 1.371094 q 0.04687,0 0.08789,0.0293 0.04102,0.02344 0.06445,0.07617 0.0293,0.04687 0.04102,0.123047 0.01758,0.07617 0.01758,0.181641 z" /><path
         inkscape:connector-curvature="0"
         id="path1151"
         style="stroke-width:0.75"
         d="m 65.216238,-29.139708 q 0,0.873047 -0.140625,1.59375 -0.134766,0.720704 -0.457031,1.242188 -0.316406,0.515625 -0.832031,0.802734 -0.515625,0.28125 -1.271485,0.28125 -0.714844,0 -1.207031,-0.251953 -0.486328,-0.257812 -0.785156,-0.75 -0.298828,-0.498047 -0.427735,-1.21875 -0.123047,-0.726562 -0.123047,-1.664062 0,-0.867188 0.140625,-1.587891 0.140625,-0.726562 0.457032,-1.242187 0.316406,-0.521485 0.832031,-0.802735 0.515625,-0.287109 1.265625,-0.287109 0.720703,0 1.207031,0.257812 0.492188,0.251953 0.791016,0.75 0.298828,0.492188 0.421875,1.21875 0.128906,0.720703 0.128906,1.658203 z m -1.03125,0.07031 q 0,-0.568359 -0.04102,-1.019531 -0.04102,-0.451172 -0.123046,-0.796875 -0.07617,-0.345703 -0.205079,-0.591797 -0.123046,-0.251953 -0.298828,-0.410156 -0.175781,-0.164063 -0.404297,-0.234375 -0.222656,-0.07617 -0.503906,-0.07617 -0.498047,0 -0.808594,0.234375 -0.310546,0.234375 -0.492187,0.644531 -0.175781,0.410156 -0.240234,0.960937 -0.06445,0.550782 -0.06445,1.183594 0,0.84961 0.08789,1.447266 0.08789,0.591797 0.275391,0.966797 0.193359,0.375 0.486328,0.544922 0.298828,0.169921 0.720703,0.169921 0.328125,0 0.574219,-0.105468 0.251953,-0.105469 0.427734,-0.298828 0.181641,-0.199219 0.298828,-0.47461 0.117188,-0.27539 0.1875,-0.609375 0.07031,-0.333984 0.09375,-0.720703 0.0293,-0.392578 0.0293,-0.814453 z" /><path
         inkscape:connector-curvature="0"
         id="path1153"
         style="stroke-width:0.75"
         d="m 71.075613,-25.729551 q 0,0.111328 -0.01758,0.1875 -0.01758,0.07617 -0.04687,0.123047 -0.0293,0.04687 -0.07031,0.07031 -0.03516,0.01758 -0.07617,0.01758 h -3.960938 q -0.04102,0 -0.07617,-0.01758 -0.03516,-0.02344 -0.07031,-0.07031 -0.0293,-0.04687 -0.04687,-0.123047 -0.01758,-0.07617 -0.01758,-0.1875 0,-0.105469 0.01758,-0.181641 0.01758,-0.07617 0.04102,-0.123047 0.0293,-0.05273 0.06445,-0.07617 0.04102,-0.0293 0.08789,-0.0293 h 1.582031 v -5.765625 l -1.464843,0.873047 q -0.111329,0.05859 -0.181641,0.07031 -0.06445,0.01172 -0.105469,-0.02344 -0.04102,-0.04102 -0.05859,-0.128906 -0.01172,-0.08789 -0.01172,-0.222656 0,-0.09961 0.0059,-0.169922 0.01172,-0.07031 0.0293,-0.117188 0.01758,-0.04687 0.04687,-0.08203 0.03516,-0.03516 0.08789,-0.07031 l 1.746093,-1.119141 q 0.02344,-0.01758 0.05859,-0.0293 0.03516,-0.01172 0.08789,-0.02344 0.05273,-0.01172 0.123047,-0.01172 0.07031,-0.0059 0.175781,-0.0059 0.140625,0 0.234375,0.01172 0.09375,0.01172 0.146484,0.03516 0.05273,0.01758 0.07031,0.05273 0.01758,0.0293 0.01758,0.06445 v 6.662109 h 1.371094 q 0.04687,0 0.08789,0.0293 0.04102,0.02344 0.06445,0.07617 0.0293,0.04687 0.04102,0.123047 0.01758,0.07617 0.01758,0.181641 z" /><path
         inkscape:connector-curvature="0"
         id="path1155"
         style="stroke-width:0.75"
         d="m 77.403738,-29.139708 q 0,0.873047 -0.140625,1.59375 -0.134766,0.720704 -0.457031,1.242188 -0.316406,0.515625 -0.832031,0.802734 -0.515625,0.28125 -1.271485,0.28125 -0.714844,0 -1.207031,-0.251953 -0.486328,-0.257812 -0.785156,-0.75 -0.298828,-0.498047 -0.427735,-1.21875 -0.123047,-0.726562 -0.123047,-1.664062 0,-0.867188 0.140625,-1.587891 0.140625,-0.726562 0.457032,-1.242187 0.316406,-0.521485 0.832031,-0.802735 0.515625,-0.287109 1.265625,-0.287109 0.720703,0 1.207031,0.257812 0.492188,0.251953 0.791016,0.75 0.298828,0.492188 0.421875,1.21875 0.128906,0.720703 0.128906,1.658203 z m -1.03125,0.07031 q 0,-0.568359 -0.04102,-1.019531 -0.04102,-0.451172 -0.123046,-0.796875 -0.07617,-0.345703 -0.205079,-0.591797 -0.123046,-0.251953 -0.298828,-0.410156 -0.175781,-0.164063 -0.404297,-0.234375 -0.222656,-0.07617 -0.503906,-0.07617 -0.498047,0 -0.808594,0.234375 -0.310546,0.234375 -0.492187,0.644531 -0.175781,0.410156 -0.240234,0.960937 -0.06445,0.550782 -0.06445,1.183594 0,0.84961 0.08789,1.447266 0.08789,0.591797 0.275391,0.966797 0.193359,0.375 0.486328,0.544922 0.298828,0.169921 0.720703,0.169921 0.328125,0 0.574219,-0.105468 0.251953,-0.105469 0.427734,-0.298828 0.181641,-0.199219 0.298828,-0.47461 0.117188,-0.27539 0.1875,-0.609375 0.07031,-0.333984 0.09375,-0.720703 0.0293,-0.392578 0.0293,-0.814453 z" /></g><g
       id="text930-3-0"
       style="font-style:normal;font-variant:normal;font-weight:normal;font-stretch:normal;font-size:12px;line-height:1.25;font-family:Calibri;-inkscape-font-specification:Calibri;letter-spacing:0px;word-spacing:0px;fill:#000000;fill-opacity:1;stroke:none;stroke-width:0.75"
       transform="matrix(1,0,0,-1,-4.7906496,-5.4263159)"
       aria-label="00 ... 0"><path
         inkscape:connector-curvature="0"
         id="path1158"
         style="stroke-width:0.75"
         d="m 161.1302,-29.332632 q 0,0.873047 -0.14062,1.59375 -0.13477,0.720703 -0.45703,1.242187 -0.31641,0.515625 -0.83203,0.802735 -0.51563,0.28125 -1.27149,0.28125 -0.71484,0 -1.20703,-0.251953 -0.48633,-0.257813 -0.78516,-0.75 -0.29882,-0.498047 -0.42773,-1.21875 -0.12305,-0.726563 -0.12305,-1.664063 0,-0.867187 0.14063,-1.58789 0.14062,-0.726563 0.45703,-1.242188 0.31641,-0.521484 0.83203,-0.802734 0.51563,-0.28711 1.26563,-0.28711 0.7207,0 1.20703,0.257813 0.49218,0.251953 0.79101,0.75 0.29883,0.492187 0.42188,1.21875 0.1289,0.720703 0.1289,1.658203 z m -1.03125,0.07031 q 0,-0.568359 -0.041,-1.019531 -0.041,-0.451172 -0.12305,-0.796875 -0.0762,-0.345703 -0.20508,-0.591797 -0.12304,-0.251953 -0.29883,-0.410156 -0.17578,-0.164062 -0.40429,-0.234375 -0.22266,-0.07617 -0.50391,-0.07617 -0.49805,0 -0.80859,0.234375 -0.31055,0.234375 -0.49219,0.644531 -0.17578,0.410157 -0.24023,0.960938 -0.0645,0.550781 -0.0645,1.183594 0,0.849609 0.0879,1.447265 0.0879,0.591797 0.27539,0.966797 0.19336,0.375 0.48633,0.544922 0.29883,0.169922 0.72071,0.169922 0.32812,0 0.57421,-0.105469 0.25196,-0.105469 0.42774,-0.298828 0.18164,-0.199219 0.29883,-0.474609 0.11718,-0.275391 0.1875,-0.609375 0.0703,-0.333985 0.0937,-0.720703 0.0293,-0.392579 0.0293,-0.814454 z" /><path
         inkscape:connector-curvature="0"
         id="path1160"
         style="stroke-width:0.75"
         d="m 167.22395,-29.332632 q 0,0.873047 -0.14062,1.59375 -0.13477,0.720703 -0.45703,1.242187 -0.31641,0.515625 -0.83203,0.802735 -0.51563,0.28125 -1.27149,0.28125 -0.71484,0 -1.20703,-0.251953 -0.48633,-0.257813 -0.78516,-0.75 -0.29882,-0.498047 -0.42773,-1.21875 -0.12305,-0.726563 -0.12305,-1.664063 0,-0.867187 0.14063,-1.58789 0.14062,-0.726563 0.45703,-1.242188 0.31641,-0.521484 0.83203,-0.802734 0.51563,-0.28711 1.26563,-0.28711 0.7207,0 1.20703,0.257813 0.49218,0.251953 0.79101,0.75 0.29883,0.492187 0.42188,1.21875 0.1289,0.720703 0.1289,1.658203 z m -1.03125,0.07031 q 0,-0.568359 -0.041,-1.019531 -0.041,-0.451172 -0.12305,-0.796875 -0.0762,-0.345703 -0.20508,-0.591797 -0.12304,-0.251953 -0.29883,-0.410156 -0.17578,-0.164062 -0.40429,-0.234375 -0.22266,-0.07617 -0.50391,-0.07617 -0.49805,0 -0.80859,0.234375 -0.31055,0.234375 -0.49219,0.644531 -0.17578,0.410157 -0.24023,0.960938 -0.0645,0.550781 -0.0645,1.183594 0,0.849609 0.0879,1.447265 0.0879,0.591797 0.27539,0.966797 0.19336,0.375 0.48633,0.544922 0.29883,0.169922 0.72071,0.169922 0.32812,0 0.57421,-0.105469 0.25196,-0.105469 0.42774,-0.298828 0.18164,-0.199219 0.29883,-0.474609 0.11718,-0.275391 0.1875,-0.609375 0.0703,-0.333985 0.0937,-0.720703 0.0293,-0.392579 0.0293,-0.814454 z" /><path
         inkscape:connector-curvature="0"
         id="path1162"
         style="stroke-width:0.75"
         d="m 172.51497,-26.16271 q 0,0.416015 -0.14063,0.55664 -0.13476,0.134766 -0.49804,0.134766 -0.35157,0 -0.48633,-0.134766 -0.13477,-0.134765 -0.13477,-0.539062 0,-0.416016 0.13477,-0.550781 0.14062,-0.140625 0.50391,-0.140625 0.35156,0 0.48632,0.134765 0.13477,0.134766 0.13477,0.539063 z" /><path
         inkscape:connector-curvature="0"
         id="path1164"
         style="stroke-width:0.75"
         d="m 175.53841,-26.16271 q 0,0.416015 -0.14063,0.55664 -0.13476,0.134766 -0.49805,0.134766 -0.35156,0 -0.48632,-0.134766 -0.13477,-0.134765 -0.13477,-0.539062 0,-0.416016 0.13477,-0.550781 0.14062,-0.140625 0.5039,-0.140625 0.35157,0 0.48633,0.134765 0.13477,0.134766 0.13477,0.539063 z" /><path
         inkscape:connector-curvature="0"
         id="path1166"
         style="stroke-width:0.75"
         d="m 178.56184,-26.16271 q 0,0.416015 -0.14062,0.55664 -0.13477,0.134766 -0.49805,0.134766 -0.35156,0 -0.48633,-0.134766 -0.13476,-0.134765 -0.13476,-0.539062 0,-0.416016 0.13476,-0.550781 0.14063,-0.140625 0.50391,-0.140625 0.35156,0 0.48633,0.134765 0.13476,0.134766 0.13476,0.539063 z" /><path
         inkscape:connector-curvature="0"
         id="path1168"
         style="stroke-width:0.75"
         d="m 187.82552,-29.332632 q 0,0.873047 -0.14063,1.59375 -0.13476,0.720703 -0.45703,1.242187 -0.31641,0.515625 -0.83203,0.802735 -0.51563,0.28125 -1.27149,0.28125 -0.71484,0 -1.20703,-0.251953 -0.48633,-0.257813 -0.78515,-0.75 -0.29883,-0.498047 -0.42774,-1.21875 -0.12304,-0.726563 -0.12304,-1.664063 0,-0.867187 0.14062,-1.58789 0.14063,-0.726563 0.45703,-1.242188 0.31641,-0.521484 0.83203,-0.802734 0.51563,-0.28711 1.26563,-0.28711 0.7207,0 1.20703,0.257813 0.49219,0.251953 0.79101,0.75 0.29883,0.492187 0.42188,1.21875 0.12891,0.720703 0.12891,1.658203 z m -1.03125,0.07031 q 0,-0.568359 -0.041,-1.019531 -0.041,-0.451172 -0.12305,-0.796875 -0.0762,-0.345703 -0.20507,-0.591797 -0.12305,-0.251953 -0.29883,-0.410156 -0.17578,-0.164062 -0.4043,-0.234375 -0.22266,-0.07617 -0.50391,-0.07617 -0.49804,0 -0.80859,0.234375 -0.31055,0.234375 -0.49219,0.644531 -0.17578,0.410157 -0.24023,0.960938 -0.0644,0.550781 -0.0644,1.183594 0,0.849609 0.0879,1.447265 0.0879,0.591797 0.27539,0.966797 0.19336,0.375 0.48632,0.544922 0.29883,0.169922 0.72071,0.169922 0.32812,0 0.57422,-0.105469 0.25195,-0.105469 0.42773,-0.298828 0.18164,-0.199219 0.29883,-0.474609 0.11719,-0.275391 0.1875,-0.609375 0.0703,-0.333985 0.0937,-0.720703 0.0293,-0.392579 0.0293,-0.814454 z" /></g><g
       aria-label=" Interface ID"
       transform="scale(1,-1)"
       style="font-style:normal;font-variant:normal;font-weight:bold;font-stretch:normal;font-size:18px;line-height:1.25;font-family:Calibri;-inkscape-font-specification:'Calibri Bold';letter-spacing:0px;word-spacing:0px;fill:#000000;fill-opacity:1;stroke:none;stroke-width:0.75"
       id="text1178"><path
         d="m 345.39075,-18.153875 q 0,0.08789 -0.0615,0.158203 -0.0527,0.07031 -0.18457,0.114258 -0.13183,0.04395 -0.35156,0.07031 -0.21973,0.02637 -0.5625,0.02637 -0.33398,0 -0.5625,-0.02637 -0.21973,-0.02637 -0.35156,-0.07031 -0.13184,-0.04395 -0.19336,-0.114258 -0.0527,-0.07031 -0.0527,-0.158203 V -28.89411 q 0,-0.08789 0.0527,-0.158203 0.0615,-0.07031 0.19336,-0.114258 0.14062,-0.04394 0.36035,-0.07031 0.21973,-0.02637 0.55371,-0.02637 0.34277,0 0.5625,0.02637 0.21973,0.02637 0.35156,0.07031 0.13184,0.04395 0.18457,0.114258 0.0615,0.07031 0.0615,0.158203 z"
         style="font-style:normal;font-variant:normal;font-weight:bold;font-stretch:normal;font-family:Calibri;-inkscape-font-specification:'Calibri Bold';stroke-width:0.75"
         id="path1256" /><path
         d="m 355.24329,-18.136297 q 0,0.08789 -0.0527,0.158203 -0.0527,0.06152 -0.17578,0.105469 -0.12305,0.04395 -0.34277,0.06152 -0.21094,0.02637 -0.52735,0.02637 -0.32519,0 -0.54492,-0.02637 -0.21094,-0.01758 -0.33398,-0.06152 -0.12305,-0.04395 -0.17578,-0.105469 -0.0527,-0.07031 -0.0527,-0.158203 v -4.473633 q 0,-0.571289 -0.0879,-0.896484 -0.0791,-0.325196 -0.2373,-0.553711 -0.15821,-0.237305 -0.41309,-0.360352 -0.24609,-0.131836 -0.58008,-0.131836 -0.42187,0 -0.85254,0.307617 -0.43066,0.307618 -0.89648,0.896485 v 5.211914 q 0,0.08789 -0.0527,0.158203 -0.0527,0.06152 -0.18457,0.105469 -0.12304,0.04395 -0.33398,0.06152 -0.21094,0.02637 -0.53613,0.02637 -0.3252,0 -0.53614,-0.02637 -0.21093,-0.01758 -0.34277,-0.06152 -0.12305,-0.04395 -0.17578,-0.105469 -0.0527,-0.07031 -0.0527,-0.158203 v -7.839844 q 0,-0.08789 0.0439,-0.149414 0.0439,-0.07031 0.1582,-0.114258 0.11426,-0.04394 0.29004,-0.06152 0.18457,-0.02637 0.45703,-0.02637 0.28125,0 0.46582,0.02637 0.18457,0.01758 0.28125,0.06152 0.10547,0.04395 0.14942,0.114258 0.0439,0.06152 0.0439,0.149414 v 0.905273 q 0.65039,-0.703125 1.31836,-1.054687 0.67676,-0.351563 1.40625,-0.351563 0.79981,0 1.34473,0.263672 0.55371,0.263672 0.88769,0.720703 0.34278,0.448243 0.49219,1.054688 0.14942,0.606445 0.14942,1.458984 z"
         style="font-style:normal;font-variant:normal;font-weight:bold;font-stretch:normal;font-family:Calibri;-inkscape-font-specification:'Calibri Bold';stroke-width:0.75"
         id="path1258" /><path
         d="m 361.88782,-18.909735 q 0,0.386719 -0.0527,0.597657 -0.0439,0.202148 -0.12304,0.290039 -0.0791,0.0791 -0.23731,0.149414 -0.14941,0.06152 -0.36035,0.105468 -0.20215,0.05274 -0.44824,0.0791 -0.23731,0.02637 -0.4834,0.02637 -0.65918,0 -1.14258,-0.166992 -0.4834,-0.166992 -0.7998,-0.509766 -0.31641,-0.351562 -0.46582,-0.878906 -0.14942,-0.527344 -0.14942,-1.248047 V -24.482 h -0.94043 q -0.16699,0 -0.25488,-0.202149 -0.0879,-0.210937 -0.0879,-0.694336 0,-0.254883 0.0176,-0.430664 0.0264,-0.175781 0.0703,-0.272461 0.0439,-0.105468 0.10547,-0.149414 0.0703,-0.04394 0.1582,-0.04394 h 0.93164 v -1.749024 q 0,-0.08789 0.0439,-0.158203 0.0527,-0.07031 0.17578,-0.114257 0.13183,-0.05274 0.34277,-0.07031 0.21973,-0.02637 0.53613,-0.02637 0.3252,0 0.53614,0.02637 0.21972,0.01758 0.34277,0.07031 0.12305,0.04395 0.17578,0.114257 0.0527,0.07031 0.0527,0.158203 v 1.749024 h 1.70507 q 0.0879,0 0.14942,0.04394 0.0703,0.04395 0.11426,0.149414 0.0439,0.09668 0.0615,0.272461 0.0264,0.175781 0.0264,0.430664 0,0.483399 -0.0879,0.694336 -0.0879,0.202149 -0.25489,0.202149 h -1.71386 v 3.682617 q 0,0.641601 0.20215,0.966797 0.20214,0.316406 0.7207,0.316406 0.17578,0 0.3164,-0.02637 0.14063,-0.03516 0.2461,-0.07031 0.11426,-0.04394 0.18457,-0.07031 0.0791,-0.03516 0.14062,-0.03516 0.0527,0 0.0967,0.03516 0.0527,0.02637 0.0791,0.123047 0.0264,0.08789 0.0439,0.246093 0.0264,0.158204 0.0264,0.404297 z"
         style="font-style:normal;font-variant:normal;font-weight:bold;font-stretch:normal;font-family:Calibri;-inkscape-font-specification:'Calibri Bold';stroke-width:0.75"
         id="path1260" /><path
         d="m 370.53625,-22.284735 q 0,0.404297 -0.18457,0.597657 -0.17578,0.193359 -0.49218,0.193359 h -4.77246 q 0,0.500976 0.11425,0.914062 0.12305,0.404297 0.37793,0.694336 0.26368,0.28125 0.66797,0.430664 0.41309,0.149414 0.98438,0.149414 0.58008,0 1.01953,-0.0791 0.43945,-0.08789 0.75586,-0.18457 0.32519,-0.105469 0.53613,-0.184571 0.21094,-0.08789 0.34277,-0.08789 0.0791,0 0.13184,0.03516 0.0527,0.02637 0.0879,0.105469 0.0352,0.0791 0.0439,0.228515 0.0176,0.140625 0.0176,0.360352 0,0.193359 -0.009,0.333984 -0.009,0.131836 -0.0264,0.228516 -0.0176,0.09668 -0.0527,0.166992 -0.0352,0.06152 -0.0967,0.123047 -0.0527,0.06152 -0.30761,0.166992 -0.25489,0.105469 -0.65039,0.210938 -0.39551,0.09668 -0.90528,0.166992 -0.50976,0.0791 -1.08984,0.0791 -1.0459,0 -1.83692,-0.263672 -0.78222,-0.263671 -1.30957,-0.799804 -0.52734,-0.536133 -0.79101,-1.353516 -0.25488,-0.817383 -0.25488,-1.916015 0,-1.045899 0.27246,-1.88086 0.27246,-0.84375 0.79101,-1.423828 0.51856,-0.588867 1.25684,-0.896484 0.74707,-0.307618 1.67871,-0.307618 0.98437,0 1.67871,0.29004 0.70313,0.290039 1.15137,0.808593 0.44824,0.509766 0.65918,1.212891 0.21093,0.703125 0.21093,1.529297 z m -2.14453,-0.632812 q 0.0264,-0.931641 -0.37793,-1.458985 -0.3955,-0.536132 -1.23046,-0.536132 -0.42188,0 -0.73829,0.158203 -0.30761,0.158203 -0.51855,0.430664 -0.20215,0.263672 -0.31641,0.632812 -0.10547,0.360352 -0.12304,0.773438 z"
         style="font-style:normal;font-variant:normal;font-weight:bold;font-stretch:normal;font-family:Calibri;-inkscape-font-specification:'Calibri Bold';stroke-width:0.75"
         id="path1262" /><path
         d="m 377.40051,-25.246649 q 0,0.316406 -0.0176,0.518555 -0.0176,0.202148 -0.0527,0.316406 -0.0352,0.114258 -0.0967,0.158203 -0.0527,0.04395 -0.14062,0.04395 -0.0703,0 -0.15821,-0.02637 -0.0879,-0.03516 -0.20215,-0.07031 -0.10546,-0.03516 -0.2373,-0.06152 -0.13184,-0.03516 -0.29004,-0.03516 -0.18457,0 -0.36914,0.0791 -0.18457,0.07031 -0.38672,0.228515 -0.19336,0.158204 -0.41309,0.421875 -0.21093,0.263672 -0.45703,0.650391 v 4.886719 q 0,0.08789 -0.0527,0.158203 -0.0527,0.06152 -0.18457,0.105469 -0.12305,0.04395 -0.33399,0.06152 -0.21093,0.02637 -0.53613,0.02637 -0.32519,0 -0.53613,-0.02637 -0.21094,-0.01758 -0.34277,-0.06152 -0.12305,-0.04395 -0.17579,-0.105469 -0.0527,-0.07031 -0.0527,-0.158203 v -7.839844 q 0,-0.08789 0.0439,-0.149414 0.0439,-0.07031 0.1582,-0.114258 0.11426,-0.04394 0.29004,-0.06152 0.18457,-0.02637 0.45703,-0.02637 0.28125,0 0.46582,0.02637 0.18457,0.01758 0.28125,0.06152 0.10547,0.04395 0.14941,0.114258 0.0439,0.06152 0.0439,0.149414 v 0.975586 q 0.30762,-0.439453 0.58008,-0.720703 0.27246,-0.290039 0.51855,-0.457031 0.24609,-0.166993 0.49219,-0.228516 0.24609,-0.07031 0.49219,-0.07031 0.11425,0 0.24609,0.01758 0.13184,0.0088 0.27246,0.04395 0.14063,0.02637 0.24609,0.07031 0.10547,0.03516 0.14942,0.0791 0.0527,0.04394 0.0703,0.09668 0.0264,0.05273 0.0439,0.149414 0.0176,0.08789 0.0264,0.272461 0.009,0.18457 0.009,0.500976 z"
         style="font-style:normal;font-variant:normal;font-weight:bold;font-stretch:normal;font-family:Calibri;-inkscape-font-specification:'Calibri Bold';stroke-width:0.75"
         id="path1264" /><path
         d="m 383.49133,-28.964422 q 0,0.254883 -0.0176,0.413086 -0.0176,0.149414 -0.0527,0.237304 -0.0352,0.0791 -0.0791,0.114258 -0.0439,0.02637 -0.0967,0.02637 -0.0615,0 -0.14063,-0.02637 -0.0703,-0.03516 -0.18457,-0.07031 -0.10546,-0.03516 -0.25488,-0.06152 -0.14941,-0.03516 -0.35156,-0.03516 -0.23731,0 -0.41309,0.0791 -0.16699,0.07031 -0.28125,0.237304 -0.11426,0.158203 -0.16699,0.421875 -0.0527,0.254883 -0.0527,0.632813 v 0.720703 h 1.43261 q 0.0791,0 0.14063,0.04394 0.0703,0.04395 0.11426,0.149414 0.0439,0.09668 0.0615,0.272461 0.0264,0.175781 0.0264,0.430664 0,0.483399 -0.0879,0.694336 -0.0879,0.202149 -0.25489,0.202149 h -1.43261 v 6.345703 q 0,0.08789 -0.0527,0.158203 -0.0527,0.06152 -0.17578,0.105469 -0.12305,0.04395 -0.34277,0.06152 -0.21973,0.02637 -0.53614,0.02637 -0.3164,0 -0.53613,-0.02637 -0.21094,-0.01758 -0.34277,-0.06152 -0.12305,-0.04395 -0.17578,-0.105469 -0.0439,-0.07031 -0.0439,-0.158203 V -24.482 h -0.98437 q -0.167,0 -0.25489,-0.202149 -0.0791,-0.210937 -0.0791,-0.694336 0,-0.254883 0.0176,-0.430664 0.0264,-0.175781 0.0615,-0.272461 0.0439,-0.105468 0.10547,-0.149414 0.0703,-0.04394 0.15821,-0.04394 h 0.97558 v -0.65918 q 0,-0.799804 0.1582,-1.397461 0.15821,-0.606445 0.49219,-1.001953 0.34278,-0.404297 0.86133,-0.606445 0.52734,-0.202149 1.23926,-0.202149 0.34277,0 0.65039,0.06152 0.30762,0.05273 0.4834,0.123047 0.17578,0.06152 0.2373,0.123047 0.0615,0.05273 0.0967,0.166992 0.0439,0.105469 0.0615,0.28125 0.0176,0.166992 0.0176,0.421875 z"
         style="font-style:normal;font-variant:normal;font-weight:bold;font-stretch:normal;font-family:Calibri;-inkscape-font-specification:'Calibri Bold';stroke-width:0.75"
         id="path1266" /><path
         d="m 390.85657,-18.10993 q 0,0.123047 -0.0879,0.193359 -0.0879,0.07031 -0.28125,0.09668 -0.18457,0.03516 -0.55371,0.03516 -0.39551,0 -0.58008,-0.03516 -0.17578,-0.02637 -0.25489,-0.09668 -0.0703,-0.07031 -0.0703,-0.193359 v -0.624023 q -0.4834,0.518554 -1.10742,0.808593 -0.61523,0.290039 -1.37109,0.290039 -0.62403,0 -1.15137,-0.166992 -0.51856,-0.158203 -0.90527,-0.474609 -0.37793,-0.325196 -0.58887,-0.799805 -0.21094,-0.474609 -0.21094,-1.107422 0,-0.685547 0.26367,-1.186523 0.27246,-0.509766 0.79981,-0.834961 0.53613,-0.333985 1.32715,-0.492188 0.79101,-0.158203 1.83691,-0.158203 h 0.76465 v -0.474609 q 0,-0.369141 -0.0791,-0.641602 -0.0703,-0.28125 -0.2461,-0.46582 -0.16699,-0.18457 -0.45703,-0.272461 -0.28125,-0.08789 -0.70312,-0.08789 -0.55371,0 -0.99317,0.123047 -0.43066,0.123047 -0.76465,0.272461 -0.33398,0.149414 -0.5625,0.272461 -0.21972,0.123047 -0.36035,0.123047 -0.0967,0 -0.17578,-0.06152 -0.0703,-0.06152 -0.12304,-0.175782 -0.0439,-0.114257 -0.0703,-0.28125 -0.0264,-0.166992 -0.0264,-0.36914 0,-0.272461 0.0439,-0.430664 0.0439,-0.158203 0.16699,-0.28125 0.12305,-0.131836 0.43067,-0.28125 0.30761,-0.158203 0.7207,-0.290039 0.41309,-0.131836 0.89648,-0.210938 0.49219,-0.08789 1.01075,-0.08789 0.92285,0 1.57324,0.184571 0.65918,0.175781 1.08105,0.553711 0.42188,0.36914 0.61524,0.958008 0.19336,0.588867 0.19336,1.39746 z m -2.1709,-3.357422 h -0.84375 q -0.53613,0 -0.91406,0.0791 -0.37793,0.0791 -0.61524,0.237304 -0.2373,0.158203 -0.35156,0.386719 -0.10547,0.219727 -0.10547,0.509766 0,0.492187 0.30762,0.773437 0.3164,0.28125 0.87012,0.28125 0.46582,0 0.85253,-0.237304 0.39551,-0.237305 0.79981,-0.694336 z"
         style="font-style:normal;font-variant:normal;font-weight:bold;font-stretch:normal;font-family:Calibri;-inkscape-font-specification:'Calibri Bold';stroke-width:0.75"
         id="path1268" /><path
         d="m 399.00403,-19.384344 q 0,0.228516 -0.0176,0.386719 -0.009,0.149414 -0.0352,0.254882 -0.0176,0.105469 -0.0527,0.175782 -0.0264,0.06152 -0.13184,0.166992 -0.10547,0.09668 -0.36035,0.246094 -0.25488,0.140625 -0.58008,0.254882 -0.32519,0.114258 -0.71191,0.184571 -0.37793,0.07031 -0.78223,0.07031 -0.90527,0 -1.6084,-0.28125 -0.69433,-0.28125 -1.16894,-0.826172 -0.47461,-0.553711 -0.7207,-1.344726 -0.23731,-0.791016 -0.23731,-1.810547 0,-1.177734 0.29004,-2.030273 0.29883,-0.861329 0.82617,-1.423829 0.52735,-0.5625 1.24805,-0.834961 0.7207,-0.27246 1.58203,-0.27246 0.35156,0 0.68555,0.06152 0.34277,0.06152 0.63281,0.166992 0.29883,0.105469 0.52734,0.237305 0.23731,0.131836 0.33399,0.228515 0.0967,0.09668 0.13183,0.166993 0.0439,0.06152 0.0615,0.166992 0.0264,0.105469 0.0351,0.263672 0.0176,0.149414 0.0176,0.36914 0,0.509766 -0.0879,0.720703 -0.0879,0.202149 -0.22851,0.202149 -0.14942,0 -0.31641,-0.123047 -0.16699,-0.123047 -0.39551,-0.272461 -0.22851,-0.149414 -0.54492,-0.272461 -0.31641,-0.123047 -0.75586,-0.123047 -0.86133,0 -1.31836,0.667969 -0.45703,0.65918 -0.45703,1.942383 0,0.632812 0.11426,1.116211 0.11426,0.483398 0.33398,0.808594 0.22852,0.325195 0.5625,0.492187 0.34278,0.158203 0.79102,0.158203 0.45703,0 0.78222,-0.131836 0.33399,-0.140625 0.58008,-0.307617 0.2461,-0.166992 0.41309,-0.298828 0.16699,-0.140625 0.28125,-0.140625 0.0791,0 0.13183,0.04394 0.0527,0.04395 0.0791,0.166992 0.0351,0.114258 0.0527,0.298829 0.0176,0.18457 0.0176,0.474609 z"
         style="font-style:normal;font-variant:normal;font-weight:bold;font-stretch:normal;font-family:Calibri;-inkscape-font-specification:'Calibri Bold';stroke-width:0.75"
         id="path1270" /><path
         d="m 407.83704,-22.284735 q 0,0.404297 -0.18457,0.597657 -0.17579,0.193359 -0.49219,0.193359 h -4.77246 q 0,0.500976 0.11426,0.914062 0.12304,0.404297 0.37792,0.694336 0.26368,0.28125 0.66797,0.430664 0.41309,0.149414 0.98438,0.149414 0.58008,0 1.01953,-0.0791 0.43945,-0.08789 0.75586,-0.18457 0.32519,-0.105469 0.53613,-0.184571 0.21094,-0.08789 0.34278,-0.08789 0.0791,0 0.13183,0.03516 0.0527,0.02637 0.0879,0.105469 0.0352,0.0791 0.0439,0.228515 0.0176,0.140625 0.0176,0.360352 0,0.193359 -0.009,0.333984 -0.009,0.131836 -0.0264,0.228516 -0.0176,0.09668 -0.0527,0.166992 -0.0351,0.06152 -0.0967,0.123047 -0.0527,0.06152 -0.30762,0.166992 -0.25488,0.105469 -0.65039,0.210938 -0.39551,0.09668 -0.90528,0.166992 -0.50976,0.0791 -1.08984,0.0791 -1.0459,0 -1.83691,-0.263672 -0.78223,-0.263671 -1.30957,-0.799804 -0.52735,-0.536133 -0.79102,-1.353516 -0.25488,-0.817383 -0.25488,-1.916015 0,-1.045899 0.27246,-1.88086 0.27246,-0.84375 0.79101,-1.423828 0.51856,-0.588867 1.25684,-0.896484 0.74707,-0.307618 1.67871,-0.307618 0.98438,0 1.67871,0.29004 0.70313,0.290039 1.15137,0.808593 0.44824,0.509766 0.65918,1.212891 0.21094,0.703125 0.21094,1.529297 z m -2.14454,-0.632812 q 0.0264,-0.931641 -0.37792,-1.458985 -0.39551,-0.536132 -1.23047,-0.536132 -0.42188,0 -0.73828,0.158203 -0.30762,0.158203 -0.51856,0.430664 -0.20215,0.263672 -0.31641,0.632812 -0.10546,0.360352 -0.12304,0.773438 z"
         style="font-style:normal;font-variant:normal;font-weight:bold;font-stretch:normal;font-family:Calibri;-inkscape-font-specification:'Calibri Bold';stroke-width:0.75"
         id="path1272" /><path
         d="m 416.19543,-18.153875 q 0,0.08789 -0.0615,0.158203 -0.0527,0.07031 -0.18457,0.114258 -0.13184,0.04395 -0.35156,0.07031 -0.21973,0.02637 -0.5625,0.02637 -0.33399,0 -0.5625,-0.02637 -0.21973,-0.02637 -0.35156,-0.07031 -0.13184,-0.04395 -0.19336,-0.114258 -0.0527,-0.07031 -0.0527,-0.158203 V -28.89411 q 0,-0.08789 0.0527,-0.158203 0.0615,-0.07031 0.19336,-0.114258 0.14062,-0.04394 0.36035,-0.07031 0.21972,-0.02637 0.55371,-0.02637 0.34277,0 0.5625,0.02637 0.21972,0.02637 0.35156,0.07031 0.13184,0.04395 0.18457,0.114258 0.0615,0.07031 0.0615,0.158203 z"
         style="font-style:normal;font-variant:normal;font-weight:bold;font-stretch:normal;font-family:Calibri;-inkscape-font-specification:'Calibri Bold';stroke-width:0.75"
         id="path1274" /><path
         d="m 428.13977,-23.690985 q 0,1.564453 -0.41309,2.680664 -0.40429,1.107422 -1.16894,1.810547 -0.76465,0.703125 -1.86328,1.03711 -1.08985,0.325195 -2.60156,0.325195 h -2.71582 q -0.29004,0 -0.49219,-0.166992 -0.19336,-0.175782 -0.19336,-0.5625 v -9.914063 q 0,-0.386719 0.19336,-0.553711 0.20215,-0.175781 0.49219,-0.175781 h 2.91796 q 1.52051,0 2.5752,0.360352 1.06348,0.351562 1.78418,1.054687 0.72949,0.694336 1.10742,1.722656 0.37793,1.028321 0.37793,2.381836 z m -2.39062,0.0791 q 0,-0.808594 -0.19336,-1.50293 -0.18457,-0.694336 -0.60645,-1.204101 -0.41309,-0.509766 -1.07226,-0.791016 -0.6504,-0.290039 -1.71387,-0.290039 h -1.16895 v 7.734375 h 1.2041 q 0.94922,0 1.59961,-0.246094 0.65039,-0.246094 1.08106,-0.738281 0.43945,-0.500977 0.65039,-1.239258 0.21973,-0.738281 0.21973,-1.722656 z"
         style="font-style:normal;font-variant:normal;font-weight:bold;font-stretch:normal;font-family:Calibri;-inkscape-font-specification:'Calibri Bold';stroke-width:0.75"
         id="path1276" /></g><g
       aria-label="64 bits"
       transform="scale(1,-1)"
       style="font-style:normal;font-variant:normal;font-weight:normal;font-stretch:normal;font-size:16px;line-height:1.25;font-family:Calibri;-inkscape-font-specification:Calibri;letter-spacing:0px;word-spacing:0px;fill:#000000;fill-opacity:1;stroke:none;stroke-width:0.75"
       id="text1228"><path
         d="m 368.52844,-45.648437 q 0,0.664062 -0.20312,1.289062 -0.20313,0.617188 -0.625,1.09375 -0.42188,0.46875 -1.07032,0.757813 -0.64843,0.28125 -1.53125,0.28125 -0.63281,0 -1.11718,-0.15625 -0.48438,-0.15625 -0.84375,-0.445313 -0.35938,-0.289062 -0.60157,-0.710937 -0.23437,-0.421875 -0.38281,-0.960938 -0.14062,-0.539062 -0.20312,-1.179687 -0.0625,-0.640625 -0.0625,-1.375 0,-0.648438 0.0703,-1.3125 0.0703,-0.664063 0.25,-1.28125 0.17969,-0.617188 0.48437,-1.15625 0.3125,-0.546875 0.77344,-0.945313 0.46875,-0.40625 1.11719,-0.640625 0.64844,-0.234375 1.50781,-0.234375 0.28906,0 0.58594,0.03906 0.29687,0.03125 0.54687,0.09375 0.25,0.05469 0.42188,0.125 0.17187,0.07031 0.22656,0.117187 0.0547,0.03906 0.0781,0.09375 0.0312,0.04687 0.0469,0.109375 0.0156,0.05469 0.0234,0.132813 0.008,0.07031 0.008,0.179687 0,0.140625 -0.008,0.242188 0,0.101562 -0.0312,0.164062 -0.0234,0.0625 -0.0703,0.09375 -0.0391,0.03125 -0.10938,0.03125 -0.0859,0 -0.23437,-0.05469 -0.14844,-0.05469 -0.35938,-0.117188 -0.21094,-0.07031 -0.51562,-0.125 -0.29688,-0.05469 -0.69532,-0.05469 -0.72656,0 -1.25,0.296875 -0.52343,0.296875 -0.85937,0.796875 -0.32813,0.5 -0.49219,1.164062 -0.15625,0.65625 -0.17969,1.375 0.20313,-0.117187 0.45313,-0.234375 0.25781,-0.117187 0.55469,-0.210937 0.30468,-0.09375 0.64062,-0.148438 0.33594,-0.0625 0.71875,-0.0625 0.82031,0 1.38281,0.226563 0.5625,0.21875 0.90625,0.617187 0.35157,0.390625 0.5,0.929688 0.14844,0.53125 0.14844,1.15625 z m -1.35937,0.125 q 0,-0.453125 -0.0937,-0.820313 -0.0859,-0.375 -0.29688,-0.632812 -0.21094,-0.257813 -0.5625,-0.398438 -0.35156,-0.140625 -0.86719,-0.140625 -0.28906,0 -0.57812,0.05469 -0.28906,0.04687 -0.5625,0.140625 -0.26563,0.08594 -0.51563,0.210937 -0.24218,0.117188 -0.44531,0.257813 0,1.007812 0.125,1.6875 0.13281,0.679687 0.375,1.09375 0.25,0.40625 0.61719,0.585937 0.36719,0.171875 0.85937,0.171875 0.5,0 0.86719,-0.1875 0.36719,-0.1875 0.60938,-0.5 0.24218,-0.320312 0.35156,-0.710937 0.11719,-0.398438 0.11719,-0.8125 z"
         style="stroke-width:0.75"
         id="path1279" /><path
         d="m 376.82532,-45.25 q 0,0.257813 -0.0781,0.40625 -0.0781,0.148438 -0.21875,0.148438 h -1.14062 v 2.125 q 0,0.0625 -0.0312,0.109375 -0.0312,0.03906 -0.10938,0.07031 -0.0781,0.03125 -0.20312,0.04687 -0.125,0.01563 -0.32032,0.01563 -0.1875,0 -0.3125,-0.01563 -0.125,-0.01563 -0.20312,-0.04687 -0.0703,-0.03125 -0.10156,-0.07031 -0.0234,-0.04687 -0.0234,-0.109375 v -2.125 h -4.17188 q -0.0937,0 -0.15625,-0.02344 -0.0625,-0.02344 -0.11718,-0.08594 -0.0469,-0.0625 -0.0703,-0.179688 -0.0156,-0.117187 -0.0156,-0.304687 0,-0.148438 0.008,-0.265625 0.008,-0.117188 0.0312,-0.210938 0.0234,-0.101562 0.0625,-0.1875 0.0391,-0.09375 0.0937,-0.195312 l 3.64063,-6.140625 q 0.0391,-0.0625 0.10937,-0.109375 0.0781,-0.04687 0.19531,-0.07813 0.11719,-0.03125 0.28907,-0.03906 0.17187,-0.01563 0.40625,-0.01563 0.25781,0 0.44531,0.02344 0.19531,0.01563 0.3125,0.04687 0.11719,0.03125 0.17969,0.08594 0.0625,0.04687 0.0625,0.117188 v 6.453125 h 1.14062 q 0.13281,0 0.21094,0.140625 0.0859,0.132812 0.0859,0.414062 z m -2.74219,-6.101562 h -0.0156 l -3.28906,5.546875 h 3.30469 z"
         style="stroke-width:0.75"
         id="path1281" /><path
         d="m 388.59094,-46.179687 q 0,0.914062 -0.20312,1.648437 -0.19532,0.726563 -0.58594,1.242188 -0.38281,0.515625 -0.94531,0.789062 -0.5625,0.273438 -1.28907,0.273438 -0.33593,0 -0.625,-0.07031 -0.28125,-0.0625 -0.55468,-0.210937 -0.27344,-0.148438 -0.54688,-0.375 -0.27344,-0.226563 -0.57812,-0.546875 v 0.859375 q 0,0.0625 -0.0312,0.109375 -0.0312,0.04687 -0.10157,0.07813 -0.0703,0.02344 -0.17968,0.03906 -0.10157,0.01563 -0.26563,0.01563 -0.15625,0 -0.26562,-0.01563 -0.10938,-0.01563 -0.17969,-0.03906 -0.0703,-0.03125 -0.0937,-0.07813 -0.0234,-0.04687 -0.0234,-0.109375 v -10.4375 q 0,-0.0625 0.0234,-0.109375 0.0312,-0.04687 0.10156,-0.07813 0.0781,-0.03125 0.20313,-0.04687 0.125,-0.01563 0.3125,-0.01563 0.19531,0 0.32031,0.01563 0.125,0.01563 0.19531,0.04687 0.0703,0.03125 0.10156,0.07813 0.0312,0.04687 0.0312,0.109375 v 4.210937 q 0.3125,-0.320312 0.60157,-0.539062 0.29687,-0.21875 0.57812,-0.351563 0.28125,-0.140625 0.5625,-0.203125 0.28125,-0.0625 0.59375,-0.0625 0.76563,0 1.30469,0.304688 0.54687,0.304687 0.88281,0.820312 0.34375,0.507813 0.5,1.195313 0.15625,0.6875 0.15625,1.453125 z m -1.35937,0.148437 q 0,-0.539062 -0.0859,-1.046875 -0.0781,-0.507812 -0.28125,-0.898437 -0.20313,-0.390625 -0.53906,-0.625 -0.33594,-0.242188 -0.83594,-0.242188 -0.25,0 -0.49219,0.07031 -0.24219,0.07031 -0.49219,0.234375 -0.25,0.164062 -0.52343,0.421875 -0.26563,0.257812 -0.57032,0.648437 v 2.804688 q 0.53125,0.648437 1.01563,0.992187 0.48437,0.335938 1.00781,0.335938 0.48438,0 0.82813,-0.234375 0.34375,-0.234375 0.55468,-0.617188 0.21875,-0.390625 0.3125,-0.867187 0.10157,-0.484375 0.10157,-0.976563 z"
         style="stroke-width:0.75"
         id="path1283" /><path
         d="m 391.8175,-42.570312 q 0,0.0625 -0.0312,0.109375 -0.0312,0.03906 -0.10156,0.07031 -0.0703,0.03125 -0.19531,0.04687 -0.125,0.01563 -0.32031,0.01563 -0.1875,0 -0.3125,-0.01563 -0.125,-0.01563 -0.20313,-0.04687 -0.0703,-0.03125 -0.10156,-0.07031 -0.0234,-0.04687 -0.0234,-0.109375 v -7.03125 q 0,-0.05469 0.0234,-0.101563 0.0312,-0.04687 0.10156,-0.07813 0.0781,-0.03125 0.20313,-0.04687 0.125,-0.01563 0.3125,-0.01563 0.19531,0 0.32031,0.01563 0.125,0.01563 0.19531,0.04687 0.0703,0.03125 0.10156,0.07813 0.0312,0.04687 0.0312,0.101563 z m 0.14844,-9.40625 q 0,0.453125 -0.17187,0.617187 -0.17188,0.164063 -0.63282,0.164063 -0.45312,0 -0.625,-0.15625 -0.16406,-0.164063 -0.16406,-0.609375 0,-0.453125 0.17188,-0.617188 0.17187,-0.164062 0.63281,-0.164062 0.45312,0 0.61719,0.164062 0.17187,0.15625 0.17187,0.601563 z"
         style="stroke-width:0.75"
         id="path1285" /><path
         d="m 397.87219,-43.085937 q 0,0.226562 -0.0312,0.359375 -0.0312,0.132812 -0.0937,0.195312 -0.0625,0.0625 -0.1875,0.117188 -0.125,0.05469 -0.28906,0.08594 -0.15625,0.03906 -0.33594,0.0625 -0.17969,0.02344 -0.35937,0.02344 -0.54688,0 -0.9375,-0.140625 -0.39063,-0.148438 -0.64063,-0.4375 -0.25,-0.296875 -0.36719,-0.742188 -0.10937,-0.453125 -0.10937,-1.0625 v -4.109375 h -0.98438 q -0.11718,0 -0.1875,-0.125 -0.0703,-0.125 -0.0703,-0.40625 0,-0.148437 0.0156,-0.25 0.0234,-0.101562 0.0547,-0.164062 0.0312,-0.07031 0.0781,-0.09375 0.0547,-0.03125 0.11719,-0.03125 h 0.97656 v -1.671875 q 0,-0.05469 0.0234,-0.101563 0.0312,-0.04687 0.10156,-0.07813 0.0781,-0.03906 0.20312,-0.05469 0.125,-0.01563 0.3125,-0.01563 0.19532,0 0.32032,0.01563 0.125,0.01563 0.19531,0.05469 0.0703,0.03125 0.10156,0.07813 0.0312,0.04687 0.0312,0.101563 v 1.671875 h 1.80469 q 0.0625,0 0.10937,0.03125 0.0469,0.02344 0.0781,0.09375 0.0391,0.0625 0.0547,0.164062 0.0156,0.101563 0.0156,0.25 0,0.28125 -0.0703,0.40625 -0.0703,0.125 -0.1875,0.125 h -1.80469 v 3.921875 q 0,0.726563 0.21094,1.101563 0.21875,0.367187 0.77344,0.367187 0.17968,0 0.32031,-0.03125 0.14062,-0.03906 0.25,-0.07813 0.10937,-0.03906 0.1875,-0.07031 0.0781,-0.03906 0.14062,-0.03906 0.0391,0 0.0703,0.02344 0.0391,0.01563 0.0547,0.07031 0.0234,0.05469 0.0391,0.148438 0.0156,0.09375 0.0156,0.234375 z"
         style="stroke-width:0.75"
         id="path1287" /><path
         d="m 404.005,-44.484375 q 0,0.539063 -0.20312,0.960938 -0.19531,0.421875 -0.5625,0.710937 -0.36719,0.289063 -0.875,0.4375 -0.50781,0.148438 -1.11719,0.148438 -0.375,0 -0.71875,-0.0625 -0.33594,-0.05469 -0.60937,-0.140625 -0.26563,-0.09375 -0.45313,-0.1875 -0.1875,-0.101563 -0.27344,-0.179688 -0.0859,-0.07813 -0.125,-0.21875 -0.0391,-0.140625 -0.0391,-0.382812 0,-0.148438 0.0156,-0.25 0.0156,-0.101563 0.0391,-0.164063 0.0234,-0.0625 0.0625,-0.08594 0.0469,-0.03125 0.10156,-0.03125 0.0859,0 0.25,0.109375 0.17188,0.101562 0.41406,0.226562 0.25,0.125 0.58594,0.234375 0.33594,0.101563 0.77344,0.101563 0.32812,0 0.59375,-0.07031 0.26562,-0.07031 0.46094,-0.203125 0.19531,-0.140625 0.29687,-0.351562 0.10938,-0.210938 0.10938,-0.5 0,-0.296875 -0.15625,-0.5 -0.14844,-0.203125 -0.39844,-0.359375 -0.25,-0.15625 -0.5625,-0.273438 -0.3125,-0.125 -0.64844,-0.257812 -0.32812,-0.132813 -0.64844,-0.296875 -0.3125,-0.171875 -0.5625,-0.414063 -0.25,-0.242187 -0.40625,-0.578125 -0.14843,-0.335937 -0.14843,-0.804687 0,-0.414063 0.15625,-0.789063 0.16406,-0.382812 0.48437,-0.664062 0.32031,-0.289063 0.79688,-0.460938 0.48437,-0.171875 1.125,-0.171875 0.28125,0 0.5625,0.04687 0.28125,0.04687 0.50781,0.117188 0.22656,0.07031 0.38281,0.15625 0.16406,0.07813 0.24219,0.140625 0.0859,0.0625 0.10937,0.109375 0.0312,0.04687 0.0391,0.109375 0.0156,0.05469 0.0234,0.140625 0.0156,0.08594 0.0156,0.210937 0,0.132813 -0.0156,0.234375 -0.008,0.09375 -0.0391,0.15625 -0.0234,0.0625 -0.0625,0.09375 -0.0391,0.02344 -0.0859,0.02344 -0.0703,0 -0.20312,-0.08594 -0.13281,-0.08594 -0.34375,-0.179687 -0.21094,-0.101563 -0.5,-0.1875 -0.28125,-0.08594 -0.64844,-0.08594 -0.32812,0 -0.57812,0.07813 -0.25,0.07031 -0.41407,0.210938 -0.15625,0.132812 -0.24218,0.320312 -0.0781,0.1875 -0.0781,0.40625 0,0.304688 0.15625,0.515625 0.15625,0.203125 0.40625,0.359375 0.25,0.15625 0.57031,0.28125 0.32032,0.125 0.64844,0.257813 0.33594,0.132812 0.65625,0.296875 0.32813,0.164062 0.57813,0.398437 0.25,0.234375 0.39843,0.5625 0.15625,0.328125 0.15625,0.78125 z"
         style="stroke-width:0.75"
         id="path1289" /></g><g
       aria-label="54 bits"
       transform="scale(1,-1)"
       style="font-style:normal;font-variant:normal;font-weight:normal;font-stretch:normal;font-size:15.99999905px;line-height:1.25;font-family:Calibri;-inkscape-font-specification:Calibri;letter-spacing:0px;word-spacing:0px;fill:#000000;fill-opacity:1;stroke:none;stroke-width:0.75"
       id="text1228-2"><path
         d="m 152.36592,-45.4375 q 0,0.8125 -0.27344,1.445313 -0.27343,0.632812 -0.77343,1.070312 -0.5,0.429688 -1.19532,0.65625 -0.6875,0.226562 -1.53125,0.226562 -0.46875,0 -0.89062,-0.07031 -0.42188,-0.0625 -0.75,-0.15625 -0.32813,-0.101562 -0.53906,-0.195312 -0.21094,-0.09375 -0.27344,-0.148438 -0.0547,-0.05469 -0.0781,-0.101562 -0.0234,-0.04687 -0.0469,-0.109375 -0.0156,-0.07031 -0.0234,-0.171875 -0.008,-0.101563 -0.008,-0.242188 0,-0.132812 0.008,-0.234375 0.0156,-0.109375 0.0469,-0.171875 0.0312,-0.07031 0.0703,-0.101562 0.0469,-0.03125 0.10156,-0.03125 0.0781,0 0.24219,0.101562 0.16406,0.09375 0.4375,0.210938 0.28125,0.109375 0.6875,0.210937 0.41406,0.101563 0.97656,0.101563 0.52344,0 0.96094,-0.125 0.4375,-0.125 0.75,-0.390625 0.32031,-0.265625 0.5,-0.664063 0.17969,-0.40625 0.17969,-0.984375 0,-0.484375 -0.15625,-0.851562 -0.14844,-0.375 -0.46875,-0.617188 -0.3125,-0.25 -0.79688,-0.367187 -0.48437,-0.125 -1.15625,-0.125 -0.47656,0 -0.82031,0.04687 -0.34375,0.04687 -0.64063,0.04687 -0.21875,0 -0.3125,-0.101563 -0.0937,-0.101562 -0.0937,-0.390625 v -4.117187 q 0,-0.257812 0.11719,-0.382812 0.125,-0.125 0.35156,-0.125 h 4.47657 q 0.0625,0 0.11718,0.03906 0.0625,0.03125 0.10157,0.101563 0.0391,0.07031 0.0547,0.179687 0.0234,0.109375 0.0234,0.257813 0,0.28125 -0.0781,0.4375 -0.0781,0.15625 -0.21875,0.15625 h -3.77344 v 2.835937 q 0.27344,-0.03906 0.55469,-0.04687 0.28906,-0.0078 0.66406,-0.0078 0.86719,0 1.51562,0.210938 0.64844,0.203125 1.07813,0.585937 0.4375,0.375 0.65625,0.914063 0.22656,0.539062 0.22656,1.195312 z"
         style="stroke-width:0.75"
         id="path1292" /><path
         d="m 160.96748,-45.0625 q 0,0.257813 -0.0781,0.40625 -0.0781,0.148438 -0.21875,0.148438 h -1.14063 v 2.125 q 0,0.0625 -0.0312,0.109375 -0.0312,0.03906 -0.10937,0.07031 -0.0781,0.03125 -0.20313,0.04687 -0.125,0.01563 -0.32031,0.01563 -0.1875,0 -0.3125,-0.01563 -0.125,-0.01563 -0.20313,-0.04687 -0.0703,-0.03125 -0.10156,-0.07031 -0.0234,-0.04687 -0.0234,-0.109375 v -2.125 h -4.17187 q -0.0937,0 -0.15625,-0.02344 -0.0625,-0.02344 -0.11719,-0.08594 -0.0469,-0.0625 -0.0703,-0.179688 -0.0156,-0.117187 -0.0156,-0.304687 0,-0.148438 0.008,-0.265625 0.008,-0.117188 0.0312,-0.210938 0.0234,-0.101562 0.0625,-0.1875 0.0391,-0.09375 0.0937,-0.195312 l 3.64062,-6.140625 q 0.0391,-0.0625 0.10938,-0.109375 0.0781,-0.04687 0.19531,-0.07813 0.11719,-0.03125 0.28906,-0.03906 0.17188,-0.01563 0.40625,-0.01563 0.25781,0 0.44531,0.02344 0.19532,0.01563 0.3125,0.04687 0.11719,0.03125 0.17969,0.08594 0.0625,0.04687 0.0625,0.117187 v 6.453125 h 1.14063 q 0.13281,0 0.21093,0.140625 0.0859,0.132812 0.0859,0.414062 z m -2.74219,-6.101562 h -0.0156 l -3.28906,5.546875 h 3.30468 z"
         style="stroke-width:0.75"
         id="path1294" /><path
         d="m 172.73311,-45.992187 q 0,0.914062 -0.20313,1.648437 -0.19531,0.726563 -0.58594,1.242188 -0.38281,0.515625 -0.94531,0.789062 -0.5625,0.273437 -1.28906,0.273437 -0.33594,0 -0.625,-0.07031 -0.28125,-0.0625 -0.55469,-0.210937 -0.27344,-0.148438 -0.54687,-0.375 -0.27344,-0.226563 -0.57813,-0.546875 v 0.859375 q 0,0.0625 -0.0312,0.109375 -0.0312,0.04687 -0.10156,0.07813 -0.0703,0.02344 -0.17969,0.03906 -0.10156,0.01563 -0.26562,0.01563 -0.15625,0 -0.26563,-0.01563 -0.10937,-0.01563 -0.17969,-0.03906 -0.0703,-0.03125 -0.0937,-0.07813 -0.0234,-0.04687 -0.0234,-0.109375 v -10.4375 q 0,-0.0625 0.0234,-0.109375 0.0312,-0.04687 0.10157,-0.07813 0.0781,-0.03125 0.20312,-0.04687 0.125,-0.01563 0.3125,-0.01563 0.19531,0 0.32031,0.01563 0.125,0.01563 0.19532,0.04687 0.0703,0.03125 0.10156,0.07813 0.0312,0.04687 0.0312,0.109375 v 4.210937 q 0.3125,-0.320312 0.60156,-0.539062 0.29688,-0.21875 0.57813,-0.351563 0.28125,-0.140625 0.5625,-0.203125 0.28125,-0.0625 0.59375,-0.0625 0.76562,0 1.30468,0.304688 0.54688,0.304687 0.88282,0.820312 0.34375,0.507813 0.5,1.195313 0.15625,0.6875 0.15625,1.453125 z m -1.35938,0.148437 q 0,-0.539062 -0.0859,-1.046875 -0.0781,-0.507812 -0.28125,-0.898437 -0.20312,-0.390625 -0.53906,-0.625 -0.33594,-0.242188 -0.83594,-0.242188 -0.25,0 -0.49218,0.07031 -0.24219,0.07031 -0.49219,0.234375 -0.25,0.164062 -0.52344,0.421875 -0.26562,0.257812 -0.57031,0.648437 v 2.804688 q 0.53125,0.648437 1.01562,0.992187 0.48438,0.335938 1.00782,0.335938 0.48437,0 0.82812,-0.234375 0.34375,-0.234375 0.55469,-0.617188 0.21875,-0.390625 0.3125,-0.867187 0.10156,-0.484375 0.10156,-0.976563 z"
         style="stroke-width:0.75"
         id="path1296" /><path
         d="m 175.95967,-42.382812 q 0,0.0625 -0.0312,0.109375 -0.0312,0.03906 -0.10157,0.07031 -0.0703,0.03125 -0.19531,0.04687 -0.125,0.01563 -0.32031,0.01563 -0.1875,0 -0.3125,-0.01563 -0.125,-0.01563 -0.20313,-0.04687 -0.0703,-0.03125 -0.10156,-0.07031 -0.0234,-0.04687 -0.0234,-0.109375 v -7.03125 q 0,-0.05469 0.0234,-0.101563 0.0312,-0.04687 0.10156,-0.07813 0.0781,-0.03125 0.20313,-0.04687 0.125,-0.01563 0.3125,-0.01563 0.19531,0 0.32031,0.01563 0.125,0.01563 0.19531,0.04687 0.0703,0.03125 0.10157,0.07813 0.0312,0.04687 0.0312,0.101563 z m 0.14843,-9.40625 q 0,0.453125 -0.17187,0.617188 -0.17188,0.164062 -0.63281,0.164062 -0.45313,0 -0.625,-0.15625 -0.16407,-0.164062 -0.16407,-0.609375 0,-0.453125 0.17188,-0.617187 0.17187,-0.164063 0.63281,-0.164063 0.45313,0 0.61719,0.164063 0.17187,0.15625 0.17187,0.601562 z"
         style="stroke-width:0.75"
         id="path1298" /><path
         d="m 182.01435,-42.898437 q 0,0.226562 -0.0312,0.359375 -0.0312,0.132812 -0.0937,0.195312 -0.0625,0.0625 -0.1875,0.117188 -0.125,0.05469 -0.28906,0.08594 -0.15625,0.03906 -0.33594,0.0625 -0.17968,0.02344 -0.35937,0.02344 -0.54688,0 -0.9375,-0.140624 -0.39063,-0.148438 -0.64063,-0.4375 -0.25,-0.296875 -0.36718,-0.742188 -0.10938,-0.453125 -0.10938,-1.0625 v -4.109375 h -0.98437 q -0.11719,0 -0.1875,-0.125 -0.0703,-0.125 -0.0703,-0.40625 0,-0.148437 0.0156,-0.25 0.0234,-0.101562 0.0547,-0.164062 0.0312,-0.07031 0.0781,-0.09375 0.0547,-0.03125 0.11719,-0.03125 h 0.97656 v -1.671875 q 0,-0.05469 0.0234,-0.101562 0.0312,-0.04687 0.10156,-0.07813 0.0781,-0.03906 0.20313,-0.05469 0.125,-0.01563 0.3125,-0.01563 0.19531,0 0.32031,0.01563 0.125,0.01563 0.19531,0.05469 0.0703,0.03125 0.10156,0.07813 0.0312,0.04687 0.0312,0.101562 v 1.671875 h 1.80469 q 0.0625,0 0.10938,0.03125 0.0469,0.02344 0.0781,0.09375 0.0391,0.0625 0.0547,0.164062 0.0156,0.101563 0.0156,0.25 0,0.28125 -0.0703,0.40625 -0.0703,0.125 -0.1875,0.125 h -1.80469 V -44.625 q 0,0.726563 0.21094,1.101563 0.21875,0.367187 0.77344,0.367187 0.17969,0 0.32031,-0.03125 0.14063,-0.03906 0.25,-0.07813 0.10938,-0.03906 0.1875,-0.07031 0.0781,-0.03906 0.14063,-0.03906 0.0391,0 0.0703,0.02344 0.0391,0.01563 0.0547,0.07031 0.0234,0.05469 0.0391,0.148438 0.0156,0.09375 0.0156,0.234375 z"
         style="stroke-width:0.75"
         id="path1300" /><path
         d="m 188.14717,-44.296875 q 0,0.539063 -0.20313,0.960938 -0.19531,0.421875 -0.5625,0.710937 -0.36719,0.289063 -0.875,0.4375 -0.50781,0.148437 -1.11719,0.148437 -0.375,0 -0.71875,-0.0625 -0.33593,-0.05469 -0.60937,-0.140624 -0.26563,-0.09375 -0.45313,-0.1875 -0.1875,-0.101563 -0.27343,-0.179688 -0.0859,-0.07813 -0.125,-0.21875 -0.0391,-0.140625 -0.0391,-0.382812 0,-0.148438 0.0156,-0.25 0.0156,-0.101563 0.0391,-0.164063 0.0234,-0.0625 0.0625,-0.08594 0.0469,-0.03125 0.10156,-0.03125 0.0859,0 0.25,0.109375 0.17188,0.101562 0.41407,0.226562 0.25,0.125 0.58593,0.234375 0.33594,0.101563 0.77344,0.101563 0.32813,0 0.59375,-0.07031 0.26563,-0.07031 0.46094,-0.203125 0.19531,-0.140625 0.29687,-0.351562 0.10938,-0.210938 0.10938,-0.5 0,-0.296875 -0.15625,-0.5 -0.14844,-0.203125 -0.39844,-0.359375 -0.25,-0.15625 -0.5625,-0.273438 -0.3125,-0.125 -0.64844,-0.257812 -0.32812,-0.132813 -0.64843,-0.296875 -0.3125,-0.171875 -0.5625,-0.414063 -0.25,-0.242187 -0.40625,-0.578125 -0.14844,-0.335937 -0.14844,-0.804687 0,-0.414063 0.15625,-0.789063 0.16406,-0.382812 0.48437,-0.664062 0.32032,-0.289063 0.79688,-0.460938 0.48437,-0.171875 1.125,-0.171875 0.28125,0 0.5625,0.04687 0.28125,0.04687 0.50781,0.117188 0.22656,0.07031 0.38281,0.15625 0.16407,0.07813 0.24219,0.140625 0.0859,0.0625 0.10938,0.109375 0.0312,0.04687 0.0391,0.109375 0.0156,0.05469 0.0234,0.140625 0.0156,0.08594 0.0156,0.210937 0,0.132813 -0.0156,0.234375 -0.008,0.09375 -0.0391,0.15625 -0.0234,0.0625 -0.0625,0.09375 -0.0391,0.02344 -0.0859,0.02344 -0.0703,0 -0.20313,-0.08594 -0.13281,-0.08594 -0.34375,-0.179687 -0.21094,-0.101563 -0.5,-0.1875 -0.28125,-0.08594 -0.64844,-0.08594 -0.32812,0 -0.57812,0.07813 -0.25,0.07031 -0.41406,0.210938 -0.15625,0.132812 -0.24219,0.320312 -0.0781,0.1875 -0.0781,0.40625 0,0.304688 0.15625,0.515625 0.15625,0.203125 0.40625,0.359375 0.25,0.15625 0.57032,0.28125 0.32031,0.125 0.64843,0.257813 0.33594,0.132812 0.65625,0.296875 0.32813,0.164062 0.57813,0.398437 0.25,0.234375 0.39844,0.5625 0.15625,0.328125 0.15625,0.78125 z"
         style="stroke-width:0.75"
         id="path1302" /></g><g
       aria-label="10 bits"
       transform="scale(1,-1)"
       style="font-style:normal;font-variant:normal;font-weight:normal;font-stretch:normal;font-size:15.99999905px;line-height:1.25;font-family:Calibri;-inkscape-font-specification:Calibri;letter-spacing:0px;word-spacing:0px;fill:#000000;fill-opacity:1;stroke:none;stroke-width:0.75"
       id="text1228-5"><path
         d="m 27.95392,-43.09375 q 0,0.148438 -0.02344,0.25 -0.02344,0.101563 -0.0625,0.164063 -0.03906,0.0625 -0.09375,0.09375 -0.04687,0.02344 -0.101562,0.02344 h -5.28125 q -0.05469,0 -0.101562,-0.02344 -0.04687,-0.03125 -0.09375,-0.09375 -0.03906,-0.0625 -0.0625,-0.164063 -0.02344,-0.101562 -0.02344,-0.25 0,-0.140625 0.02344,-0.242187 0.02344,-0.101563 0.05469,-0.164063 0.03906,-0.07031 0.08594,-0.101562 0.05469,-0.03906 0.117187,-0.03906 h 2.109375 v -7.687499 l -1.953125,1.164062 q -0.148437,0.07813 -0.242187,0.09375 -0.08594,0.01563 -0.140625,-0.03125 -0.05469,-0.05469 -0.07813,-0.171875 -0.01563,-0.117188 -0.01563,-0.296875 0,-0.132813 0.0078,-0.226563 0.01563,-0.09375 0.03906,-0.156249 0.02344,-0.0625 0.0625,-0.109375 0.04687,-0.04687 0.117187,-0.09375 l 2.328125,-1.492188 q 0.03125,-0.02344 0.07813,-0.03906 0.04687,-0.01563 0.117188,-0.03125 0.07031,-0.01563 0.164062,-0.01563 0.09375,-0.0078 0.234375,-0.0078 0.1875,0 0.3125,0.01563 0.125,0.01563 0.195313,0.04687 0.07031,0.02344 0.09375,0.07031 0.02344,0.03906 0.02344,0.08594 v 8.882812 h 1.828125 q 0.0625,0 0.117187,0.03906 0.05469,0.03125 0.08594,0.101562 0.03906,0.0625 0.05469,0.164063 0.02344,0.101562 0.02344,0.242187 z"
         style="stroke-width:0.75"
         id="path1305" /><path
         d="m 36.391419,-47.640625 q 0,1.164063 -0.1875,2.125 -0.179688,0.960938 -0.609375,1.65625 -0.421875,0.6875 -1.109375,1.070313 -0.6875,0.374999 -1.695312,0.374999 -0.953125,0 -1.609375,-0.335937 -0.648438,-0.34375 -1.046875,-1 -0.398438,-0.664062 -0.570313,-1.625 -0.164062,-0.96875 -0.164062,-2.21875 0,-1.15625 0.1875,-2.117187 0.1875,-0.96875 0.609375,-1.65625 0.421875,-0.695312 1.109375,-1.070312 0.6875,-0.382813 1.6875,-0.382813 0.960937,0 1.609375,0.34375 0.65625,0.335938 1.054687,1 0.398437,0.65625 0.5625,1.625 0.171875,0.960937 0.171875,2.210937 z m -1.375,0.09375 q 0,-0.757812 -0.05469,-1.359375 -0.05469,-0.601562 -0.164063,-1.0625 -0.101562,-0.460937 -0.273437,-0.789062 -0.164063,-0.335937 -0.398438,-0.546875 -0.234375,-0.21875 -0.539062,-0.3125 -0.296875,-0.101562 -0.671875,-0.101562 -0.664063,0 -1.078125,0.3125 -0.414063,0.3125 -0.65625,0.859374 -0.234375,0.546875 -0.320313,1.28125 -0.08594,0.734375 -0.08594,1.578125 0,1.132813 0.117187,1.929688 0.117188,0.789062 0.367188,1.289062 0.257812,0.5 0.648437,0.726563 0.398438,0.226562 0.960938,0.226562 0.4375,0 0.765625,-0.140625 0.335937,-0.140625 0.570312,-0.398437 0.242188,-0.265625 0.398438,-0.632813 0.15625,-0.367187 0.25,-0.8125 0.09375,-0.445312 0.125,-0.960937 0.03906,-0.523438 0.03906,-1.085938 z"
         style="stroke-width:0.75"
         id="path1307" /><path
         d="m 48.250793,-46.367187 q 0,0.914062 -0.203125,1.648437 -0.195312,0.726563 -0.585937,1.242188 -0.382813,0.515625 -0.945313,0.789062 -0.5625,0.273437 -1.289062,0.273437 -0.335938,0 -0.625,-0.07031 -0.28125,-0.0625 -0.554688,-0.210937 -0.273437,-0.148438 -0.546875,-0.375 -0.273437,-0.226563 -0.578125,-0.546875 v 0.859375 q 0,0.0625 -0.03125,0.109375 -0.03125,0.04687 -0.101562,0.07813 -0.07031,0.02344 -0.179688,0.03906 -0.101562,0.01563 -0.265625,0.01563 -0.15625,0 -0.265625,-0.01563 -0.109375,-0.01563 -0.179687,-0.03906 -0.07031,-0.03125 -0.09375,-0.07813 -0.02344,-0.04687 -0.02344,-0.109375 v -10.4375 q 0,-0.0625 0.02344,-0.109375 0.03125,-0.04687 0.101562,-0.07813 0.07813,-0.03125 0.203125,-0.04687 0.125,-0.01563 0.3125,-0.01563 0.195313,0 0.320313,0.01563 0.125,0.01563 0.195312,0.04687 0.07031,0.03125 0.101563,0.07813 0.03125,0.04687 0.03125,0.109375 v 4.210937 q 0.3125,-0.320312 0.601562,-0.539062 0.296875,-0.21875 0.578125,-0.351563 0.28125,-0.140625 0.5625,-0.203125 0.28125,-0.0625 0.59375,-0.0625 0.765625,0 1.304688,0.304688 0.546875,0.304687 0.882812,0.820312 0.34375,0.507813 0.5,1.195313 0.15625,0.6875 0.15625,1.453125 z m -1.359375,0.148437 q 0,-0.539062 -0.08594,-1.046875 -0.07813,-0.507812 -0.28125,-0.898437 -0.203125,-0.390625 -0.539063,-0.625 -0.335937,-0.242188 -0.835937,-0.242188 -0.25,0 -0.492188,0.07031 -0.242187,0.07031 -0.492187,0.234375 -0.25,0.164062 -0.523438,0.421875 -0.265625,0.257812 -0.570312,0.648437 v 2.804688 q 0.53125,0.648437 1.015625,0.992187 0.484375,0.335938 1.007812,0.335938 0.484375,0 0.828125,-0.234375 0.34375,-0.234375 0.554688,-0.617188 0.21875,-0.390625 0.3125,-0.867187 0.101562,-0.484375 0.101562,-0.976563 z"
         style="stroke-width:0.75"
         id="path1309" /><path
         d="m 51.477354,-42.757812 q 0,0.0625 -0.03125,0.109375 -0.03125,0.03906 -0.101563,0.07031 -0.07031,0.03125 -0.195312,0.04687 -0.125,0.01563 -0.320313,0.01563 -0.1875,0 -0.3125,-0.01563 -0.125,-0.01563 -0.203125,-0.04687 -0.07031,-0.03125 -0.101562,-0.07031 -0.02344,-0.04687 -0.02344,-0.109375 v -7.03125 q 0,-0.05469 0.02344,-0.101563 0.03125,-0.04687 0.101562,-0.07813 0.07813,-0.03125 0.203125,-0.04687 0.125,-0.01563 0.3125,-0.01563 0.195313,0 0.320313,0.01563 0.125,0.01563 0.195312,0.04687 0.07031,0.03125 0.101563,0.07813 0.03125,0.04687 0.03125,0.101563 z m 0.148437,-9.40625 q 0,0.453125 -0.171875,0.617188 -0.171875,0.164062 -0.632812,0.164062 -0.453125,0 -0.625,-0.15625 -0.164063,-0.164062 -0.164063,-0.609375 0,-0.453125 0.171875,-0.617187 0.171875,-0.164063 0.632813,-0.164063 0.453125,0 0.617187,0.164063 0.171875,0.15625 0.171875,0.601562 z"
         style="stroke-width:0.75"
         id="path1311" /><path
         d="m 57.532041,-43.273437 q 0,0.226562 -0.03125,0.359375 -0.03125,0.132812 -0.09375,0.195312 -0.0625,0.0625 -0.1875,0.117188 -0.125,0.05469 -0.289062,0.08594 -0.15625,0.03906 -0.335938,0.0625 -0.179687,0.02344 -0.359375,0.02344 -0.546875,0 -0.9375,-0.140624 -0.390625,-0.148438 -0.640625,-0.4375 -0.25,-0.296875 -0.367187,-0.742188 -0.109375,-0.453125 -0.109375,-1.0625 v -4.109375 h -0.984375 q -0.117187,0 -0.1875,-0.125 -0.07031,-0.125 -0.07031,-0.40625 0,-0.148437 0.01563,-0.25 0.02344,-0.101562 0.05469,-0.164062 0.03125,-0.07031 0.07813,-0.09375 0.05469,-0.03125 0.117188,-0.03125 h 0.976562 v -1.671875 q 0,-0.05469 0.02344,-0.101562 0.03125,-0.04687 0.101563,-0.07813 0.07813,-0.03906 0.203125,-0.05469 0.125,-0.01563 0.3125,-0.01563 0.195312,0 0.320312,0.01563 0.125,0.01563 0.195313,0.05469 0.07031,0.03125 0.101562,0.07813 0.03125,0.04687 0.03125,0.101562 v 1.671875 h 1.804688 q 0.0625,0 0.109375,0.03125 0.04687,0.02344 0.07813,0.09375 0.03906,0.0625 0.05469,0.164062 0.01563,0.101563 0.01563,0.25 0,0.28125 -0.07031,0.40625 -0.07031,0.125 -0.1875,0.125 H 55.469541 V -45 q 0,0.726563 0.210938,1.101563 0.21875,0.367187 0.773437,0.367187 0.179688,0 0.320313,-0.03125 0.140625,-0.03906 0.25,-0.07813 0.109375,-0.03906 0.1875,-0.07031 0.07813,-0.03906 0.140625,-0.03906 0.03906,0 0.07031,0.02344 0.03906,0.01563 0.05469,0.07031 0.02344,0.05469 0.03906,0.148438 0.01563,0.09375 0.01563,0.234375 z"
         style="stroke-width:0.75"
         id="path1313" /><path
         d="m 63.664854,-44.671875 q 0,0.539063 -0.203125,0.960938 -0.195313,0.421875 -0.5625,0.710937 -0.367188,0.289063 -0.875,0.4375 -0.507813,0.148437 -1.117188,0.148437 -0.375,0 -0.71875,-0.0625 -0.335937,-0.05469 -0.609375,-0.140624 -0.265625,-0.09375 -0.453125,-0.1875 -0.1875,-0.101563 -0.273437,-0.179688 -0.08594,-0.07813 -0.125,-0.21875 -0.03906,-0.140625 -0.03906,-0.382812 0,-0.148438 0.01563,-0.25 0.01563,-0.101563 0.03906,-0.164063 0.02344,-0.0625 0.0625,-0.08594 0.04687,-0.03125 0.101562,-0.03125 0.08594,0 0.25,0.109375 0.171875,0.101562 0.414063,0.226562 0.25,0.125 0.585937,0.234375 0.335938,0.101563 0.773438,0.101563 0.328125,0 0.59375,-0.07031 0.265625,-0.07031 0.460937,-0.203125 0.195313,-0.140625 0.296875,-0.351562 0.109375,-0.210938 0.109375,-0.5 0,-0.296875 -0.15625,-0.5 -0.148437,-0.203125 -0.398437,-0.359375 -0.25,-0.15625 -0.5625,-0.273438 -0.3125,-0.125 -0.648438,-0.257812 -0.328125,-0.132813 -0.648437,-0.296875 -0.3125,-0.171875 -0.5625,-0.414063 -0.25,-0.242187 -0.40625,-0.578125 -0.148437,-0.335937 -0.148437,-0.804687 0,-0.414063 0.156249,-0.789063 0.164063,-0.382812 0.484375,-0.664062 0.320313,-0.289063 0.796875,-0.460938 0.484375,-0.171875 1.125,-0.171875 0.28125,0 0.5625,0.04687 0.28125,0.04687 0.507813,0.117188 0.226562,0.07031 0.382812,0.15625 0.164063,0.07813 0.242188,0.140625 0.08594,0.0625 0.109375,0.109375 0.03125,0.04687 0.03906,0.109375 0.01563,0.05469 0.02344,0.140625 0.01563,0.08594 0.01563,0.210937 0,0.132813 -0.01563,0.234375 -0.0078,0.09375 -0.03906,0.15625 -0.02344,0.0625 -0.0625,0.09375 -0.03906,0.02344 -0.08594,0.02344 -0.07031,0 -0.203125,-0.08594 -0.132813,-0.08594 -0.34375,-0.179687 -0.210938,-0.101563 -0.5,-0.1875 -0.28125,-0.08594 -0.648438,-0.08594 -0.328125,0 -0.578125,0.07813 -0.25,0.07031 -0.414062,0.210938 -0.15625,0.132812 -0.242188,0.320312 -0.07813,0.1875 -0.07813,0.40625 0,0.304688 0.15625,0.515625 0.15625,0.203125 0.40625,0.359375 0.25,0.15625 0.570313,0.28125 0.320312,0.125 0.648437,0.257813 0.335938,0.132812 0.65625,0.296875 0.328125,0.164062 0.578125,0.398437 0.25,0.234375 0.398438,0.5625 0.15625,0.328125 0.15625,0.78125 z"
         style="stroke-width:0.75"
         id="path1315" /></g></g></svg>