<?xml version="1.0" encoding="UTF-8" standalone="no"?>
<!-- Created with Inkscape (http://www.inkscape.org/) -->

<svg
   xmlns:dc="http://purl.org/dc/elements/1.1/"
   xmlns:cc="http://creativecommons.org/ns#"
   xmlns:rdf="http://www.w3.org/1999/02/22-rdf-syntax-ns#"
   xmlns:svg="http://www.w3.org/2000/svg"
   xmlns="http://www.w3.org/2000/svg"
   xmlns:sodipodi="http://sodipodi.sourceforge.net/DTD/sodipodi-0.dtd"
   xmlns:inkscape="http://www.inkscape.org/namespaces/inkscape"
   version="1.1"
   id="svg2"
   xml:space="preserve"
   width="670"
   height="130"
   viewBox="0 0 670 130"
   sodipodi:docname="IPv6_global_unicast_address_stracture-en.svg"
   inkscape:version="0.92.4 (5da689c313, 2019-01-14)"><metadata
     id="metadata8"><rdf:RDF><cc:Work
         rdf:about=""><dc:format>image/svg+xml</dc:format><dc:type
           rdf:resource="http://purl.org/dc/dcmitype/StillImage" /><dc:title /></cc:Work></rdf:RDF></metadata><defs
     id="defs6"><clipPath
       clipPathUnits="userSpaceOnUse"
       id="clipPath18"><path
         d="M 0,1.2207e-4 H 960 V 540.00012 H 0 Z"
         id="path16"
         inkscape:connector-curvature="0"
         style="clip-rule:evenodd" /></clipPath><clipPath
       clipPathUnits="userSpaceOnUse"
       id="clipPath32"><path
         d="M 1.4305e-5,0 H 960.00001 V 540 H 1.4305e-5 Z"
         id="path30"
         inkscape:connector-curvature="0"
         style="clip-rule:evenodd" /></clipPath><clipPath
       clipPathUnits="userSpaceOnUse"
       id="clipPath48"><path
         d="M 1.4305e-5,0 H 960.00001 V 540 H 1.4305e-5 Z"
         id="path46"
         inkscape:connector-curvature="0"
         style="clip-rule:evenodd" /></clipPath><clipPath
       clipPathUnits="userSpaceOnUse"
       id="clipPath60"><path
         d="M -1.2207e-4,540 H 960 V 1.2207e-4 H -6.1035e-5"
         id="path58"
         inkscape:connector-curvature="0"
         style="clip-rule:evenodd" /></clipPath><clipPath
       clipPathUnits="userSpaceOnUse"
       id="clipPath70"><path
         d="M 1.4305e-5,0 H 960.00001 V 540 H 1.4305e-5 Z"
         id="path68"
         inkscape:connector-curvature="0"
         style="clip-rule:evenodd" /></clipPath><clipPath
       clipPathUnits="userSpaceOnUse"
       id="clipPath82"><path
         d="M 1.4305e-5,0 H 960.00001 V 540 H 1.4305e-5 Z"
         id="path80"
         inkscape:connector-curvature="0"
         style="clip-rule:evenodd" /></clipPath><clipPath
       clipPathUnits="userSpaceOnUse"
       id="clipPath94"><path
         d="M 1.4305e-5,0 H 960.00001 V 540 H 1.4305e-5 Z"
         id="path92"
         inkscape:connector-curvature="0"
         style="clip-rule:evenodd" /></clipPath><clipPath
       clipPathUnits="userSpaceOnUse"
       id="clipPath106"><path
         d="M 1.4305e-5,0 H 960.00001 V 540 H 1.4305e-5 Z"
         id="path104"
         inkscape:connector-curvature="0"
         style="clip-rule:evenodd" /></clipPath><clipPath
       clipPathUnits="userSpaceOnUse"
       id="clipPath118"><path
         d="M 1.4305e-5,0 H 960.00001 V 540 H 1.4305e-5 Z"
         id="path116"
         inkscape:connector-curvature="0"
         style="clip-rule:evenodd" /></clipPath><clipPath
       clipPathUnits="userSpaceOnUse"
       id="clipPath94-9"><path
         d="M 1.4305e-5,0 H 960.00001 V 540 H 1.4305e-5 Z"
         id="path92-0"
         inkscape:connector-curvature="0"
         style="clip-rule:evenodd" /></clipPath><clipPath
       clipPathUnits="userSpaceOnUse"
       id="clipPath60-8"><path
         d="M -1.2207e-4,540 H 960 V 1.2207e-4 H -6.1035e-5"
         id="path58-1"
         inkscape:connector-curvature="0"
         style="clip-rule:evenodd" /></clipPath><clipPath
       clipPathUnits="userSpaceOnUse"
       id="clipPath60-8-0"><path
         d="M -1.2207e-4,540 H 960 V 1.2207e-4 H -6.1035e-5"
         id="path58-1-1"
         inkscape:connector-curvature="0"
         style="clip-rule:evenodd" /></clipPath><clipPath
       clipPathUnits="userSpaceOnUse"
       id="clipPath60-8-0-0"><path
         d="M -1.2207e-4,540 H 960 V 1.2207e-4 H -6.1035e-5"
         id="path58-1-1-0"
         inkscape:connector-curvature="0"
         style="clip-rule:evenodd" /></clipPath><clipPath
       clipPathUnits="userSpaceOnUse"
       id="clipPath60-3"><path
         d="M -1.2207e-4,540 H 960 V 1.2207e-4 H -6.1035e-5"
         id="path58-6"
         inkscape:connector-curvature="0"
         style="clip-rule:evenodd" /></clipPath></defs><sodipodi:namedview
     pagecolor="#ffffff"
     bordercolor="#666666"
     borderopacity="1"
     objecttolerance="10"
     gridtolerance="10"
     guidetolerance="10"
     inkscape:pageopacity="0"
     inkscape:pageshadow="2"
     inkscape:window-width="1920"
     inkscape:window-height="986"
     id="namedview4"
     showgrid="false"
     inkscape:zoom="1.3111111"
     inkscape:cx="-48.542374"
     inkscape:cy="93.31823"
     inkscape:window-x="-11"
     inkscape:window-y="-11"
     inkscape:window-maximized="1"
     inkscape:current-layer="g10" /><g
     id="g10"
     inkscape:groupmode="layer"
     inkscape:label="New Microsoft PowerPoint Presentation"
     transform="matrix(1.3333333,0,0,-1.3333333,0,130)"><path
   inkscape:connector-curvature="0"
   style="opacity:1;fill:none;fill-opacity:1;fill-rule:nonzero;stroke:#000000;stroke-width:0.50571609;stroke-linecap:square;stroke-linejoin:miter;stroke-miterlimit:10;stroke-dasharray:none;stroke-dashoffset:0;stroke-opacity:1;paint-order:fill markers stroke"
   d="M 16.086937,66.042948 H 153.76923 V 14.364706 H 16.086937 Z"
   id="rect958-7" /><path
   inkscape:connector-curvature="0"
   style="opacity:1;fill:none;fill-opacity:1;fill-rule:nonzero;stroke:#000000;stroke-width:0.43785557;stroke-linecap:square;stroke-linejoin:miter;stroke-miterlimit:10;stroke-dasharray:none;stroke-dashoffset:0;stroke-opacity:1;paint-order:fill markers stroke"
   d="M 153.77663,66.043467 H 257.33402 V 14.538011 H 153.77663 Z"
   id="rect958-7-0" /><path
   inkscape:connector-curvature="0"
   style="opacity:1;fill:none;fill-opacity:1;fill-rule:nonzero;stroke:#000000;stroke-width:0.64674562;stroke-linecap:square;stroke-linejoin:miter;stroke-miterlimit:10;stroke-dasharray:none;stroke-dashoffset:0;stroke-opacity:1;paint-order:fill markers stroke"
   d="M 257.33746,65.922762 H 483.80503 V 14.538115 H 257.33746 Z"
   id="rect958-4-0" /><text
   xml:space="preserve"
   style="font-style:normal;font-variant:normal;font-weight:normal;font-stretch:normal;font-size:20px;line-height:1.25;font-family:Calibri;-inkscape-font-specification:Calibri;letter-spacing:0px;word-spacing:0px;fill:#000000;fill-opacity:1;stroke:none;stroke-width:0.75"
   x="84.928085"
   y="-44.632538"
   id="text1073"
   transform="scale(1,-1)"><tspan
     sodipodi:role="line"
     x="84.928085"
     y="-44.632538"
     style="font-style:normal;font-variant:normal;font-weight:bold;font-stretch:normal;font-family:Calibri;-inkscape-font-specification:'Calibri Bold';text-align:center;text-anchor:middle;stroke-width:0.75"
     id="tspan1151">Global unicast</tspan><tspan
     sodipodi:role="line"
     x="84.928085"
     y="-19.632538"
     style="font-style:normal;font-variant:normal;font-weight:bold;font-stretch:normal;font-family:Calibri;-inkscape-font-specification:'Calibri Bold';text-align:center;text-anchor:middle;stroke-width:0.75"
     id="tspan871">prefix</tspan></text>



<text
   xml:space="preserve"
   style="font-style:normal;font-variant:normal;font-weight:normal;font-stretch:normal;font-size:20px;line-height:1.25;font-family:Calibri;-inkscape-font-specification:Calibri;letter-spacing:0px;word-spacing:0px;fill:#000000;fill-opacity:1;stroke:none;stroke-width:0.75"
   x="205.56471"
   y="-46.2673"
   id="text1073-9"
   transform="scale(1,-1)"><tspan
     sodipodi:role="line"
     x="205.56471"
     y="-46.2673"
     style="font-style:normal;font-variant:normal;font-weight:bold;font-stretch:normal;font-family:Calibri;-inkscape-font-specification:'Calibri Bold';text-align:center;text-anchor:middle;stroke-width:0.75"
     id="tspan1149">Subnet</tspan><tspan
     sodipodi:role="line"
     x="205.56471"
     y="-21.2673"
     style="font-style:normal;font-variant:normal;font-weight:bold;font-stretch:normal;font-family:Calibri;-inkscape-font-specification:'Calibri Bold';text-align:center;text-anchor:middle;stroke-width:0.75"
     id="tspan875">ID</tspan></text>



<g
   aria-label="n bits"
   transform="scale(1,-1)"
   style="font-style:normal;font-variant:normal;font-weight:normal;font-stretch:normal;font-size:18px;line-height:1.25;font-family:Calibri;-inkscape-font-specification:Calibri;letter-spacing:0px;word-spacing:0px;direction:rtl;fill:#000000;fill-opacity:1;stroke:none;stroke-width:0.75"
   id="text1155"><path
     d="m 72.736191,-75.050194 q 0,0.07031 -0.03516,0.123047 -0.03516,0.04395 -0.114258,0.0791 -0.0791,0.03516 -0.219727,0.05273 -0.140625,0.01758 -0.351562,0.01758 -0.219727,0 -0.360352,-0.01758 -0.140625,-0.01758 -0.219726,-0.05273 -0.0791,-0.03516 -0.114258,-0.0791 -0.03516,-0.05273 -0.03516,-0.123047 v -4.631836 q 0,-0.676758 -0.105468,-1.089843 -0.105469,-0.413086 -0.307617,-0.711915 -0.202149,-0.298828 -0.527344,-0.457031 -0.316406,-0.158203 -0.738281,-0.158203 -0.544922,0 -1.089844,0.386719 -0.544922,0.386719 -1.142578,1.133789 v 5.52832 q 0,0.07031 -0.03516,0.123047 -0.03516,0.04395 -0.114257,0.0791 -0.0791,0.03516 -0.219727,0.05273 -0.140625,0.01758 -0.360352,0.01758 -0.210937,0 -0.351562,-0.01758 -0.140625,-0.01758 -0.228516,-0.05273 -0.0791,-0.03516 -0.114257,-0.0791 -0.02637,-0.05273 -0.02637,-0.123047 v -7.910156 q 0,-0.07031 0.02637,-0.114258 0.02637,-0.05273 0.105468,-0.08789 0.0791,-0.04395 0.202149,-0.05273 0.123047,-0.01758 0.325195,-0.01758 0.193359,0 0.316406,0.01758 0.131836,0.0088 0.202149,0.05273 0.07031,0.03516 0.09668,0.08789 0.03516,0.04394 0.03516,0.114258 v 1.045898 q 0.667968,-0.74707 1.327148,-1.089843 0.667969,-0.351563 1.344727,-0.351563 0.791015,0 1.327148,0.272461 0.544922,0.263672 0.878906,0.711914 0.333985,0.448242 0.47461,1.054688 0.149414,0.597656 0.149414,1.441406 z"
     style="direction:rtl;stroke-width:0.75"
     id="path860" /><path
     d="m 86.737167,-79.110741 q 0,1.028321 -0.228515,1.854493 -0.219727,0.817382 -0.65918,1.39746 -0.430664,0.580079 -1.063477,0.887696 -0.632812,0.307617 -1.450195,0.307617 -0.37793,0 -0.703125,-0.0791 -0.316406,-0.07031 -0.624023,-0.237304 -0.307617,-0.166992 -0.615235,-0.421875 -0.307617,-0.254883 -0.65039,-0.615235 v 0.966797 q 0,0.07031 -0.03516,0.123047 -0.03516,0.05273 -0.114257,0.08789 -0.0791,0.02637 -0.202149,0.04395 -0.114258,0.01758 -0.298828,0.01758 -0.175781,0 -0.298828,-0.01758 -0.123047,-0.01758 -0.202148,-0.04395 -0.0791,-0.03516 -0.105469,-0.08789 -0.02637,-0.05273 -0.02637,-0.123047 v -11.742187 q 0,-0.07031 0.02637,-0.123047 0.03516,-0.05273 0.114258,-0.08789 0.08789,-0.03516 0.228515,-0.05273 0.140625,-0.01758 0.351563,-0.01758 0.219726,0 0.360351,0.01758 0.140625,0.01758 0.219727,0.05273 0.0791,0.03516 0.114258,0.08789 0.03516,0.05273 0.03516,0.123047 v 4.737304 q 0.351562,-0.360351 0.676758,-0.606445 0.333984,-0.246094 0.65039,-0.395508 0.316407,-0.158203 0.632813,-0.228515 0.316406,-0.07031 0.667969,-0.07031 0.861328,0 1.467773,0.342774 0.615234,0.342773 0.993164,0.922851 0.386719,0.571289 0.5625,1.344727 0.175781,0.773437 0.175781,1.634765 z m -1.529297,0.166993 q 0,-0.606446 -0.09668,-1.177735 -0.08789,-0.571289 -0.316406,-1.010742 -0.228516,-0.439453 -0.606446,-0.703125 -0.377929,-0.272461 -0.940429,-0.272461 -0.28125,0 -0.553711,0.0791 -0.272461,0.0791 -0.553711,0.263671 -0.28125,0.184571 -0.588868,0.47461 -0.298828,0.290039 -0.641601,0.729492 v 3.155273 q 0.597656,0.729493 1.142578,1.116211 0.544922,0.37793 1.133789,0.37793 0.544922,0 0.931641,-0.263672 0.386718,-0.263672 0.624023,-0.694336 0.246094,-0.439453 0.351563,-0.975586 0.114257,-0.544922 0.114257,-1.098632 z"
     style="direction:rtl;stroke-width:0.75"
     id="path862" /><path
     d="m 90.36705,-75.050194 q 0,0.07031 -0.03516,0.123047 -0.03516,0.04395 -0.114258,0.0791 -0.0791,0.03516 -0.219726,0.05273 -0.140625,0.01758 -0.360352,0.01758 -0.210938,0 -0.351563,-0.01758 -0.140625,-0.01758 -0.228515,-0.05273 -0.0791,-0.03516 -0.114258,-0.0791 -0.02637,-0.05273 -0.02637,-0.123047 v -7.910156 q 0,-0.06152 0.02637,-0.114258 0.03516,-0.05273 0.114258,-0.08789 0.08789,-0.03516 0.228515,-0.05273 0.140625,-0.01758 0.351563,-0.01758 0.219727,0 0.360352,0.01758 0.140625,0.01758 0.219726,0.05273 0.0791,0.03516 0.114258,0.08789 0.03516,0.05273 0.03516,0.114258 z m 0.166992,-10.582031 q 0,0.509766 -0.193359,0.694336 -0.193359,0.18457 -0.711914,0.18457 -0.509766,0 -0.703125,-0.175781 -0.18457,-0.18457 -0.18457,-0.685547 0,-0.509766 0.193359,-0.694336 0.193359,-0.18457 0.711914,-0.18457 0.509766,0 0.694336,0.18457 0.193359,0.175781 0.193359,0.676758 z"
     style="direction:rtl;stroke-width:0.75"
     id="path864" /><path
     d="m 97.178574,-75.630272 q 0,0.254883 -0.03516,0.404297 -0.03516,0.149414 -0.105468,0.219727 -0.07031,0.07031 -0.210938,0.131835 -0.140625,0.06152 -0.325195,0.09668 -0.175781,0.04394 -0.37793,0.07031 -0.202148,0.02637 -0.404297,0.02637 -0.615234,0 -1.054687,-0.158203 -0.439453,-0.166992 -0.720703,-0.492188 -0.28125,-0.333984 -0.413086,-0.834961 -0.123047,-0.509765 -0.123047,-1.195312 v -4.623047 h -1.107422 q -0.131836,0 -0.210938,-0.140625 -0.0791,-0.140625 -0.0791,-0.457031 0,-0.166993 0.01758,-0.28125 0.02637,-0.114258 0.06152,-0.184571 0.03516,-0.0791 0.08789,-0.105468 0.06152,-0.03516 0.131836,-0.03516 h 1.098633 v -1.880859 q 0,-0.06152 0.02637,-0.114258 0.03516,-0.05273 0.114258,-0.08789 0.08789,-0.04395 0.228515,-0.06152 0.140625,-0.01758 0.351563,-0.01758 0.219726,0 0.360351,0.01758 0.140625,0.01758 0.219727,0.06152 0.0791,0.03516 0.114258,0.08789 0.03516,0.05273 0.03516,0.114258 v 1.880859 h 2.030274 q 0.07031,0 0.123046,0.03516 0.05273,0.02637 0.08789,0.105468 0.04394,0.07031 0.06152,0.184571 0.01758,0.114257 0.01758,0.28125 0,0.316406 -0.0791,0.457031 -0.0791,0.140625 -0.210937,0.140625 h -2.030274 v 4.412109 q 0,0.817383 0.237305,1.239258 0.246094,0.413086 0.870117,0.413086 0.202148,0 0.360352,-0.03516 0.158203,-0.04395 0.28125,-0.08789 0.123046,-0.04395 0.210937,-0.0791 0.08789,-0.04395 0.158203,-0.04395 0.04394,0 0.0791,0.02637 0.04395,0.01758 0.06152,0.0791 0.02637,0.06152 0.04394,0.166992 0.01758,0.105469 0.01758,0.263672 z"
     style="direction:rtl;stroke-width:0.75"
     id="path866" /><path
     d="m 104.07799,-77.203514 q 0,0.606445 -0.22852,1.081055 -0.21972,0.474609 -0.63281,0.799804 -0.41309,0.325196 -0.98438,0.492188 -0.57128,0.166992 -1.25683,0.166992 -0.42188,0 -0.8086,-0.07031 -0.377925,-0.06152 -0.685542,-0.158203 -0.298828,-0.105468 -0.509766,-0.210937 -0.210937,-0.114258 -0.307617,-0.202149 -0.09668,-0.08789 -0.140625,-0.246093 -0.04395,-0.158203 -0.04395,-0.430664 0,-0.166993 0.01758,-0.28125 0.01758,-0.114258 0.04395,-0.184571 0.02637,-0.07031 0.07031,-0.09668 0.05273,-0.03516 0.114258,-0.03516 0.09668,0 0.28125,0.123047 0.193359,0.114258 0.46582,0.254883 0.28125,0.140625 0.659181,0.263672 0.37793,0.114258 0.87012,0.114258 0.36914,0 0.66796,-0.0791 0.29883,-0.0791 0.51856,-0.228515 0.21973,-0.158204 0.33398,-0.395508 0.12305,-0.237305 0.12305,-0.5625 0,-0.333985 -0.17578,-0.5625 -0.16699,-0.228516 -0.44824,-0.404297 -0.28125,-0.175781 -0.63282,-0.307617 -0.35156,-0.140625 -0.72949,-0.290039 -0.36914,-0.149414 -0.72949,-0.333985 -0.351562,-0.193359 -0.632812,-0.46582 -0.28125,-0.272461 -0.457032,-0.650391 -0.166992,-0.377929 -0.166992,-0.905273 0,-0.46582 0.175781,-0.887695 0.184571,-0.430665 0.544922,-0.747071 0.360352,-0.325195 0.896483,-0.518554 0.54492,-0.19336 1.26563,-0.19336 0.3164,0 0.63281,0.05273 0.31641,0.05273 0.57129,0.131835 0.25488,0.0791 0.43066,0.175782 0.18457,0.08789 0.27246,0.158203 0.0967,0.07031 0.12305,0.123047 0.0352,0.05273 0.0439,0.123047 0.0176,0.06152 0.0264,0.158203 0.0176,0.09668 0.0176,0.237304 0,0.149414 -0.0176,0.263672 -0.009,0.105469 -0.0439,0.175782 -0.0264,0.07031 -0.0703,0.105468 -0.0439,0.02637 -0.0967,0.02637 -0.0791,0 -0.22852,-0.09668 -0.14941,-0.09668 -0.38672,-0.202149 -0.2373,-0.114257 -0.5625,-0.210937 -0.31641,-0.09668 -0.72949,-0.09668 -0.36914,0 -0.65039,0.08789 -0.28125,0.0791 -0.46582,0.237304 -0.17578,0.149415 -0.27246,0.360352 -0.0879,0.210938 -0.0879,0.457031 0,0.342774 0.17578,0.580078 0.17578,0.228516 0.45703,0.404297 0.28125,0.175782 0.6416,0.316407 0.36035,0.140625 0.72949,0.290039 0.37793,0.149414 0.73828,0.333984 0.36914,0.18457 0.65039,0.448242 0.28125,0.263672 0.44825,0.632813 0.17578,0.36914 0.17578,0.878906 z"
     style="direction:rtl;stroke-width:0.75"
     id="path868" /></g>

<g
   aria-label="m bits"
   transform="scale(1,-1)"
   style="font-style:normal;font-variant:normal;font-weight:normal;font-stretch:normal;font-size:18px;line-height:1.25;font-family:Calibri;-inkscape-font-specification:Calibri;letter-spacing:0px;word-spacing:0px;direction:rtl;fill:#000000;fill-opacity:1;stroke:none;stroke-width:0.75"
   id="text1155-9"><path
     d="m 195.78493,-75.050186 q 0,0.07031 -0.0352,0.123047 -0.0352,0.04394 -0.11426,0.0791 -0.0791,0.03516 -0.21972,0.05273 -0.14063,0.01758 -0.35157,0.01758 -0.21972,0 -0.36035,-0.01758 -0.14062,-0.01758 -0.22851,-0.05273 -0.0791,-0.03516 -0.11426,-0.0791 -0.0352,-0.05273 -0.0352,-0.123047 v -4.807617 q 0,-0.500977 -0.0879,-0.914063 -0.0879,-0.413086 -0.28125,-0.711914 -0.19336,-0.298828 -0.49219,-0.457031 -0.29882,-0.158203 -0.70312,-0.158203 -0.50098,0 -1.01074,0.386718 -0.50098,0.386719 -1.10742,1.13379 v 5.52832 q 0,0.07031 -0.0352,0.123047 -0.0352,0.04394 -0.12305,0.0791 -0.0791,0.03516 -0.21972,0.05273 -0.14063,0.01758 -0.35157,0.01758 -0.20214,0 -0.35156,-0.01758 -0.14062,-0.01758 -0.22851,-0.05273 -0.0791,-0.03516 -0.11426,-0.0791 -0.0264,-0.05273 -0.0264,-0.123047 v -4.807617 q 0,-0.500977 -0.0967,-0.914063 -0.0967,-0.413086 -0.29004,-0.711914 -0.19336,-0.298828 -0.49219,-0.457031 -0.29003,-0.158203 -0.69433,-0.158203 -0.50098,0 -1.01074,0.386718 -0.50977,0.386719 -1.10743,1.13379 v 5.52832 q 0,0.07031 -0.0352,0.123047 -0.0352,0.04394 -0.11426,0.0791 -0.0791,0.03516 -0.21973,0.05273 -0.14062,0.01758 -0.36035,0.01758 -0.21094,0 -0.35156,-0.01758 -0.14063,-0.01758 -0.22852,-0.05273 -0.0791,-0.03516 -0.11425,-0.0791 -0.0264,-0.05273 -0.0264,-0.123047 v -7.910156 q 0,-0.07031 0.0264,-0.114258 0.0264,-0.05273 0.10546,-0.08789 0.0791,-0.04394 0.20215,-0.05273 0.12305,-0.01758 0.3252,-0.01758 0.19336,0 0.3164,0.01758 0.13184,0.0088 0.20215,0.05273 0.0703,0.03516 0.0967,0.08789 0.0352,0.04395 0.0352,0.114258 v 1.045898 q 0.66797,-0.74707 1.29199,-1.089844 0.63281,-0.351562 1.27442,-0.351562 0.49218,0 0.8789,0.114258 0.39551,0.114257 0.69434,0.325195 0.29883,0.202148 0.50976,0.492187 0.21094,0.28125 0.35157,0.632813 0.3955,-0.430664 0.74707,-0.729492 0.36035,-0.298828 0.68554,-0.483399 0.33399,-0.18457 0.6416,-0.263672 0.31641,-0.08789 0.63282,-0.08789 0.76465,0 1.2832,0.272461 0.51855,0.263672 0.83496,0.711914 0.3252,0.448242 0.45703,1.054687 0.14063,0.597657 0.14063,1.265625 z"
     style="direction:rtl;stroke-width:0.75"
     id="path871" /><path
     d="m 209.7859,-79.110733 q 0,1.02832 -0.22851,1.854492 -0.21973,0.817383 -0.65918,1.397461 -0.43067,0.580078 -1.06348,0.887695 -0.63281,0.307618 -1.45019,0.307618 -0.37793,0 -0.70313,-0.0791 -0.3164,-0.07031 -0.62402,-0.237305 -0.30762,-0.166992 -0.61524,-0.421875 -0.30761,-0.254882 -0.65039,-0.615234 v 0.966797 q 0,0.07031 -0.0352,0.123047 -0.0352,0.05273 -0.11426,0.08789 -0.0791,0.02637 -0.20215,0.04395 -0.11426,0.01758 -0.29883,0.01758 -0.17578,0 -0.29883,-0.01758 -0.12304,-0.01758 -0.20214,-0.04395 -0.0791,-0.03516 -0.10547,-0.08789 -0.0264,-0.05273 -0.0264,-0.123047 v -11.742188 q 0,-0.07031 0.0264,-0.123047 0.0351,-0.05273 0.11426,-0.08789 0.0879,-0.03516 0.22851,-0.05273 0.14063,-0.01758 0.35156,-0.01758 0.21973,0 0.36035,0.01758 0.14063,0.01758 0.21973,0.05273 0.0791,0.03516 0.11426,0.08789 0.0352,0.05273 0.0352,0.123047 v 4.737305 q 0.35156,-0.360352 0.67675,-0.606445 0.33399,-0.246094 0.65039,-0.395508 0.31641,-0.158203 0.63282,-0.228516 0.3164,-0.07031 0.66797,-0.07031 0.86132,0 1.46777,0.342773 0.61523,0.342774 0.99316,0.922852 0.38672,0.571289 0.5625,1.344726 0.17578,0.773438 0.17578,1.634766 z m -1.52929,0.166992 q 0,-0.606445 -0.0967,-1.177734 -0.0879,-0.571289 -0.31641,-1.010742 -0.22851,-0.439454 -0.60644,-0.703125 -0.37793,-0.272461 -0.94043,-0.272461 -0.28125,0 -0.55371,0.0791 -0.27247,0.0791 -0.55372,0.263672 -0.28125,0.18457 -0.58886,0.474609 -0.29883,0.29004 -0.6416,0.729493 v 3.155273 q 0.59765,0.729492 1.14257,1.116211 0.54493,0.37793 1.13379,0.37793 0.54492,0 0.93164,-0.263672 0.38672,-0.263672 0.62403,-0.694336 0.24609,-0.439453 0.35156,-0.975586 0.11426,-0.544922 0.11426,-1.098633 z"
     style="direction:rtl;stroke-width:0.75"
     id="path873" /><path
     d="m 213.41579,-75.050186 q 0,0.07031 -0.0352,0.123047 -0.0352,0.04394 -0.11426,0.0791 -0.0791,0.03516 -0.21972,0.05273 -0.14063,0.01758 -0.36036,0.01758 -0.21093,0 -0.35156,-0.01758 -0.14062,-0.01758 -0.22851,-0.05273 -0.0791,-0.03516 -0.11426,-0.0791 -0.0264,-0.05273 -0.0264,-0.123047 v -7.910156 q 0,-0.06152 0.0264,-0.114258 0.0351,-0.05273 0.11426,-0.08789 0.0879,-0.03516 0.22851,-0.05273 0.14063,-0.01758 0.35156,-0.01758 0.21973,0 0.36036,0.01758 0.14062,0.01758 0.21972,0.05273 0.0791,0.03516 0.11426,0.08789 0.0352,0.05273 0.0352,0.114258 z m 0.16699,-10.582031 q 0,0.509765 -0.19336,0.694336 -0.19336,0.18457 -0.71191,0.18457 -0.50977,0 -0.70313,-0.175781 -0.18457,-0.184571 -0.18457,-0.685547 0,-0.509766 0.19336,-0.694336 0.19336,-0.184571 0.71191,-0.184571 0.50977,0 0.69434,0.184571 0.19336,0.175781 0.19336,0.676758 z"
     style="direction:rtl;stroke-width:0.75"
     id="path875" /><path
     d="m 220.22731,-75.630264 q 0,0.254883 -0.0352,0.404297 -0.0351,0.149414 -0.10546,0.219726 -0.0703,0.07031 -0.21094,0.131836 -0.14063,0.06152 -0.3252,0.09668 -0.17578,0.04395 -0.37793,0.07031 -0.20215,0.02637 -0.40429,0.02637 -0.61524,0 -1.05469,-0.158203 -0.43945,-0.166992 -0.7207,-0.492187 -0.28125,-0.333985 -0.41309,-0.834961 -0.12305,-0.509766 -0.12305,-1.195313 v -4.623046 h -1.10742 q -0.13184,0 -0.21094,-0.140625 -0.0791,-0.140625 -0.0791,-0.457032 0,-0.166992 0.0176,-0.28125 0.0264,-0.114258 0.0615,-0.18457 0.0352,-0.0791 0.0879,-0.105469 0.0615,-0.03516 0.13184,-0.03516 h 1.09863 v -1.880859 q 0,-0.06152 0.0264,-0.114258 0.0352,-0.05273 0.11426,-0.08789 0.0879,-0.04394 0.22851,-0.06152 0.14063,-0.01758 0.35157,-0.01758 0.21972,0 0.36035,0.01758 0.14062,0.01758 0.21972,0.06152 0.0791,0.03516 0.11426,0.08789 0.0352,0.05273 0.0352,0.114258 v 1.880859 h 2.03027 q 0.0703,0 0.12305,0.03516 0.0527,0.02637 0.0879,0.105469 0.0439,0.07031 0.0615,0.18457 0.0176,0.114258 0.0176,0.28125 0,0.316407 -0.0791,0.457032 -0.0791,0.140625 -0.21094,0.140625 H 217.907 v 4.412109 q 0,0.817383 0.2373,1.239258 0.2461,0.413086 0.87012,0.413086 0.20215,0 0.36035,-0.03516 0.1582,-0.04394 0.28125,-0.08789 0.12305,-0.04395 0.21094,-0.0791 0.0879,-0.04395 0.1582,-0.04395 0.0439,0 0.0791,0.02637 0.0439,0.01758 0.0615,0.0791 0.0264,0.06152 0.0439,0.166992 0.0176,0.105469 0.0176,0.263672 z"
     style="direction:rtl;stroke-width:0.75"
     id="path877" /><path
     d="m 227.12672,-77.203506 q 0,0.606445 -0.22851,1.081054 -0.21973,0.47461 -0.63281,0.799805 -0.41309,0.325195 -0.98438,0.492187 -0.57129,0.166993 -1.25683,0.166993 -0.42188,0 -0.8086,-0.07031 -0.37793,-0.06152 -0.68555,-0.158203 -0.29882,-0.105469 -0.50976,-0.210938 -0.21094,-0.114257 -0.30762,-0.202148 -0.0967,-0.08789 -0.14062,-0.246094 -0.0439,-0.158203 -0.0439,-0.430664 0,-0.166992 0.0176,-0.28125 0.0176,-0.114258 0.0439,-0.18457 0.0264,-0.07031 0.0703,-0.09668 0.0527,-0.03516 0.11426,-0.03516 0.0967,0 0.28125,0.123047 0.19335,0.114258 0.46582,0.254883 0.28125,0.140625 0.65918,0.263672 0.37792,0.114257 0.87011,0.114257 0.36914,0 0.66797,-0.0791 0.29883,-0.0791 0.51856,-0.228516 0.21972,-0.158203 0.33398,-0.395508 0.12305,-0.237304 0.12305,-0.5625 0,-0.333984 -0.17578,-0.5625 -0.167,-0.228515 -0.44825,-0.404297 -0.28125,-0.175781 -0.63281,-0.307617 -0.35156,-0.140625 -0.72949,-0.290039 -0.36914,-0.149414 -0.72949,-0.333984 -0.35157,-0.19336 -0.63282,-0.46582 -0.28125,-0.272461 -0.45703,-0.650391 -0.16699,-0.37793 -0.16699,-0.905274 0,-0.46582 0.17578,-0.887695 0.18457,-0.430664 0.54492,-0.74707 0.36036,-0.325195 0.89649,-0.518555 0.54492,-0.193359 1.26562,-0.193359 0.31641,0 0.63282,0.05273 0.3164,0.05273 0.57128,0.131836 0.25489,0.0791 0.43067,0.175781 0.18457,0.08789 0.27246,0.158203 0.0967,0.07031 0.12305,0.123047 0.0352,0.05273 0.0439,0.123047 0.0176,0.06152 0.0264,0.158203 0.0176,0.09668 0.0176,0.237305 0,0.149414 -0.0176,0.263672 -0.009,0.105469 -0.0439,0.175781 -0.0264,0.07031 -0.0703,0.105469 -0.0439,0.02637 -0.0967,0.02637 -0.0791,0 -0.22851,-0.09668 -0.14942,-0.09668 -0.38672,-0.202148 -0.23731,-0.114258 -0.5625,-0.210938 -0.31641,-0.09668 -0.72949,-0.09668 -0.36915,0 -0.6504,0.08789 -0.28125,0.0791 -0.46582,0.237305 -0.17578,0.149414 -0.27246,0.360352 -0.0879,0.210937 -0.0879,0.457031 0,0.342773 0.17578,0.580078 0.17579,0.228516 0.45704,0.404297 0.28125,0.175781 0.6416,0.316406 0.36035,0.140625 0.72949,0.290039 0.37793,0.149414 0.73828,0.333985 0.36914,0.18457 0.65039,0.448242 0.28125,0.263672 0.44824,0.632812 0.17578,0.369141 0.17578,0.878907 z"
     style="direction:rtl;stroke-width:0.75"
     id="path879" /></g>

<text
   xml:space="preserve"
   style="font-style:normal;font-variant:normal;font-weight:normal;font-stretch:normal;font-size:18px;line-height:1.25;font-family:Calibri;-inkscape-font-specification:Calibri;letter-spacing:0px;word-spacing:0px;direction:ltr;fill:#000000;fill-opacity:1;stroke:none;stroke-width:0.75"
   x="323.63766"
   y="-74.830475"
   id="text1155-5"
   transform="scale(1,-1)"><tspan
     sodipodi:role="line"
     id="tspan1153-1"
     x="323.63766"
     y="-74.830475"
     style="direction:ltr;stroke-width:0.75">128-m-n bits</tspan></text>



<text
   xml:space="preserve"
   style="font-style:normal;font-variant:normal;font-weight:normal;font-stretch:normal;font-size:20px;line-height:1.25;font-family:Calibri;-inkscape-font-specification:Calibri;letter-spacing:0px;word-spacing:0px;fill:#000000;fill-opacity:1;stroke:none;stroke-width:0.75"
   x="370.25388"
   y="-33.506805"
   id="text1073-9-6"
   transform="scale(1,-1)"><tspan
     sodipodi:role="line"
     x="370.25388"
     y="-33.506805"
     style="font-style:normal;font-variant:normal;font-weight:bold;font-stretch:normal;font-family:Calibri;-inkscape-font-specification:'Calibri Bold';text-align:center;text-anchor:middle;stroke-width:0.75"
     id="tspan875-4">Interface ID</tspan></text>


</g></svg>