<?xml version="1.0" encoding="UTF-8" standalone="no"?>
<!-- Created with Inkscape (http://www.inkscape.org/) -->

<svg
   xmlns:dc="http://purl.org/dc/elements/1.1/"
   xmlns:cc="http://creativecommons.org/ns#"
   xmlns:rdf="http://www.w3.org/1999/02/22-rdf-syntax-ns#"
   xmlns:svg="http://www.w3.org/2000/svg"
   xmlns="http://www.w3.org/2000/svg"
   xmlns:sodipodi="http://sodipodi.sourceforge.net/DTD/sodipodi-0.dtd"
   xmlns:inkscape="http://www.inkscape.org/namespaces/inkscape"
   version="1.1"
   id="svg2"
   xml:space="preserve"
   width="670"
   height="100"
   viewBox="0 0 670 100"
   sodipodi:docname="IPv6_IPv4-Mapped_address_stracture-en.svg"
   inkscape:version="0.92.4 (5da689c313, 2019-01-14)"><metadata
     id="metadata8"><rdf:RDF><cc:Work
         rdf:about=""><dc:format>image/svg+xml</dc:format><dc:type
           rdf:resource="http://purl.org/dc/dcmitype/StillImage" /><dc:title /></cc:Work></rdf:RDF></metadata><defs
     id="defs6"><clipPath
       clipPathUnits="userSpaceOnUse"
       id="clipPath18"><path
         d="M 0,1.2207e-4 H 960 V 540.00012 H 0 Z"
         id="path16"
         inkscape:connector-curvature="0"
         style="clip-rule:evenodd" /></clipPath><clipPath
       clipPathUnits="userSpaceOnUse"
       id="clipPath32"><path
         d="M 1.4305e-5,0 H 960.00001 V 540 H 1.4305e-5 Z"
         id="path30"
         inkscape:connector-curvature="0"
         style="clip-rule:evenodd" /></clipPath><clipPath
       clipPathUnits="userSpaceOnUse"
       id="clipPath48"><path
         d="M 1.4305e-5,0 H 960.00001 V 540 H 1.4305e-5 Z"
         id="path46"
         inkscape:connector-curvature="0"
         style="clip-rule:evenodd" /></clipPath><clipPath
       clipPathUnits="userSpaceOnUse"
       id="clipPath60"><path
         d="M -1.2207e-4,540 H 960 V 1.2207e-4 H -6.1035e-5"
         id="path58"
         inkscape:connector-curvature="0"
         style="clip-rule:evenodd" /></clipPath><clipPath
       clipPathUnits="userSpaceOnUse"
       id="clipPath70"><path
         d="M 1.4305e-5,0 H 960.00001 V 540 H 1.4305e-5 Z"
         id="path68"
         inkscape:connector-curvature="0"
         style="clip-rule:evenodd" /></clipPath><clipPath
       clipPathUnits="userSpaceOnUse"
       id="clipPath82"><path
         d="M 1.4305e-5,0 H 960.00001 V 540 H 1.4305e-5 Z"
         id="path80"
         inkscape:connector-curvature="0"
         style="clip-rule:evenodd" /></clipPath><clipPath
       clipPathUnits="userSpaceOnUse"
       id="clipPath94"><path
         d="M 1.4305e-5,0 H 960.00001 V 540 H 1.4305e-5 Z"
         id="path92"
         inkscape:connector-curvature="0"
         style="clip-rule:evenodd" /></clipPath><clipPath
       clipPathUnits="userSpaceOnUse"
       id="clipPath106"><path
         d="M 1.4305e-5,0 H 960.00001 V 540 H 1.4305e-5 Z"
         id="path104"
         inkscape:connector-curvature="0"
         style="clip-rule:evenodd" /></clipPath><clipPath
       clipPathUnits="userSpaceOnUse"
       id="clipPath118"><path
         d="M 1.4305e-5,0 H 960.00001 V 540 H 1.4305e-5 Z"
         id="path116"
         inkscape:connector-curvature="0"
         style="clip-rule:evenodd" /></clipPath><clipPath
       clipPathUnits="userSpaceOnUse"
       id="clipPath94-9"><path
         d="M 1.4305e-5,0 H 960.00001 V 540 H 1.4305e-5 Z"
         id="path92-0"
         inkscape:connector-curvature="0"
         style="clip-rule:evenodd" /></clipPath><clipPath
       clipPathUnits="userSpaceOnUse"
       id="clipPath60-8"><path
         d="M -1.2207e-4,540 H 960 V 1.2207e-4 H -6.1035e-5"
         id="path58-1"
         inkscape:connector-curvature="0"
         style="clip-rule:evenodd" /></clipPath><clipPath
       clipPathUnits="userSpaceOnUse"
       id="clipPath60-8-0"><path
         d="M -1.2207e-4,540 H 960 V 1.2207e-4 H -6.1035e-5"
         id="path58-1-1"
         inkscape:connector-curvature="0"
         style="clip-rule:evenodd" /></clipPath><clipPath
       clipPathUnits="userSpaceOnUse"
       id="clipPath60-8-0-0"><path
         d="M -1.2207e-4,540 H 960 V 1.2207e-4 H -6.1035e-5"
         id="path58-1-1-0"
         inkscape:connector-curvature="0"
         style="clip-rule:evenodd" /></clipPath><clipPath
       clipPathUnits="userSpaceOnUse"
       id="clipPath60-3"><path
         d="M -1.2207e-4,540 H 960 V 1.2207e-4 H -6.1035e-5"
         id="path58-6"
         inkscape:connector-curvature="0"
         style="clip-rule:evenodd" /></clipPath></defs><sodipodi:namedview
     pagecolor="#ffffff"
     bordercolor="#666666"
     borderopacity="1"
     objecttolerance="10"
     gridtolerance="10"
     guidetolerance="10"
     inkscape:pageopacity="0"
     inkscape:pageshadow="2"
     inkscape:window-width="1920"
     inkscape:window-height="986"
     id="namedview4"
     showgrid="false"
     inkscape:zoom="1.8541911"
     inkscape:cx="302.42206"
     inkscape:cy="78.241265"
     inkscape:window-x="-11"
     inkscape:window-y="-11"
     inkscape:window-maximized="1"
     inkscape:current-layer="g10" /><g
     id="g10"
     inkscape:groupmode="layer"
     inkscape:label="New Microsoft PowerPoint Presentation"
     transform="matrix(1.3333333,0,0,-1.3333333,0,100)"><path
   style="opacity:1;fill:none;fill-opacity:1;fill-rule:nonzero;stroke:#000000;stroke-width:0.75;stroke-linecap:square;stroke-linejoin:miter;stroke-miterlimit:10;stroke-dasharray:none;stroke-dashoffset:0;stroke-opacity:1;paint-order:fill markers stroke"
   d="M 17.293991,49.339821 H 292.7925 V 8.5196079 H 17.293991 Z"
   id="rect958"
   inkscape:connector-curvature="0" /><path
   style="opacity:1;fill:none;fill-opacity:1;fill-rule:nonzero;stroke:#000000;stroke-width:0.75;stroke-linecap:square;stroke-linejoin:miter;stroke-miterlimit:10;stroke-dasharray:none;stroke-dashoffset:0;stroke-opacity:1;paint-order:fill markers stroke"
   d="M 362.20537,49.384237 H 485.41738 V 8.5640238 H 362.20537 Z"
   id="rect958-4"
   inkscape:connector-curvature="0" /><path
   style="opacity:1;fill:none;fill-opacity:1;fill-rule:nonzero;stroke:#000000;stroke-width:0.75205427;stroke-linecap:square;stroke-linejoin:miter;stroke-miterlimit:10;stroke-dasharray:none;stroke-dashoffset:0;stroke-opacity:1;paint-order:fill markers stroke"
   d="m 292.74292,49.384237 h 69.46245 V 8.4700262 h -69.46245 z"
   id="rect958-4-0"
   inkscape:connector-curvature="0" /><g
   aria-label="IPv4 adress"
   transform="scale(1,-1)"
   style="font-style:normal;font-variant:normal;font-weight:normal;font-stretch:normal;font-size:14px;line-height:1.25;font-family:Calibri;-inkscape-font-specification:Calibri;letter-spacing:0px;word-spacing:0px;fill:#000000;fill-opacity:1;stroke:none;stroke-width:0.75"
   id="text995"><path
     d="m 394.00302,-24.551279 q 0,0.06836 -0.0478,0.123047 -0.041,0.05469 -0.14356,0.08887 -0.10253,0.03418 -0.27343,0.05469 -0.1709,0.02051 -0.4375,0.02051 -0.25977,0 -0.4375,-0.02051 -0.1709,-0.02051 -0.27344,-0.05469 -0.10254,-0.03418 -0.15039,-0.08887 -0.041,-0.05469 -0.041,-0.123047 v -8.353516 q 0,-0.06836 0.041,-0.123047 0.0478,-0.05469 0.15039,-0.08887 0.10937,-0.03418 0.28027,-0.05469 0.1709,-0.02051 0.43067,-0.02051 0.2666,0 0.4375,0.02051 0.1709,0.02051 0.27343,0.05469 0.10254,0.03418 0.14356,0.08887 0.0478,0.05469 0.0478,0.123047 z"
     style="font-style:normal;font-variant:normal;font-weight:bold;font-stretch:normal;font-family:Calibri;-inkscape-font-specification:'Calibri Bold';text-align:center;text-anchor:middle;stroke-width:0.75"
     id="path858" /><path
     d="m 402.00107,-30.464365 q 0,0.745117 -0.23242,1.319336 -0.23243,0.574219 -0.67676,0.970703 -0.44434,0.389648 -1.09375,0.594727 -0.64258,0.205078 -1.51758,0.205078 h -0.73828 v 2.823242 q 0,0.06836 -0.0478,0.123047 -0.041,0.05469 -0.14356,0.08887 -0.10254,0.03418 -0.27343,0.05469 -0.1709,0.02051 -0.4375,0.02051 -0.25977,0 -0.4375,-0.02051 -0.1709,-0.02051 -0.27344,-0.05469 -0.10254,-0.03418 -0.14356,-0.08887 -0.041,-0.05469 -0.041,-0.123047 v -7.957031 q 0,-0.321289 0.16406,-0.478516 0.1709,-0.164062 0.44434,-0.164062 h 2.08496 q 0.31445,0 0.59472,0.02734 0.28711,0.02051 0.6836,0.102539 0.39648,0.0752 0.7998,0.28711 0.41016,0.211914 0.69727,0.540039 0.28711,0.321289 0.4375,0.758789 0.15039,0.430664 0.15039,0.970703 z m -1.87988,0.129883 q 0,-0.464844 -0.16407,-0.765625 -0.16406,-0.300781 -0.40332,-0.444336 -0.23926,-0.143555 -0.50586,-0.177735 -0.25976,-0.04102 -0.54004,-0.04102 h -0.76562 v 3.000976 h 0.80664 q 0.43066,0 0.71777,-0.116211 0.29395,-0.11621 0.47852,-0.321289 0.18457,-0.211914 0.28027,-0.499023 0.0957,-0.293945 0.0957,-0.635742 z"
     style="font-style:normal;font-variant:normal;font-weight:bold;font-stretch:normal;font-family:Calibri;-inkscape-font-specification:'Calibri Bold';text-align:center;text-anchor:middle;stroke-width:0.75"
     id="path860" /><path
     d="m 408.91904,-30.642099 q 0,0.03418 -0.007,0.08203 0,0.04785 -0.0137,0.109375 -0.007,0.05469 -0.0273,0.129883 -0.0137,0.0752 -0.041,0.170898 l -1.83203,5.516602 q -0.0342,0.116211 -0.0957,0.191406 -0.0547,0.06836 -0.19141,0.109375 -0.12988,0.04102 -0.36231,0.05469 -0.22558,0.01367 -0.59472,0.01367 -0.36231,0 -0.59473,-0.02051 -0.22558,-0.01367 -0.35547,-0.05469 -0.12988,-0.04102 -0.1914,-0.109375 -0.0547,-0.0752 -0.0889,-0.18457 l -1.83203,-5.516602 q -0.041,-0.136719 -0.0684,-0.246094 -0.0205,-0.109375 -0.0273,-0.157226 0,-0.04785 0,-0.08887 0,-0.06836 0.0342,-0.116211 0.041,-0.05469 0.13672,-0.08887 0.0957,-0.03418 0.25977,-0.04785 0.1709,-0.01367 0.42383,-0.01367 0.28027,0 0.45117,0.02051 0.1709,0.01367 0.2666,0.04785 0.10254,0.02734 0.14355,0.08887 0.041,0.05469 0.0684,0.136718 l 1.3877,4.477539 0.041,0.170899 0.041,-0.170899 1.36719,-4.477539 q 0.0205,-0.08203 0.0615,-0.136718 0.0478,-0.06152 0.14356,-0.08887 0.0957,-0.03418 0.25293,-0.04785 0.16406,-0.02051 0.42382,-0.02051 0.25293,0 0.41016,0.01367 0.16406,0.01367 0.25293,0.04785 0.0889,0.03418 0.12305,0.08887 0.0342,0.04785 0.0342,0.116211 z"
     style="font-style:normal;font-variant:normal;font-weight:bold;font-stretch:normal;font-family:Calibri;-inkscape-font-specification:'Calibri Bold';text-align:center;text-anchor:middle;stroke-width:0.75"
     id="path862" /><path
     d="m 415.87119,-26.848154 q 0,0.348633 -0.0752,0.533203 -0.0684,0.177734 -0.19141,0.177734 h -0.78613 v 1.59961 q 0,0.06836 -0.041,0.123047 -0.041,0.04785 -0.14356,0.08203 -0.10254,0.03418 -0.2666,0.04785 -0.16406,0.02051 -0.42383,0.02051 -0.24609,0 -0.41699,-0.02051 -0.16406,-0.01367 -0.2666,-0.04785 -0.0957,-0.03418 -0.13672,-0.08203 -0.0342,-0.05469 -0.0342,-0.123047 v -1.59961 h -3.38379 q -0.0957,0 -0.1709,-0.02051 -0.0752,-0.02734 -0.12988,-0.109375 -0.0478,-0.08887 -0.0752,-0.246094 -0.0205,-0.164063 -0.0205,-0.430664 0,-0.21875 0.007,-0.375977 0.0137,-0.164062 0.0342,-0.293945 0.0273,-0.129883 0.0684,-0.246094 0.0478,-0.116211 0.11621,-0.246094 l 2.74805,-4.846679 q 0.0342,-0.06152 0.11621,-0.102539 0.082,-0.04785 0.22558,-0.0752 0.1504,-0.03418 0.37598,-0.04785 0.22559,-0.01367 0.54688,-0.01367 0.34863,0 0.59472,0.02051 0.2461,0.01367 0.38965,0.05469 0.15039,0.03418 0.21875,0.08887 0.0684,0.05469 0.0684,0.129883 v 5.325196 h 0.78613 q 0.10938,0 0.18457,0.170898 0.082,0.164062 0.082,0.553711 z m -2.78223,-4.791992 h -0.0137 l -2.33106,4.067383 h 2.34473 z"
     style="font-style:normal;font-variant:normal;font-weight:bold;font-stretch:normal;font-family:Calibri;-inkscape-font-specification:'Calibri Bold';text-align:center;text-anchor:middle;stroke-width:0.75"
     id="path864" /><path
     d="m 425.40048,-24.517099 q 0,0.0957 -0.0684,0.15039 -0.0684,0.05469 -0.21875,0.0752 -0.14355,0.02734 -0.43066,0.02734 -0.30762,0 -0.45117,-0.02734 -0.13672,-0.02051 -0.19825,-0.0752 -0.0547,-0.05469 -0.0547,-0.15039 v -0.485352 q -0.37598,0.40332 -0.86133,0.628906 -0.47852,0.225586 -1.06641,0.225586 -0.48535,0 -0.89551,-0.129883 -0.40332,-0.123046 -0.7041,-0.36914 -0.29394,-0.25293 -0.458,-0.622071 -0.16407,-0.36914 -0.16407,-0.861328 0,-0.533203 0.20508,-0.922851 0.21192,-0.396485 0.62207,-0.649414 0.41699,-0.259766 1.03223,-0.382813 0.61523,-0.123047 1.42871,-0.123047 h 0.59473 v -0.36914 q 0,-0.28711 -0.0615,-0.499024 -0.0547,-0.21875 -0.1914,-0.362304 -0.12989,-0.143555 -0.35547,-0.211914 -0.21875,-0.06836 -0.54688,-0.06836 -0.43066,0 -0.77246,0.0957 -0.33496,0.0957 -0.59473,0.211914 -0.25976,0.116211 -0.4375,0.211914 -0.17089,0.0957 -0.28027,0.0957 -0.0752,0 -0.13672,-0.04785 -0.0547,-0.04785 -0.0957,-0.136719 -0.0342,-0.08887 -0.0547,-0.21875 -0.0205,-0.129883 -0.0205,-0.287109 0,-0.211914 0.0342,-0.334961 0.0342,-0.123047 0.12989,-0.21875 0.0957,-0.102539 0.33496,-0.21875 0.23926,-0.123047 0.56054,-0.225586 0.32129,-0.102539 0.69727,-0.164063 0.38281,-0.06836 0.78613,-0.06836 0.71778,0 1.22364,0.143555 0.51269,0.136719 0.84082,0.430664 0.32812,0.287109 0.47851,0.745117 0.15039,0.458008 0.15039,1.086914 z m -1.68847,-2.611329 h -0.65625 q -0.417,0 -0.71094,0.06152 -0.29395,0.06152 -0.47852,0.18457 -0.18457,0.123047 -0.27344,0.300781 -0.082,0.170899 -0.082,0.396485 0,0.382812 0.23926,0.601562 0.2461,0.21875 0.67676,0.21875 0.3623,0 0.66309,-0.18457 0.30761,-0.18457 0.62207,-0.540039 z"
     style="font-style:normal;font-variant:normal;font-weight:bold;font-stretch:normal;font-family:Calibri;-inkscape-font-specification:'Calibri Bold';text-align:center;text-anchor:middle;stroke-width:0.75"
     id="path866" /><path
     d="m 432.90634,-24.537607 q 0,0.0752 -0.0342,0.129883 -0.0342,0.04785 -0.11621,0.08203 -0.082,0.03418 -0.22559,0.04785 -0.13671,0.01367 -0.34179,0.01367 -0.21875,0 -0.35547,-0.01367 -0.13672,-0.01367 -0.22559,-0.04785 -0.082,-0.03418 -0.12304,-0.08203 -0.0342,-0.05469 -0.0342,-0.129883 v -0.676758 q -0.47168,0.505859 -0.99121,0.786133 -0.5127,0.280273 -1.14161,0.280273 -0.69726,0 -1.18261,-0.266601 -0.47852,-0.273438 -0.78614,-0.731446 -0.30078,-0.458007 -0.4375,-1.066406 -0.13671,-0.615234 -0.13671,-1.291992 0,-0.813477 0.17089,-1.462891 0.17774,-0.649414 0.5127,-1.107422 0.33496,-0.458007 0.83398,-0.704101 0.49903,-0.246094 1.14844,-0.246094 0.5127,0 0.92969,0.211914 0.41699,0.205078 0.82715,0.608399 v -3.301758 q 0,-0.06836 0.0342,-0.123047 0.041,-0.05469 0.13672,-0.08887 0.10253,-0.04102 0.2666,-0.06152 0.16406,-0.02051 0.41699,-0.02051 0.25293,0 0.41699,0.02051 0.16406,0.02051 0.25977,0.06152 0.0957,0.03418 0.13672,0.08887 0.041,0.05469 0.041,0.123047 z m -1.70898,-4.074219 q -0.36914,-0.464844 -0.71094,-0.710937 -0.33496,-0.246094 -0.7041,-0.246094 -0.33496,0 -0.58106,0.170898 -0.23925,0.164063 -0.38965,0.444336 -0.14355,0.280274 -0.21875,0.628906 -0.0683,0.341797 -0.0683,0.704102 0,0.382812 0.0615,0.745117 0.0615,0.362305 0.19824,0.649414 0.14356,0.280274 0.37598,0.451172 0.23242,0.170899 0.58789,0.170899 0.17773,0 0.3418,-0.04785 0.17089,-0.05469 0.34179,-0.170898 0.17774,-0.116211 0.36231,-0.300782 0.18457,-0.191406 0.40332,-0.464843 z"
     style="font-style:normal;font-variant:normal;font-weight:bold;font-stretch:normal;font-family:Calibri;-inkscape-font-specification:'Calibri Bold';text-align:center;text-anchor:middle;stroke-width:0.75"
     id="path868" /><path
     d="m 438.55966,-30.067881 q 0,0.246094 -0.0137,0.403321 -0.0137,0.157226 -0.041,0.246093 -0.0273,0.08887 -0.0752,0.123047 -0.041,0.03418 -0.10938,0.03418 -0.0547,0 -0.12304,-0.02051 -0.0684,-0.02734 -0.15723,-0.05469 -0.082,-0.02734 -0.18457,-0.04785 -0.10254,-0.02734 -0.22559,-0.02734 -0.14355,0 -0.28711,0.06152 -0.14355,0.05469 -0.30078,0.177734 -0.15039,0.123047 -0.32129,0.328125 -0.16406,0.205078 -0.35546,0.50586 v 3.800781 q 0,0.06836 -0.041,0.123047 -0.041,0.04785 -0.14355,0.08203 -0.0957,0.03418 -0.25977,0.04785 -0.16406,0.02051 -0.41699,0.02051 -0.25293,0 -0.41699,-0.02051 -0.16407,-0.01367 -0.26661,-0.04785 -0.0957,-0.03418 -0.13671,-0.08203 -0.041,-0.05469 -0.041,-0.123047 v -6.097656 q 0,-0.06836 0.0342,-0.116211 0.0342,-0.05469 0.12305,-0.08887 0.0889,-0.03418 0.22558,-0.04785 0.14356,-0.02051 0.35547,-0.02051 0.21875,0 0.36231,0.02051 0.14355,0.01367 0.21875,0.04785 0.082,0.03418 0.11621,0.08887 0.0342,0.04785 0.0342,0.116211 v 0.758789 q 0.23925,-0.341797 0.45117,-0.560547 0.21191,-0.225586 0.40332,-0.355469 0.1914,-0.129883 0.38281,-0.177734 0.19141,-0.05469 0.38281,-0.05469 0.0889,0 0.19141,0.01367 0.10254,0.0068 0.21191,0.03418 0.10938,0.02051 0.19141,0.05469 0.082,0.02734 0.11621,0.06152 0.041,0.03418 0.0547,0.0752 0.0205,0.04102 0.0342,0.116211 0.0137,0.06836 0.0205,0.211914 0.007,0.143555 0.007,0.389648 z"
     style="font-style:normal;font-variant:normal;font-weight:bold;font-stretch:normal;font-family:Calibri;-inkscape-font-specification:'Calibri Bold';text-align:center;text-anchor:middle;stroke-width:0.75"
     id="path870" /><path
     d="m 445.08798,-27.76417 q 0,0.314453 -0.14355,0.464844 -0.13672,0.150391 -0.38282,0.150391 h -3.71191 q 0,0.389648 0.0889,0.710937 0.0957,0.314453 0.29394,0.540039 0.20508,0.21875 0.51953,0.334961 0.32129,0.116211 0.76563,0.116211 0.45117,0 0.79297,-0.06152 0.3418,-0.06836 0.58789,-0.143555 0.25293,-0.08203 0.41699,-0.143555 0.16406,-0.06836 0.2666,-0.06836 0.0615,0 0.10254,0.02734 0.041,0.02051 0.0684,0.08203 0.0273,0.06152 0.0342,0.177734 0.0137,0.109375 0.0137,0.280274 0,0.15039 -0.007,0.259765 -0.007,0.102539 -0.0205,0.177735 -0.0137,0.0752 -0.041,0.129883 -0.0273,0.04785 -0.0752,0.0957 -0.041,0.04785 -0.23926,0.129882 -0.19824,0.08203 -0.50586,0.164063 -0.30762,0.0752 -0.7041,0.129883 -0.39649,0.06152 -0.84766,0.06152 -0.81347,0 -1.42871,-0.205078 -0.6084,-0.205078 -1.01855,-0.62207 -0.41016,-0.416992 -0.61524,-1.052735 -0.19824,-0.635742 -0.19824,-1.490234 0,-0.813477 0.21191,-1.462891 0.21192,-0.65625 0.61524,-1.107421 0.40332,-0.458008 0.97754,-0.697266 0.58105,-0.239258 1.30566,-0.239258 0.76563,0 1.30567,0.225586 0.54687,0.225586 0.8955,0.628906 0.34864,0.396485 0.5127,0.94336 0.16406,0.546875 0.16406,1.189453 z m -1.66797,-0.492187 q 0.0205,-0.72461 -0.29394,-1.134766 -0.30762,-0.416992 -0.95703,-0.416992 -0.32813,0 -0.57422,0.123047 -0.23926,0.123047 -0.40332,0.334961 -0.15723,0.205078 -0.2461,0.492187 -0.082,0.280274 -0.0957,0.601563 z"
     style="font-style:normal;font-variant:normal;font-weight:bold;font-stretch:normal;font-family:Calibri;-inkscape-font-specification:'Calibri Bold';text-align:center;text-anchor:middle;stroke-width:0.75"
     id="path872" /><path
     d="m 450.80283,-26.260263 q 0,0.519531 -0.19825,0.916015 -0.1914,0.396485 -0.54687,0.663086 -0.35547,0.266602 -0.84082,0.396484 -0.48535,0.136719 -1.05274,0.136719 -0.34179,0 -0.65625,-0.05469 -0.30761,-0.04785 -0.55371,-0.123047 -0.24609,-0.08203 -0.41015,-0.164063 -0.16407,-0.08203 -0.23926,-0.15039 -0.0752,-0.0752 -0.11621,-0.225586 -0.041,-0.157227 -0.041,-0.458008 0,-0.198242 0.0137,-0.314453 0.0137,-0.123047 0.041,-0.191406 0.0273,-0.0752 0.0684,-0.0957 0.041,-0.02734 0.10254,-0.02734 0.0752,0 0.21875,0.08887 0.15039,0.08203 0.36914,0.18457 0.21875,0.102539 0.50586,0.191406 0.29394,0.08887 0.66308,0.08887 0.23243,0 0.41016,-0.04785 0.18457,-0.04785 0.31445,-0.136719 0.13672,-0.08887 0.20508,-0.225586 0.0684,-0.136718 0.0684,-0.314453 0,-0.205078 -0.12988,-0.348633 -0.12305,-0.15039 -0.33496,-0.259765 -0.20508,-0.109375 -0.47168,-0.205078 -0.25977,-0.0957 -0.54004,-0.211914 -0.27344,-0.116211 -0.54004,-0.266602 -0.25977,-0.150391 -0.47168,-0.369141 -0.20508,-0.21875 -0.33496,-0.526367 -0.12305,-0.307617 -0.12305,-0.738281 0,-0.4375 0.1709,-0.799805 0.1709,-0.36914 0.49219,-0.628906 0.32129,-0.259766 0.77929,-0.40332 0.46485,-0.143555 1.03907,-0.143555 0.28711,0 0.55371,0.04102 0.27344,0.04102 0.49219,0.102539 0.21875,0.06152 0.36914,0.136719 0.15039,0.06836 0.21191,0.123046 0.0684,0.04785 0.0957,0.102539 0.0274,0.04785 0.041,0.123047 0.0137,0.06836 0.0205,0.177735 0.0137,0.102539 0.0137,0.259765 0,0.184571 -0.0137,0.300782 -0.007,0.116211 -0.0342,0.18457 -0.0205,0.06836 -0.0615,0.0957 -0.041,0.02051 -0.0957,0.02051 -0.0615,0 -0.19141,-0.06836 -0.12988,-0.0752 -0.32812,-0.157226 -0.19141,-0.08203 -0.45117,-0.150391 -0.25293,-0.0752 -0.58106,-0.0752 -0.23242,0 -0.40332,0.04785 -0.1709,0.04785 -0.28027,0.136718 -0.10938,0.08887 -0.16406,0.211914 -0.0547,0.116211 -0.0547,0.25293 0,0.211914 0.12988,0.355469 0.12988,0.143554 0.3418,0.252929 0.21191,0.109375 0.47851,0.205079 0.27344,0.0957 0.54688,0.211914 0.28027,0.109375 0.54687,0.259765 0.27344,0.150391 0.48536,0.369141 0.21191,0.21875 0.34179,0.526367 0.12989,0.300781 0.12989,0.717774 z"
     style="font-style:normal;font-variant:normal;font-weight:bold;font-stretch:normal;font-family:Calibri;-inkscape-font-specification:'Calibri Bold';text-align:center;text-anchor:middle;stroke-width:0.75"
     id="path874" /><path
     d="m 456.38095,-26.260263 q 0,0.519531 -0.19824,0.916015 -0.19141,0.396485 -0.54688,0.663086 -0.35547,0.266602 -0.84082,0.396484 -0.48535,0.136719 -1.05273,0.136719 -0.3418,0 -0.65625,-0.05469 -0.30762,-0.04785 -0.55371,-0.123047 -0.2461,-0.08203 -0.41016,-0.164063 -0.16406,-0.08203 -0.23926,-0.15039 -0.0752,-0.0752 -0.11621,-0.225586 -0.041,-0.157227 -0.041,-0.458008 0,-0.198242 0.0137,-0.314453 0.0137,-0.123047 0.041,-0.191406 0.0274,-0.0752 0.0684,-0.0957 0.041,-0.02734 0.10254,-0.02734 0.0752,0 0.21875,0.08887 0.15039,0.08203 0.36914,0.18457 0.21875,0.102539 0.50586,0.191406 0.29395,0.08887 0.66309,0.08887 0.23242,0 0.41016,-0.04785 0.18457,-0.04785 0.31445,-0.136719 0.13672,-0.08887 0.20508,-0.225586 0.0684,-0.136718 0.0684,-0.314453 0,-0.205078 -0.12989,-0.348633 -0.12304,-0.15039 -0.33496,-0.259765 -0.20508,-0.109375 -0.47168,-0.205078 -0.25976,-0.0957 -0.54004,-0.211914 -0.27343,-0.116211 -0.54004,-0.266602 -0.25976,-0.150391 -0.47168,-0.369141 -0.20507,-0.21875 -0.33496,-0.526367 -0.12304,-0.307617 -0.12304,-0.738281 0,-0.4375 0.1709,-0.799805 0.17089,-0.36914 0.49218,-0.628906 0.32129,-0.259766 0.7793,-0.40332 0.46484,-0.143555 1.03906,-0.143555 0.28711,0 0.55371,0.04102 0.27344,0.04102 0.49219,0.102539 0.21875,0.06152 0.36914,0.136719 0.15039,0.06836 0.21192,0.123046 0.0683,0.04785 0.0957,0.102539 0.0273,0.04785 0.041,0.123047 0.0137,0.06836 0.0205,0.177735 0.0137,0.102539 0.0137,0.259765 0,0.184571 -0.0137,0.300782 -0.007,0.116211 -0.0342,0.18457 -0.0205,0.06836 -0.0615,0.0957 -0.041,0.02051 -0.0957,0.02051 -0.0615,0 -0.19141,-0.06836 -0.12988,-0.0752 -0.32813,-0.157226 -0.1914,-0.08203 -0.45117,-0.150391 -0.25293,-0.0752 -0.58105,-0.0752 -0.23242,0 -0.40332,0.04785 -0.1709,0.04785 -0.28028,0.136718 -0.10937,0.08887 -0.16406,0.211914 -0.0547,0.116211 -0.0547,0.25293 0,0.211914 0.12989,0.355469 0.12988,0.143554 0.34179,0.252929 0.21192,0.109375 0.47852,0.205079 0.27344,0.0957 0.54687,0.211914 0.28028,0.109375 0.54688,0.259765 0.27344,0.150391 0.48535,0.369141 0.21192,0.21875 0.3418,0.526367 0.12988,0.300781 0.12988,0.717774 z"
     style="font-style:normal;font-variant:normal;font-weight:bold;font-stretch:normal;font-family:Calibri;-inkscape-font-specification:'Calibri Bold';text-align:center;text-anchor:middle;stroke-width:0.75"
     id="path876" /></g>
<g
   aria-label="11 ... 111"
   transform="scale(1,-1)"
   style="font-style:normal;font-variant:normal;font-weight:normal;font-stretch:normal;font-size:14px;line-height:1.25;font-family:Calibri;-inkscape-font-specification:Calibri;letter-spacing:0px;word-spacing:0px;fill:#000000;fill-opacity:1;stroke:none;stroke-width:0.75"
   id="text995-4"><path
     d="m 307.17239,-25.190454 q 0,0.191406 -0.0205,0.328125 -0.0205,0.129882 -0.0615,0.211914 -0.0342,0.07519 -0.082,0.109375 -0.0478,0.03418 -0.10937,0.03418 h -4.88086 q -0.0547,0 -0.10254,-0.03418 -0.0479,-0.03418 -0.0889,-0.109375 -0.0342,-0.08203 -0.0547,-0.211914 -0.0205,-0.136719 -0.0205,-0.328125 0,-0.198243 0.0137,-0.328125 0.0205,-0.136719 0.0547,-0.21875 0.041,-0.08203 0.0889,-0.116211 0.0478,-0.04102 0.10938,-0.04102 h 1.64746 v -5.755859 l -1.42188,0.786132 q -0.15722,0.0752 -0.25976,0.0957 -0.0957,0.01367 -0.15723,-0.04102 -0.0547,-0.06152 -0.0752,-0.205078 -0.0205,-0.143555 -0.0205,-0.403321 0,-0.164062 0.007,-0.266601 0.007,-0.109375 0.0342,-0.18457 0.0274,-0.0752 0.0752,-0.123047 0.0479,-0.04785 0.12988,-0.102539 l 1.90039,-1.230469 q 0.0342,-0.02734 0.082,-0.04102 0.0547,-0.02051 0.13672,-0.02734 0.082,-0.01367 0.21192,-0.01367 0.13671,-0.0068 0.34863,-0.0068 0.25976,0 0.41699,0.01367 0.16406,0.0068 0.24609,0.03418 0.082,0.02051 0.10938,0.06152 0.0273,0.04102 0.0273,0.102539 v 7.307617 h 1.44239 q 0.0615,0 0.10937,0.04102 0.0547,0.03418 0.0889,0.116211 0.041,0.08203 0.0547,0.21875 0.0205,0.129882 0.0205,0.328125 z"
     style="font-style:normal;font-variant:normal;font-weight:bold;font-stretch:normal;font-family:Calibri;-inkscape-font-specification:'Calibri Bold';text-align:center;text-anchor:middle;stroke-width:0.75"
     id="path879" /><path
     d="m 314.28177,-25.190454 q 0,0.191406 -0.0205,0.328125 -0.0205,0.129882 -0.0615,0.211914 -0.0342,0.07519 -0.082,0.109375 -0.0479,0.03418 -0.10938,0.03418 h -4.88086 q -0.0547,0 -0.10254,-0.03418 -0.0478,-0.03418 -0.0889,-0.109375 -0.0342,-0.08203 -0.0547,-0.211914 -0.0205,-0.136719 -0.0205,-0.328125 0,-0.198243 0.0137,-0.328125 0.0205,-0.136719 0.0547,-0.21875 0.041,-0.08203 0.0889,-0.116211 0.0478,-0.04102 0.10937,-0.04102 h 1.64746 v -5.755859 l -1.42187,0.786132 q -0.15723,0.0752 -0.25977,0.0957 -0.0957,0.01367 -0.15722,-0.04102 -0.0547,-0.06152 -0.0752,-0.205078 -0.0205,-0.143555 -0.0205,-0.403321 0,-0.164062 0.007,-0.266601 0.007,-0.109375 0.0342,-0.18457 0.0273,-0.0752 0.0752,-0.123047 0.0479,-0.04785 0.12989,-0.102539 l 1.90039,-1.230469 q 0.0342,-0.02734 0.082,-0.04102 0.0547,-0.02051 0.13672,-0.02734 0.082,-0.01367 0.21191,-0.01367 0.13672,-0.0068 0.34863,-0.0068 0.25977,0 0.417,0.01367 0.16406,0.0068 0.24609,0.03418 0.082,0.02051 0.10937,0.06152 0.0274,0.04102 0.0274,0.102539 v 7.307617 h 1.44238 q 0.0615,0 0.10938,0.04102 0.0547,0.03418 0.0889,0.116211 0.041,0.08203 0.0547,0.21875 0.0205,0.129882 0.0205,0.328125 z"
     style="font-style:normal;font-variant:normal;font-weight:bold;font-stretch:normal;font-family:Calibri;-inkscape-font-specification:'Calibri Bold';text-align:center;text-anchor:middle;stroke-width:0.75"
     id="path881" /><path
     d="m 320.99466,-25.491236 q 0,0.635742 -0.22559,0.854492 -0.21875,0.21875 -0.79297,0.21875 -0.57421,0 -0.79296,-0.211914 -0.21875,-0.21875 -0.21875,-0.820312 0,-0.642578 0.21875,-0.861328 0.22558,-0.21875 0.80664,-0.21875 0.56738,0 0.78613,0.21875 0.21875,0.211914 0.21875,0.820312 z"
     style="font-style:normal;font-variant:normal;font-weight:bold;font-stretch:normal;font-family:Calibri;-inkscape-font-specification:'Calibri Bold';text-align:center;text-anchor:middle;stroke-width:0.75"
     id="path883" /><path
     d="m 324.74075,-25.491236 q 0,0.635742 -0.22558,0.854492 -0.21875,0.21875 -0.79297,0.21875 -0.57422,0 -0.79297,-0.211914 -0.21875,-0.21875 -0.21875,-0.820312 0,-0.642578 0.21875,-0.861328 0.22559,-0.21875 0.80664,-0.21875 0.56738,0 0.78613,0.21875 0.21875,0.211914 0.21875,0.820312 z"
     style="font-style:normal;font-variant:normal;font-weight:bold;font-stretch:normal;font-family:Calibri;-inkscape-font-specification:'Calibri Bold';text-align:center;text-anchor:middle;stroke-width:0.75"
     id="path885" /><path
     d="m 328.48685,-25.491236 q 0,0.635742 -0.22559,0.854492 -0.21875,0.21875 -0.79297,0.21875 -0.57422,0 -0.79297,-0.211914 -0.21875,-0.21875 -0.21875,-0.820312 0,-0.642578 0.21875,-0.861328 0.22559,-0.21875 0.80664,-0.21875 0.56739,0 0.78614,0.21875 0.21875,0.211914 0.21875,0.820312 z"
     style="font-style:normal;font-variant:normal;font-weight:bold;font-stretch:normal;font-family:Calibri;-inkscape-font-specification:'Calibri Bold';text-align:center;text-anchor:middle;stroke-width:0.75"
     id="path887" /><path
     d="m 338.97318,-25.190454 q 0,0.191406 -0.0205,0.328125 -0.0205,0.129882 -0.0615,0.211914 -0.0342,0.07519 -0.082,0.109375 -0.0478,0.03418 -0.10937,0.03418 h -4.88086 q -0.0547,0 -0.10254,-0.03418 -0.0478,-0.03418 -0.0889,-0.109375 -0.0342,-0.08203 -0.0547,-0.211914 -0.0205,-0.136719 -0.0205,-0.328125 0,-0.198243 0.0137,-0.328125 0.0205,-0.136719 0.0547,-0.21875 0.041,-0.08203 0.0889,-0.116211 0.0478,-0.04102 0.10938,-0.04102 h 1.64746 v -5.755859 l -1.42188,0.786132 q -0.15722,0.0752 -0.25976,0.0957 -0.0957,0.01367 -0.15723,-0.04102 -0.0547,-0.06152 -0.0752,-0.205078 -0.0205,-0.143555 -0.0205,-0.403321 0,-0.164062 0.007,-0.266601 0.007,-0.109375 0.0342,-0.18457 0.0273,-0.0752 0.0752,-0.123047 0.0478,-0.04785 0.12988,-0.102539 l 1.90039,-1.230469 q 0.0342,-0.02734 0.082,-0.04102 0.0547,-0.02051 0.13672,-0.02734 0.082,-0.01367 0.21192,-0.01367 0.13672,-0.0068 0.34863,-0.0068 0.25977,0 0.41699,0.01367 0.16406,0.0068 0.2461,0.03418 0.082,0.02051 0.10937,0.06152 0.0273,0.04102 0.0273,0.102539 v 7.307617 h 1.44239 q 0.0615,0 0.10937,0.04102 0.0547,0.03418 0.0889,0.116211 0.041,0.08203 0.0547,0.21875 0.0205,0.129882 0.0205,0.328125 z"
     style="font-style:normal;font-variant:normal;font-weight:bold;font-stretch:normal;font-family:Calibri;-inkscape-font-specification:'Calibri Bold';text-align:center;text-anchor:middle;stroke-width:0.75"
     id="path889" /><path
     d="m 346.08255,-25.190454 q 0,0.191406 -0.0205,0.328125 -0.0205,0.129882 -0.0615,0.211914 -0.0342,0.07519 -0.082,0.109375 -0.0479,0.03418 -0.10938,0.03418 h -4.88086 q -0.0547,0 -0.10254,-0.03418 -0.0479,-0.03418 -0.0889,-0.109375 -0.0342,-0.08203 -0.0547,-0.211914 -0.0205,-0.136719 -0.0205,-0.328125 0,-0.198243 0.0137,-0.328125 0.0205,-0.136719 0.0547,-0.21875 0.041,-0.08203 0.0889,-0.116211 0.0479,-0.04102 0.10937,-0.04102 h 1.64746 v -5.755859 l -1.42187,0.786132 q -0.15723,0.0752 -0.25977,0.0957 -0.0957,0.01367 -0.15722,-0.04102 -0.0547,-0.06152 -0.0752,-0.205078 -0.0205,-0.143555 -0.0205,-0.403321 0,-0.164062 0.007,-0.266601 0.007,-0.109375 0.0342,-0.18457 0.0273,-0.0752 0.0752,-0.123047 0.0479,-0.04785 0.12989,-0.102539 l 1.90039,-1.230469 q 0.0342,-0.02734 0.082,-0.04102 0.0547,-0.02051 0.13672,-0.02734 0.082,-0.01367 0.21191,-0.01367 0.13672,-0.0068 0.34864,-0.0068 0.25976,0 0.41699,0.01367 0.16406,0.0068 0.24609,0.03418 0.082,0.02051 0.10938,0.06152 0.0273,0.04102 0.0273,0.102539 v 7.307617 h 1.44238 q 0.0615,0 0.10938,0.04102 0.0547,0.03418 0.0889,0.116211 0.041,0.08203 0.0547,0.21875 0.0205,0.129882 0.0205,0.328125 z"
     style="font-style:normal;font-variant:normal;font-weight:bold;font-stretch:normal;font-family:Calibri;-inkscape-font-specification:'Calibri Bold';text-align:center;text-anchor:middle;stroke-width:0.75"
     id="path891" /><path
     d="m 353.19193,-25.190454 q 0,0.191406 -0.0205,0.328125 -0.0205,0.129882 -0.0615,0.211914 -0.0342,0.07519 -0.082,0.109375 -0.0478,0.03418 -0.10937,0.03418 h -4.88086 q -0.0547,0 -0.10254,-0.03418 -0.0478,-0.03418 -0.0889,-0.109375 -0.0342,-0.08203 -0.0547,-0.211914 -0.0205,-0.136719 -0.0205,-0.328125 0,-0.198243 0.0137,-0.328125 0.0205,-0.136719 0.0547,-0.21875 0.041,-0.08203 0.0889,-0.116211 0.0478,-0.04102 0.10938,-0.04102 h 1.64746 v -5.755859 l -1.42188,0.786132 q -0.15722,0.0752 -0.25976,0.0957 -0.0957,0.01367 -0.15723,-0.04102 -0.0547,-0.06152 -0.0752,-0.205078 -0.0205,-0.143555 -0.0205,-0.403321 0,-0.164062 0.007,-0.266601 0.007,-0.109375 0.0342,-0.18457 0.0273,-0.0752 0.0752,-0.123047 0.0478,-0.04785 0.12988,-0.102539 l 1.90039,-1.230469 q 0.0342,-0.02734 0.082,-0.04102 0.0547,-0.02051 0.13672,-0.02734 0.082,-0.01367 0.21192,-0.01367 0.13672,-0.0068 0.34863,-0.0068 0.25977,0 0.41699,0.01367 0.16406,0.0068 0.2461,0.03418 0.082,0.02051 0.10937,0.06152 0.0273,0.04102 0.0273,0.102539 v 7.307617 h 1.44239 q 0.0615,0 0.10937,0.04102 0.0547,0.03418 0.0889,0.116211 0.041,0.08203 0.0547,0.21875 0.0205,0.129882 0.0205,0.328125 z"
     style="font-style:normal;font-variant:normal;font-weight:bold;font-stretch:normal;font-family:Calibri;-inkscape-font-specification:'Calibri Bold';text-align:center;text-anchor:middle;stroke-width:0.75"
     id="path893" /></g>
<g
   aria-label="00 ... 000"
   transform="scale(1,-1)"
   style="font-style:normal;font-variant:normal;font-weight:normal;font-stretch:normal;font-size:14px;line-height:1.25;font-family:Calibri;-inkscape-font-specification:Calibri;letter-spacing:0px;word-spacing:0px;fill:#000000;fill-opacity:1;stroke:none;stroke-width:0.75"
   id="text995-4-9"><path
     d="m 135.1951,-28.95022 q 0,1.05957 -0.1709,1.914062 -0.1709,0.854493 -0.56055,1.456055 -0.38281,0.601563 -1.00488,0.922852 -0.61523,0.321289 -1.51074,0.321289 -0.90918,0 -1.50391,-0.307617 -0.59472,-0.314454 -0.94336,-0.895508 -0.34863,-0.587891 -0.49218,-1.428711 -0.13672,-0.847656 -0.13672,-1.914063 0,-1.052734 0.1709,-1.907226 0.17773,-0.861328 0.56054,-1.462891 0.38965,-0.601562 1.00488,-0.922851 0.62208,-0.32129 1.51075,-0.32129 0.90918,0 1.5039,0.314454 0.60157,0.307617 0.9502,0.895507 0.34863,0.581055 0.48535,1.428711 0.13672,0.840821 0.13672,1.907227 z m -1.81152,0.08887 q 0,-0.628906 -0.0342,-1.107422 -0.0342,-0.485351 -0.10938,-0.84082 -0.0684,-0.355469 -0.17773,-0.601563 -0.10254,-0.246093 -0.25293,-0.389648 -0.15039,-0.150391 -0.3418,-0.211914 -0.19141,-0.06152 -0.42383,-0.06152 -0.40332,0 -0.66992,0.198243 -0.25977,0.191406 -0.41699,0.581054 -0.15039,0.389649 -0.21192,0.970703 -0.0615,0.581055 -0.0615,1.353516 0,0.943359 0.0752,1.56543 0.0752,0.615234 0.23242,0.984375 0.16406,0.362304 0.41699,0.512695 0.25293,0.143555 0.6084,0.143555 0.2666,0 0.47168,-0.08203 0.20508,-0.08887 0.35547,-0.259766 0.15722,-0.170899 0.25976,-0.430664 0.10254,-0.259766 0.16406,-0.601563 0.0684,-0.341797 0.0889,-0.772461 0.0273,-0.430664 0.0273,-0.950195 z"
     style="font-style:normal;font-variant:normal;font-weight:bold;font-stretch:normal;font-family:Calibri;-inkscape-font-specification:'Calibri Bold';text-align:center;text-anchor:middle;stroke-width:0.75"
     id="path896" /><path
     d="m 142.30447,-28.95022 q 0,1.05957 -0.17089,1.914062 -0.1709,0.854493 -0.56055,1.456055 -0.38281,0.601563 -1.00488,0.922852 -0.61524,0.321289 -1.51075,0.321289 -0.90918,0 -1.5039,-0.307617 -0.59473,-0.314454 -0.94336,-0.895508 -0.34863,-0.587891 -0.49219,-1.428711 -0.13672,-0.847656 -0.13672,-1.914063 0,-1.052734 0.1709,-1.907226 0.17773,-0.861328 0.56055,-1.462891 0.38965,-0.601562 1.00488,-0.922851 0.62207,-0.32129 1.51074,-0.32129 0.90918,0 1.50391,0.314454 0.60156,0.307617 0.95019,0.895507 0.34864,0.581055 0.48536,1.428711 0.13671,0.840821 0.13671,1.907227 z m -1.81152,0.08887 q 0,-0.628906 -0.0342,-1.107422 -0.0342,-0.485351 -0.10937,-0.84082 -0.0684,-0.355469 -0.17774,-0.601563 -0.10254,-0.246093 -0.25293,-0.389648 -0.15039,-0.150391 -0.3418,-0.211914 -0.1914,-0.06152 -0.42382,-0.06152 -0.40332,0 -0.66993,0.198243 -0.25976,0.191406 -0.41699,0.581054 -0.15039,0.389649 -0.21191,0.970703 -0.0615,0.581055 -0.0615,1.353516 0,0.943359 0.0752,1.56543 0.0752,0.615234 0.23242,0.984375 0.16406,0.362304 0.41699,0.512695 0.25293,0.143555 0.6084,0.143555 0.2666,0 0.47168,-0.08203 0.20508,-0.08887 0.35547,-0.259766 0.15723,-0.170899 0.25977,-0.430664 0.10254,-0.259766 0.16406,-0.601563 0.0684,-0.341797 0.0889,-0.772461 0.0273,-0.430664 0.0273,-0.950195 z"
     style="font-style:normal;font-variant:normal;font-weight:bold;font-stretch:normal;font-family:Calibri;-inkscape-font-specification:'Calibri Bold';text-align:center;text-anchor:middle;stroke-width:0.75"
     id="path898" /><path
     d="m 148.7576,-25.477564 q 0,0.635742 -0.22559,0.854492 -0.21875,0.21875 -0.79297,0.21875 -0.57421,0 -0.79296,-0.211914 -0.21875,-0.21875 -0.21875,-0.820312 0,-0.642578 0.21875,-0.861328 0.22558,-0.21875 0.80664,-0.21875 0.56738,0 0.78613,0.21875 0.21875,0.211914 0.21875,0.820312 z"
     style="font-style:normal;font-variant:normal;font-weight:bold;font-stretch:normal;font-family:Calibri;-inkscape-font-specification:'Calibri Bold';text-align:center;text-anchor:middle;stroke-width:0.75"
     id="path900" /><path
     d="m 152.50369,-25.477564 q 0,0.635742 -0.22558,0.854492 -0.21875,0.21875 -0.79297,0.21875 -0.57422,0 -0.79297,-0.211914 -0.21875,-0.21875 -0.21875,-0.820312 0,-0.642578 0.21875,-0.861328 0.22559,-0.21875 0.80664,-0.21875 0.56738,0 0.78613,0.21875 0.21875,0.211914 0.21875,0.820312 z"
     style="font-style:normal;font-variant:normal;font-weight:bold;font-stretch:normal;font-family:Calibri;-inkscape-font-specification:'Calibri Bold';text-align:center;text-anchor:middle;stroke-width:0.75"
     id="path902" /><path
     d="m 156.24979,-25.477564 q 0,0.635742 -0.22559,0.854492 -0.21875,0.21875 -0.79297,0.21875 -0.57422,0 -0.79297,-0.211914 -0.21875,-0.21875 -0.21875,-0.820312 0,-0.642578 0.21875,-0.861328 0.22559,-0.21875 0.80664,-0.21875 0.56739,0 0.78614,0.21875 0.21875,0.211914 0.21875,0.820312 z"
     style="font-style:normal;font-variant:normal;font-weight:bold;font-stretch:normal;font-family:Calibri;-inkscape-font-specification:'Calibri Bold';text-align:center;text-anchor:middle;stroke-width:0.75"
     id="path904" /><path
     d="m 166.99588,-28.95022 q 0,1.05957 -0.1709,1.914062 -0.1709,0.854493 -0.56055,1.456055 -0.38281,0.601563 -1.00488,0.922852 -0.61523,0.321289 -1.51074,0.321289 -0.90918,0 -1.50391,-0.307617 -0.59472,-0.314454 -0.94336,-0.895508 -0.34863,-0.587891 -0.49218,-1.428711 -0.13672,-0.847656 -0.13672,-1.914063 0,-1.052734 0.1709,-1.907226 0.17773,-0.861328 0.56054,-1.462891 0.38965,-0.601562 1.00489,-0.922851 0.62207,-0.32129 1.51074,-0.32129 0.90918,0 1.5039,0.314454 0.60157,0.307617 0.9502,0.895507 0.34863,0.581055 0.48535,1.428711 0.13672,0.840821 0.13672,1.907227 z m -1.81152,0.08887 q 0,-0.628906 -0.0342,-1.107422 -0.0342,-0.485351 -0.10938,-0.84082 -0.0684,-0.355469 -0.17773,-0.601563 -0.10254,-0.246093 -0.25293,-0.389648 -0.15039,-0.150391 -0.3418,-0.211914 -0.19141,-0.06152 -0.42383,-0.06152 -0.40332,0 -0.66992,0.198243 -0.25976,0.191406 -0.41699,0.581054 -0.15039,0.389649 -0.21192,0.970703 -0.0615,0.581055 -0.0615,1.353516 0,0.943359 0.0752,1.56543 0.0752,0.615234 0.23242,0.984375 0.16406,0.362304 0.41699,0.512695 0.25293,0.143555 0.6084,0.143555 0.2666,0 0.47168,-0.08203 0.20508,-0.08887 0.35547,-0.259766 0.15722,-0.170899 0.25976,-0.430664 0.10254,-0.259766 0.16407,-0.601563 0.0684,-0.341797 0.0889,-0.772461 0.0273,-0.430664 0.0273,-0.950195 z"
     style="font-style:normal;font-variant:normal;font-weight:bold;font-stretch:normal;font-family:Calibri;-inkscape-font-specification:'Calibri Bold';text-align:center;text-anchor:middle;stroke-width:0.75"
     id="path906" /><path
     d="m 174.10526,-28.95022 q 0,1.05957 -0.1709,1.914062 -0.1709,0.854493 -0.56055,1.456055 -0.38281,0.601563 -1.00488,0.922852 -0.61524,0.321289 -1.51075,0.321289 -0.90917,0 -1.5039,-0.307617 -0.59473,-0.314454 -0.94336,-0.895508 -0.34863,-0.587891 -0.49219,-1.428711 -0.13672,-0.847656 -0.13672,-1.914063 0,-1.052734 0.1709,-1.907226 0.17774,-0.861328 0.56055,-1.462891 0.38965,-0.601562 1.00488,-0.922851 0.62207,-0.32129 1.51074,-0.32129 0.90918,0 1.50391,0.314454 0.60156,0.307617 0.95019,0.895507 0.34864,0.581055 0.48536,1.428711 0.13672,0.840821 0.13672,1.907227 z m -1.81153,0.08887 q 0,-0.628906 -0.0342,-1.107422 -0.0342,-0.485351 -0.10937,-0.84082 -0.0684,-0.355469 -0.17774,-0.601563 -0.10254,-0.246093 -0.25293,-0.389648 -0.15039,-0.150391 -0.34179,-0.211914 -0.19141,-0.06152 -0.42383,-0.06152 -0.40332,0 -0.66992,0.198243 -0.25977,0.191406 -0.417,0.581054 -0.15039,0.389649 -0.21191,0.970703 -0.0615,0.581055 -0.0615,1.353516 0,0.943359 0.0752,1.56543 0.0752,0.615234 0.23242,0.984375 0.16407,0.362304 0.417,0.512695 0.25293,0.143555 0.60839,0.143555 0.26661,0 0.47168,-0.08203 0.20508,-0.08887 0.35547,-0.259766 0.15723,-0.170899 0.25977,-0.430664 0.10254,-0.259766 0.16406,-0.601563 0.0684,-0.341797 0.0889,-0.772461 0.0273,-0.430664 0.0273,-0.950195 z"
     style="font-style:normal;font-variant:normal;font-weight:bold;font-stretch:normal;font-family:Calibri;-inkscape-font-specification:'Calibri Bold';text-align:center;text-anchor:middle;stroke-width:0.75"
     id="path908" /><path
     d="m 181.21463,-28.95022 q 0,1.05957 -0.1709,1.914062 -0.1709,0.854493 -0.56055,1.456055 -0.38281,0.601563 -1.00488,0.922852 -0.61523,0.321289 -1.51074,0.321289 -0.90918,0 -1.50391,-0.307617 -0.59472,-0.314454 -0.94336,-0.895508 -0.34863,-0.587891 -0.49218,-1.428711 -0.13672,-0.847656 -0.13672,-1.914063 0,-1.052734 0.1709,-1.907226 0.17773,-0.861328 0.56054,-1.462891 0.38965,-0.601562 1.00489,-0.922851 0.62207,-0.32129 1.51074,-0.32129 0.90918,0 1.5039,0.314454 0.60157,0.307617 0.9502,0.895507 0.34863,0.581055 0.48535,1.428711 0.13672,0.840821 0.13672,1.907227 z m -1.81152,0.08887 q 0,-0.628906 -0.0342,-1.107422 -0.0342,-0.485351 -0.10938,-0.84082 -0.0684,-0.355469 -0.17773,-0.601563 -0.10254,-0.246093 -0.25293,-0.389648 -0.15039,-0.150391 -0.3418,-0.211914 -0.19141,-0.06152 -0.42383,-0.06152 -0.40332,0 -0.66992,0.198243 -0.25976,0.191406 -0.41699,0.581054 -0.15039,0.389649 -0.21192,0.970703 -0.0615,0.581055 -0.0615,1.353516 0,0.943359 0.0752,1.56543 0.0752,0.615234 0.23242,0.984375 0.16406,0.362304 0.41699,0.512695 0.25293,0.143555 0.6084,0.143555 0.2666,0 0.47168,-0.08203 0.20508,-0.08887 0.35547,-0.259766 0.15722,-0.170899 0.25976,-0.430664 0.10254,-0.259766 0.16407,-0.601563 0.0684,-0.341797 0.0889,-0.772461 0.0273,-0.430664 0.0273,-0.950195 z"
     style="font-style:normal;font-variant:normal;font-weight:bold;font-stretch:normal;font-family:Calibri;-inkscape-font-specification:'Calibri Bold';text-align:center;text-anchor:middle;stroke-width:0.75"
     id="path910" /></g>
<g
   aria-label="80 bits"
   transform="scale(1,-1)"
   style="font-style:normal;font-variant:normal;font-weight:normal;font-stretch:normal;font-size:16px;line-height:1.25;font-family:Calibri;-inkscape-font-specification:Calibri;letter-spacing:0px;word-spacing:0px;direction:rtl;fill:#000000;fill-opacity:1;stroke:none;stroke-width:0.75"
   id="text995-4-9-7"><path
     d="m 140.68777,-60.462215 q 0,0.65625 -0.23437,1.171875 -0.23438,0.507812 -0.67969,0.859375 -0.4375,0.351562 -1.08594,0.53125 -0.64843,0.179687 -1.48437,0.179687 -0.78125,0 -1.39844,-0.164062 -0.61719,-0.164063 -1.04687,-0.484375 -0.42969,-0.320313 -0.65625,-0.789063 -0.22657,-0.46875 -0.22657,-1.070312 0,-0.476563 0.15625,-0.875 0.15625,-0.398438 0.44532,-0.734375 0.29687,-0.335938 0.72656,-0.625 0.42969,-0.296875 0.96875,-0.5625 -0.46875,-0.242188 -0.82813,-0.507813 -0.35937,-0.273437 -0.60937,-0.585937 -0.25,-0.320313 -0.38281,-0.679688 -0.125,-0.359375 -0.125,-0.78125 0,-0.53125 0.1875,-0.992187 0.19531,-0.46875 0.57812,-0.8125 0.39063,-0.34375 0.98438,-0.539063 0.60156,-0.203125 1.39843,-0.203125 0.76563,0 1.32032,0.1875 0.5625,0.179688 0.92187,0.5 0.36719,0.3125 0.53906,0.742188 0.17188,0.429687 0.17188,0.921875 0,0.398437 -0.13281,0.765625 -0.125,0.367187 -0.375,0.695312 -0.25,0.328125 -0.61719,0.617188 -0.35938,0.28125 -0.82813,0.53125 0.55469,0.273437 0.98438,0.5625 0.4375,0.289062 0.72656,0.625 0.29688,0.328125 0.44531,0.703125 0.15625,0.367187 0.15625,0.8125 z m -1.6875,-5.1875 q 0,-0.328125 -0.11718,-0.59375 -0.10938,-0.265625 -0.32813,-0.453125 -0.21875,-0.1875 -0.54687,-0.28125 -0.32032,-0.101563 -0.73438,-0.101563 -0.84375,0 -1.28125,0.382813 -0.42969,0.382812 -0.42969,1.046875 0,0.304687 0.10157,0.570312 0.10937,0.257813 0.32812,0.492188 0.22656,0.234375 0.5625,0.460937 0.34375,0.21875 0.8125,0.460938 0.78906,-0.40625 1.21094,-0.898438 0.42187,-0.492187 0.42187,-1.085937 z m 0.32813,5.328125 q 0,-0.359375 -0.13281,-0.648438 -0.13282,-0.296875 -0.40625,-0.546875 -0.26563,-0.257812 -0.67188,-0.492187 -0.39844,-0.242188 -0.92969,-0.5 -0.49218,0.242187 -0.86718,0.484375 -0.36719,0.242187 -0.60938,0.5 -0.23437,0.257812 -0.35937,0.546875 -0.11719,0.28125 -0.11719,0.625 0,0.757812 0.51562,1.171875 0.52344,0.414062 1.55469,0.414062 1,0 1.50781,-0.414062 0.51563,-0.421875 0.51563,-1.140625 z"
     style="font-style:normal;font-variant:normal;font-weight:normal;font-stretch:normal;font-family:Calibri;-inkscape-font-specification:Calibri;text-align:center;direction:ltr;text-anchor:middle;stroke-width:0.75"
     id="path913" /><path
     d="m 148.91434,-62.94659 q 0,1.164062 -0.1875,2.125 -0.17969,0.960937 -0.60938,1.65625 -0.42187,0.6875 -1.10937,1.070312 -0.6875,0.375 -1.69532,0.375 -0.95312,0 -1.60937,-0.335937 -0.64844,-0.34375 -1.04688,-1 -0.39843,-0.664063 -0.57031,-1.625 -0.16406,-0.96875 -0.16406,-2.21875 0,-1.15625 0.1875,-2.117188 0.1875,-0.96875 0.60937,-1.65625 0.42188,-0.695312 1.10938,-1.070312 0.6875,-0.382813 1.6875,-0.382813 0.96094,0 1.60937,0.34375 0.65625,0.335938 1.05469,1 0.39844,0.65625 0.5625,1.625 0.17188,0.960938 0.17188,2.210938 z m -1.375,0.09375 q 0,-0.757813 -0.0547,-1.359375 -0.0547,-0.601563 -0.16406,-1.0625 -0.10157,-0.460938 -0.27344,-0.789063 -0.16406,-0.335937 -0.39844,-0.546875 -0.23437,-0.21875 -0.53906,-0.3125 -0.29688,-0.101562 -0.67188,-0.101562 -0.66406,0 -1.07812,0.3125 -0.41406,0.3125 -0.65625,0.859375 -0.23438,0.546875 -0.32031,1.28125 -0.0859,0.734375 -0.0859,1.578125 0,1.132812 0.11719,1.929687 0.11718,0.789063 0.36718,1.289063 0.25782,0.5 0.64844,0.726562 0.39844,0.226563 0.96094,0.226563 0.4375,0 0.76562,-0.140625 0.33594,-0.140625 0.57032,-0.398438 0.24218,-0.265625 0.39843,-0.632812 0.15625,-0.367188 0.25,-0.8125 0.0937,-0.445313 0.125,-0.960938 0.0391,-0.523437 0.0391,-1.085937 z"
     style="font-style:normal;font-variant:normal;font-weight:normal;font-stretch:normal;font-family:Calibri;-inkscape-font-specification:Calibri;text-align:center;direction:ltr;text-anchor:middle;stroke-width:0.75"
     id="path915" /><path
     d="m 160.77371,-61.673153 q 0,0.914063 -0.20312,1.648438 -0.19532,0.726562 -0.58594,1.242187 -0.38281,0.515625 -0.94531,0.789063 -0.5625,0.273437 -1.28907,0.273437 -0.33593,0 -0.625,-0.07031 -0.28125,-0.0625 -0.55468,-0.210938 -0.27344,-0.148437 -0.54688,-0.375 -0.27344,-0.226562 -0.57812,-0.546875 v 0.859375 q 0,0.0625 -0.0312,0.109375 -0.0312,0.04687 -0.10157,0.07813 -0.0703,0.02344 -0.17968,0.03906 -0.10157,0.01563 -0.26563,0.01563 -0.15625,0 -0.26562,-0.01563 -0.10938,-0.01563 -0.17969,-0.03906 -0.0703,-0.03125 -0.0937,-0.07813 -0.0234,-0.04687 -0.0234,-0.109375 v -10.4375 q 0,-0.0625 0.0234,-0.109375 0.0312,-0.04687 0.10156,-0.07813 0.0781,-0.03125 0.20313,-0.04687 0.125,-0.01563 0.3125,-0.01563 0.19531,0 0.32031,0.01563 0.125,0.01563 0.19531,0.04687 0.0703,0.03125 0.10156,0.07813 0.0312,0.04687 0.0312,0.109375 v 4.210938 q 0.3125,-0.320313 0.60157,-0.539063 0.29687,-0.21875 0.57812,-0.351562 0.28125,-0.140625 0.5625,-0.203125 0.28125,-0.0625 0.59375,-0.0625 0.76563,0 1.30469,0.304687 0.54687,0.304688 0.88281,0.820313 0.34375,0.507812 0.5,1.195312 0.15625,0.6875 0.15625,1.453125 z m -1.35937,0.148438 q 0,-0.539063 -0.0859,-1.046875 -0.0781,-0.507813 -0.28125,-0.898438 -0.20313,-0.390625 -0.53906,-0.625 -0.33594,-0.242187 -0.83594,-0.242187 -0.25,0 -0.49219,0.07031 -0.24219,0.07031 -0.49219,0.234375 -0.25,0.164063 -0.52343,0.421875 -0.26563,0.257813 -0.57032,0.648438 v 2.804687 q 0.53125,0.648438 1.01563,0.992188 0.48437,0.335937 1.00781,0.335937 0.48438,0 0.82813,-0.234375 0.34375,-0.234375 0.55468,-0.617187 0.21875,-0.390625 0.3125,-0.867188 0.10157,-0.484375 0.10157,-0.976562 z"
     style="font-style:normal;font-variant:normal;font-weight:normal;font-stretch:normal;font-family:Calibri;-inkscape-font-specification:Calibri;text-align:center;direction:ltr;text-anchor:middle;stroke-width:0.75"
     id="path917" /><path
     d="m 164.00027,-58.063778 q 0,0.0625 -0.0312,0.109375 -0.0312,0.03906 -0.10156,0.07031 -0.0703,0.03125 -0.19531,0.04687 -0.125,0.01563 -0.32031,0.01563 -0.1875,0 -0.3125,-0.01563 -0.125,-0.01563 -0.20313,-0.04687 -0.0703,-0.03125 -0.10156,-0.07031 -0.0234,-0.04687 -0.0234,-0.109375 v -7.03125 q 0,-0.05469 0.0234,-0.101562 0.0312,-0.04687 0.10156,-0.07813 0.0781,-0.03125 0.20313,-0.04687 0.125,-0.01563 0.3125,-0.01563 0.19531,0 0.32031,0.01563 0.125,0.01563 0.19531,0.04687 0.0703,0.03125 0.10156,0.07813 0.0312,0.04687 0.0312,0.101562 z m 0.14844,-9.40625 q 0,0.453125 -0.17187,0.617188 -0.17188,0.164062 -0.63282,0.164062 -0.45312,0 -0.625,-0.15625 -0.16406,-0.164062 -0.16406,-0.609375 0,-0.453125 0.17188,-0.617187 0.17187,-0.164063 0.63281,-0.164063 0.45312,0 0.61719,0.164063 0.17187,0.15625 0.17187,0.601562 z"
     style="font-style:normal;font-variant:normal;font-weight:normal;font-stretch:normal;font-family:Calibri;-inkscape-font-specification:Calibri;text-align:center;direction:ltr;text-anchor:middle;stroke-width:0.75"
     id="path919" /><path
     d="m 170.05496,-58.579403 q 0,0.226563 -0.0312,0.359375 -0.0312,0.132813 -0.0937,0.195313 -0.0625,0.0625 -0.1875,0.117187 -0.125,0.05469 -0.28906,0.08594 -0.15625,0.03906 -0.33594,0.0625 -0.17969,0.02344 -0.35937,0.02344 -0.54688,0 -0.9375,-0.140625 -0.39063,-0.148437 -0.64063,-0.4375 -0.25,-0.296875 -0.36719,-0.742187 -0.10937,-0.453125 -0.10937,-1.0625 v -4.109375 h -0.98438 q -0.11718,0 -0.1875,-0.125 -0.0703,-0.125 -0.0703,-0.40625 0,-0.148438 0.0156,-0.25 0.0234,-0.101563 0.0547,-0.164063 0.0312,-0.07031 0.0781,-0.09375 0.0547,-0.03125 0.11719,-0.03125 h 0.97656 v -1.671875 q 0,-0.05469 0.0234,-0.101562 0.0312,-0.04687 0.10156,-0.07813 0.0781,-0.03906 0.20312,-0.05469 0.125,-0.01563 0.3125,-0.01563 0.19532,0 0.32032,0.01563 0.125,0.01563 0.19531,0.05469 0.0703,0.03125 0.10156,0.07813 0.0312,0.04687 0.0312,0.101562 v 1.671875 h 1.80469 q 0.0625,0 0.10937,0.03125 0.0469,0.02344 0.0781,0.09375 0.0391,0.0625 0.0547,0.164063 0.0156,0.101562 0.0156,0.25 0,0.28125 -0.0703,0.40625 -0.0703,0.125 -0.1875,0.125 h -1.80469 v 3.921875 q 0,0.726562 0.21094,1.101562 0.21875,0.367188 0.77344,0.367188 0.17968,0 0.32031,-0.03125 0.14062,-0.03906 0.25,-0.07813 0.10937,-0.03906 0.1875,-0.07031 0.0781,-0.03906 0.14062,-0.03906 0.0391,0 0.0703,0.02344 0.0391,0.01563 0.0547,0.07031 0.0234,0.05469 0.0391,0.148437 0.0156,0.09375 0.0156,0.234375 z"
     style="font-style:normal;font-variant:normal;font-weight:normal;font-stretch:normal;font-family:Calibri;-inkscape-font-specification:Calibri;text-align:center;direction:ltr;text-anchor:middle;stroke-width:0.75"
     id="path921" /><path
     d="m 176.18777,-59.97784 q 0,0.539062 -0.20312,0.960937 -0.19531,0.421875 -0.5625,0.710938 -0.36719,0.289062 -0.875,0.4375 -0.50781,0.148437 -1.11719,0.148437 -0.375,0 -0.71875,-0.0625 -0.33594,-0.05469 -0.60937,-0.140625 -0.26563,-0.09375 -0.45313,-0.1875 -0.1875,-0.101562 -0.27344,-0.179687 -0.0859,-0.07813 -0.125,-0.21875 -0.0391,-0.140625 -0.0391,-0.382813 0,-0.148437 0.0156,-0.25 0.0156,-0.101562 0.0391,-0.164062 0.0234,-0.0625 0.0625,-0.08594 0.0469,-0.03125 0.10156,-0.03125 0.0859,0 0.25,0.109375 0.17188,0.101563 0.41406,0.226563 0.25,0.125 0.58594,0.234375 0.33594,0.101562 0.77344,0.101562 0.32812,0 0.59375,-0.07031 0.26562,-0.07031 0.46094,-0.203125 0.19531,-0.140625 0.29687,-0.351563 0.10938,-0.210937 0.10938,-0.5 0,-0.296875 -0.15625,-0.5 -0.14844,-0.203125 -0.39844,-0.359375 -0.25,-0.15625 -0.5625,-0.273437 -0.3125,-0.125 -0.64844,-0.257813 -0.32812,-0.132812 -0.64844,-0.296875 -0.3125,-0.171875 -0.5625,-0.414062 -0.25,-0.242188 -0.40625,-0.578125 -0.14843,-0.335938 -0.14843,-0.804688 0,-0.414062 0.15625,-0.789062 0.16406,-0.382813 0.48437,-0.664063 0.32031,-0.289062 0.79688,-0.460937 0.48437,-0.171875 1.125,-0.171875 0.28125,0 0.5625,0.04687 0.28125,0.04687 0.50781,0.117187 0.22656,0.07031 0.38281,0.15625 0.16406,0.07813 0.24219,0.140625 0.0859,0.0625 0.10937,0.109375 0.0312,0.04687 0.0391,0.109375 0.0156,0.05469 0.0234,0.140625 0.0156,0.08594 0.0156,0.210938 0,0.132812 -0.0156,0.234375 -0.008,0.09375 -0.0391,0.15625 -0.0234,0.0625 -0.0625,0.09375 -0.0391,0.02344 -0.0859,0.02344 -0.0703,0 -0.20312,-0.08594 -0.13281,-0.08594 -0.34375,-0.179688 -0.21094,-0.101562 -0.5,-0.1875 -0.28125,-0.08594 -0.64844,-0.08594 -0.32812,0 -0.57812,0.07813 -0.25,0.07031 -0.41407,0.210937 -0.15625,0.132813 -0.24218,0.320313 -0.0781,0.1875 -0.0781,0.40625 0,0.304687 0.15625,0.515625 0.15625,0.203125 0.40625,0.359375 0.25,0.15625 0.57031,0.28125 0.32032,0.125 0.64844,0.257812 0.33594,0.132813 0.65625,0.296875 0.32813,0.164063 0.57813,0.398438 0.25,0.234375 0.39843,0.5625 0.15625,0.328125 0.15625,0.78125 z"
     style="font-style:normal;font-variant:normal;font-weight:normal;font-stretch:normal;font-family:Calibri;-inkscape-font-specification:Calibri;text-align:center;direction:ltr;text-anchor:middle;stroke-width:0.75"
     id="path923" /></g>
<g
   aria-label="16 bits"
   transform="scale(1,-1)"
   style="font-style:normal;font-variant:normal;font-weight:normal;font-stretch:normal;font-size:15.99999905px;line-height:1.25;font-family:Calibri;-inkscape-font-specification:Calibri;letter-spacing:0px;word-spacing:0px;direction:rtl;fill:#000000;fill-opacity:1;stroke:none;stroke-width:0.75"
   id="text995-4-9-7-2"><path
     d="m 312.75296,-58.403622 q 0,0.148438 -0.0234,0.25 -0.0234,0.101563 -0.0625,0.164063 -0.0391,0.0625 -0.0937,0.09375 -0.0469,0.02344 -0.10156,0.02344 h -5.28125 q -0.0547,0 -0.10156,-0.02344 -0.0469,-0.03125 -0.0937,-0.09375 -0.0391,-0.0625 -0.0625,-0.164063 -0.0234,-0.101562 -0.0234,-0.25 0,-0.140625 0.0234,-0.242187 0.0234,-0.101563 0.0547,-0.164063 0.0391,-0.07031 0.0859,-0.101562 0.0547,-0.03906 0.11719,-0.03906 h 2.10938 v -7.687499 l -1.95313,1.164062 q -0.14844,0.07813 -0.24219,0.09375 -0.0859,0.01563 -0.14062,-0.03125 -0.0547,-0.05469 -0.0781,-0.171875 -0.0156,-0.117187 -0.0156,-0.296875 0,-0.132812 0.008,-0.226562 0.0156,-0.09375 0.0391,-0.15625 0.0234,-0.0625 0.0625,-0.109375 0.0469,-0.04687 0.11719,-0.09375 l 2.32813,-1.492188 q 0.0312,-0.02344 0.0781,-0.03906 0.0469,-0.01563 0.11719,-0.03125 0.0703,-0.01563 0.16406,-0.01563 0.0937,-0.0078 0.23438,-0.0078 0.1875,0 0.3125,0.01563 0.125,0.01563 0.19531,0.04687 0.0703,0.02344 0.0937,0.07031 0.0234,0.03906 0.0234,0.08594 v 8.882812 h 1.82812 q 0.0625,0 0.11719,0.03906 0.0547,0.03125 0.0859,0.101562 0.0391,0.0625 0.0547,0.164063 0.0234,0.101562 0.0234,0.242187 z"
     style="font-style:normal;font-variant:normal;font-weight:normal;font-stretch:normal;font-family:Calibri;-inkscape-font-specification:Calibri;text-align:center;direction:ltr;text-anchor:middle;stroke-width:0.75"
     id="path926" /><path
     d="m 321.11234,-61.145809 q 0,0.664062 -0.20313,1.289062 -0.20312,0.617188 -0.625,1.09375 -0.42187,0.46875 -1.07031,0.757813 -0.64844,0.28125 -1.53125,0.28125 -0.63281,0 -1.11719,-0.15625 -0.48437,-0.15625 -0.84375,-0.445313 -0.35937,-0.289062 -0.60156,-0.710937 -0.23438,-0.421875 -0.38281,-0.960938 -0.14063,-0.539062 -0.20313,-1.179687 -0.0625,-0.640625 -0.0625,-1.375 0,-0.648437 0.0703,-1.3125 0.0703,-0.664062 0.25,-1.28125 0.17969,-0.617187 0.48438,-1.15625 0.3125,-0.546875 0.77344,-0.945312 0.46875,-0.40625 1.11718,-0.640625 0.64844,-0.234375 1.50782,-0.234375 0.28906,0 0.58593,0.03906 0.29688,0.03125 0.54688,0.09375 0.25,0.05469 0.42187,0.125 0.17188,0.07031 0.22657,0.117188 0.0547,0.03906 0.0781,0.09375 0.0312,0.04687 0.0469,0.109375 0.0156,0.05469 0.0234,0.132812 0.008,0.07031 0.008,0.179688 0,0.140625 -0.008,0.242187 0,0.101563 -0.0312,0.164063 -0.0234,0.0625 -0.0703,0.09375 -0.0391,0.03125 -0.10937,0.03125 -0.0859,0 -0.23438,-0.05469 -0.14844,-0.05469 -0.35937,-0.117187 -0.21094,-0.07031 -0.51563,-0.125 -0.29687,-0.05469 -0.69531,-0.05469 -0.72656,0 -1.25,0.296875 -0.52344,0.296875 -0.85938,0.796875 -0.32812,0.5 -0.49218,1.164063 -0.15625,0.65625 -0.17969,1.375 0.20312,-0.117188 0.45312,-0.234375 0.25782,-0.117188 0.55469,-0.210938 0.30469,-0.09375 0.64063,-0.148437 0.33593,-0.0625 0.71875,-0.0625 0.82031,0 1.38281,0.226562 0.5625,0.21875 0.90625,0.617188 0.35156,0.390625 0.5,0.929687 0.14844,0.53125 0.14844,1.15625 z m -1.35938,0.125 q 0,-0.453125 -0.0937,-0.820312 -0.0859,-0.375 -0.29687,-0.632813 -0.21094,-0.257812 -0.5625,-0.398437 -0.35157,-0.140625 -0.86719,-0.140625 -0.28906,0 -0.57813,0.05469 -0.28906,0.04687 -0.5625,0.140625 -0.26562,0.08594 -0.51562,0.210938 -0.24219,0.117187 -0.44531,0.257812 0,1.007813 0.125,1.6875 0.13281,0.679687 0.375,1.09375 0.25,0.40625 0.61718,0.585937 0.36719,0.171875 0.85938,0.171875 0.5,0 0.86719,-0.1875 0.36718,-0.1875 0.60937,-0.5 0.24219,-0.320312 0.35156,-0.710937 0.11719,-0.398438 0.11719,-0.8125 z"
     style="font-style:normal;font-variant:normal;font-weight:normal;font-stretch:normal;font-family:Calibri;-inkscape-font-specification:Calibri;text-align:center;direction:ltr;text-anchor:middle;stroke-width:0.75"
     id="path928" /><path
     d="m 333.04983,-61.677059 q 0,0.914062 -0.20312,1.648437 -0.19531,0.726563 -0.58594,1.242188 -0.38281,0.515625 -0.94531,0.789062 -0.5625,0.273438 -1.28906,0.273438 -0.33594,0 -0.625,-0.07031 -0.28125,-0.0625 -0.55469,-0.210937 -0.27344,-0.148438 -0.54688,-0.375 -0.27343,-0.226563 -0.57812,-0.546875 v 0.859375 q 0,0.0625 -0.0312,0.109375 -0.0312,0.04687 -0.10156,0.07813 -0.0703,0.02344 -0.17969,0.03906 -0.10156,0.01563 -0.26563,0.01563 -0.15625,0 -0.26562,-0.01563 -0.10938,-0.01563 -0.17969,-0.03906 -0.0703,-0.03125 -0.0937,-0.07813 -0.0234,-0.04687 -0.0234,-0.109375 v -10.4375 q 0,-0.0625 0.0234,-0.109375 0.0312,-0.04687 0.10156,-0.07813 0.0781,-0.03125 0.20313,-0.04687 0.125,-0.01563 0.3125,-0.01563 0.19531,0 0.32031,0.01563 0.125,0.01563 0.19531,0.04687 0.0703,0.03125 0.10157,0.07813 0.0312,0.04687 0.0312,0.109375 v 4.210938 q 0.3125,-0.320313 0.60156,-0.539063 0.29687,-0.21875 0.57812,-0.351562 0.28125,-0.140625 0.5625,-0.203125 0.28125,-0.0625 0.59375,-0.0625 0.76563,0 1.30469,0.304687 0.54688,0.304688 0.88281,0.820313 0.34375,0.507812 0.5,1.195312 0.15625,0.6875 0.15625,1.453125 z m -1.35937,0.148438 q 0,-0.539063 -0.0859,-1.046875 -0.0781,-0.507813 -0.28125,-0.898438 -0.20312,-0.390625 -0.53906,-0.625 -0.33594,-0.242187 -0.83594,-0.242187 -0.25,0 -0.49219,0.07031 -0.24218,0.07031 -0.49218,0.234375 -0.25,0.164063 -0.52344,0.421875 -0.26563,0.257813 -0.57031,0.648438 v 2.804687 q 0.53125,0.648437 1.01562,0.992187 0.48438,0.335938 1.00781,0.335938 0.48438,0 0.82813,-0.234375 0.34375,-0.234375 0.55469,-0.617188 0.21875,-0.390625 0.3125,-0.867187 0.10156,-0.484375 0.10156,-0.976562 z"
     style="font-style:normal;font-variant:normal;font-weight:normal;font-stretch:normal;font-family:Calibri;-inkscape-font-specification:Calibri;text-align:center;direction:ltr;text-anchor:middle;stroke-width:0.75"
     id="path930" /><path
     d="m 336.2764,-58.067684 q 0,0.0625 -0.0312,0.109375 -0.0312,0.03906 -0.10157,0.07031 -0.0703,0.03125 -0.19531,0.04687 -0.125,0.01563 -0.32031,0.01563 -0.1875,0 -0.3125,-0.01563 -0.125,-0.01563 -0.20313,-0.04687 -0.0703,-0.03125 -0.10156,-0.07031 -0.0234,-0.04687 -0.0234,-0.109375 v -7.03125 q 0,-0.05469 0.0234,-0.101562 0.0312,-0.04687 0.10156,-0.07813 0.0781,-0.03125 0.20313,-0.04687 0.125,-0.01563 0.3125,-0.01563 0.19531,0 0.32031,0.01563 0.125,0.01563 0.19531,0.04687 0.0703,0.03125 0.10157,0.07813 0.0312,0.04687 0.0312,0.101562 z m 0.14843,-9.40625 q 0,0.453125 -0.17187,0.617188 -0.17188,0.164062 -0.63281,0.164062 -0.45313,0 -0.625,-0.15625 -0.16407,-0.164062 -0.16407,-0.609375 0,-0.453125 0.17188,-0.617187 0.17187,-0.164063 0.63281,-0.164063 0.45313,0 0.61719,0.164063 0.17187,0.15625 0.17187,0.601562 z"
     style="font-style:normal;font-variant:normal;font-weight:normal;font-stretch:normal;font-family:Calibri;-inkscape-font-specification:Calibri;text-align:center;direction:ltr;text-anchor:middle;stroke-width:0.75"
     id="path932" /><path
     d="m 342.33108,-58.583309 q 0,0.226562 -0.0312,0.359375 -0.0312,0.132812 -0.0937,0.195312 -0.0625,0.0625 -0.1875,0.117188 -0.125,0.05469 -0.28906,0.08594 -0.15625,0.03906 -0.33594,0.0625 -0.17969,0.02344 -0.35937,0.02344 -0.54688,0 -0.9375,-0.140625 -0.39063,-0.148438 -0.64063,-0.4375 -0.25,-0.296875 -0.36718,-0.742188 -0.10938,-0.453125 -0.10938,-1.0625 v -4.109374 h -0.98437 q -0.11719,0 -0.1875,-0.125 -0.0703,-0.125 -0.0703,-0.40625 0,-0.148438 0.0156,-0.25 0.0234,-0.101563 0.0547,-0.164063 0.0312,-0.07031 0.0781,-0.09375 0.0547,-0.03125 0.11719,-0.03125 h 0.97656 v -1.671875 q 0,-0.05469 0.0234,-0.101562 0.0312,-0.04687 0.10156,-0.07813 0.0781,-0.03906 0.20313,-0.05469 0.125,-0.01563 0.3125,-0.01563 0.19531,0 0.32031,0.01563 0.125,0.01563 0.19531,0.05469 0.0703,0.03125 0.10156,0.07813 0.0312,0.04687 0.0312,0.101562 v 1.671875 h 1.80469 q 0.0625,0 0.10937,0.03125 0.0469,0.02344 0.0781,0.09375 0.0391,0.0625 0.0547,0.164063 0.0156,0.101562 0.0156,0.25 0,0.28125 -0.0703,0.40625 -0.0703,0.125 -0.1875,0.125 h -1.80469 v 3.921874 q 0,0.726563 0.21094,1.101563 0.21875,0.367187 0.77344,0.367187 0.17968,0 0.32031,-0.03125 0.14062,-0.03906 0.25,-0.07813 0.10937,-0.03906 0.1875,-0.07031 0.0781,-0.03906 0.14062,-0.03906 0.0391,0 0.0703,0.02344 0.0391,0.01563 0.0547,0.07031 0.0234,0.05469 0.0391,0.148438 0.0156,0.09375 0.0156,0.234375 z"
     style="font-style:normal;font-variant:normal;font-weight:normal;font-stretch:normal;font-family:Calibri;-inkscape-font-specification:Calibri;text-align:center;direction:ltr;text-anchor:middle;stroke-width:0.75"
     id="path934" /><path
     d="m 348.46389,-59.981747 q 0,0.539063 -0.20312,0.960938 -0.19531,0.421875 -0.5625,0.710937 -0.36719,0.289063 -0.875,0.4375 -0.50781,0.148438 -1.11719,0.148438 -0.375,0 -0.71875,-0.0625 -0.33593,-0.05469 -0.60937,-0.140625 -0.26563,-0.09375 -0.45313,-0.1875 -0.1875,-0.101563 -0.27343,-0.179688 -0.0859,-0.07813 -0.125,-0.21875 -0.0391,-0.140625 -0.0391,-0.382812 0,-0.148438 0.0156,-0.25 0.0156,-0.101563 0.0391,-0.164063 0.0234,-0.0625 0.0625,-0.08594 0.0469,-0.03125 0.10156,-0.03125 0.0859,0 0.25,0.109375 0.17188,0.101562 0.41407,0.226562 0.25,0.125 0.58593,0.234375 0.33594,0.101563 0.77344,0.101563 0.32812,0 0.59375,-0.07031 0.26562,-0.07031 0.46094,-0.203125 0.19531,-0.140625 0.29687,-0.351562 0.10938,-0.210938 0.10938,-0.5 0,-0.296875 -0.15625,-0.5 -0.14844,-0.203125 -0.39844,-0.359375 -0.25,-0.15625 -0.5625,-0.273437 -0.3125,-0.125 -0.64844,-0.257813 -0.32812,-0.132812 -0.64843,-0.296875 -0.3125,-0.171875 -0.5625,-0.414062 -0.25,-0.242188 -0.40625,-0.578125 -0.14844,-0.335938 -0.14844,-0.804688 0,-0.414062 0.15625,-0.789062 0.16406,-0.382813 0.48437,-0.664063 0.32032,-0.289062 0.79688,-0.460937 0.48437,-0.171875 1.125,-0.171875 0.28125,0 0.5625,0.04687 0.28125,0.04687 0.50781,0.117187 0.22656,0.07031 0.38281,0.15625 0.16406,0.07813 0.24219,0.140625 0.0859,0.0625 0.10937,0.109375 0.0312,0.04687 0.0391,0.109375 0.0156,0.05469 0.0234,0.140625 0.0156,0.08594 0.0156,0.210938 0,0.132812 -0.0156,0.234375 -0.008,0.09375 -0.0391,0.15625 -0.0234,0.0625 -0.0625,0.09375 -0.0391,0.02344 -0.0859,0.02344 -0.0703,0 -0.20312,-0.08594 -0.13281,-0.08594 -0.34375,-0.179688 -0.21094,-0.101562 -0.5,-0.1875 -0.28125,-0.08594 -0.64844,-0.08594 -0.32812,0 -0.57812,0.07813 -0.25,0.07031 -0.41406,0.210937 -0.15625,0.132813 -0.24219,0.320313 -0.0781,0.1875 -0.0781,0.40625 0,0.304687 0.15625,0.515625 0.15625,0.203125 0.40625,0.359375 0.25,0.15625 0.57032,0.28125 0.32031,0.125 0.64843,0.257812 0.33594,0.132813 0.65625,0.296875 0.32813,0.164063 0.57813,0.398438 0.25,0.234375 0.39843,0.562499 0.15625,0.328125 0.15625,0.78125 z"
     style="font-style:normal;font-variant:normal;font-weight:normal;font-stretch:normal;font-family:Calibri;-inkscape-font-specification:Calibri;text-align:center;direction:ltr;text-anchor:middle;stroke-width:0.75"
     id="path936" /></g>
<g
   aria-label="32 bits"
   transform="scale(1,-1)"
   style="font-style:normal;font-variant:normal;font-weight:normal;font-stretch:normal;font-size:15.99999905px;line-height:1.25;font-family:Calibri;-inkscape-font-specification:Calibri;letter-spacing:0px;word-spacing:0px;direction:ltr;fill:#000000;fill-opacity:1;stroke:none;stroke-width:0.75"
   id="text995-4-9-7-0"><path
     d="m 409.3114,-60.75909 q 0,0.695312 -0.24219,1.257812 -0.24218,0.554688 -0.69531,0.953125 -0.45312,0.398438 -1.11719,0.617188 -0.66406,0.210937 -1.5,0.210937 -0.50781,0 -0.95312,-0.08594 -0.4375,-0.07813 -0.78125,-0.1875 -0.34375,-0.117188 -0.57031,-0.234375 -0.22656,-0.125 -0.28906,-0.179688 -0.0547,-0.05469 -0.0859,-0.109375 -0.0312,-0.05469 -0.0547,-0.132812 -0.0234,-0.07813 -0.0391,-0.1875 -0.008,-0.117188 -0.008,-0.28125 0,-0.28125 0.0547,-0.390625 0.0547,-0.109375 0.15625,-0.109375 0.0703,0 0.27344,0.125 0.21094,0.125 0.53125,0.273437 0.32813,0.140625 0.75781,0.265625 0.4375,0.125 0.96875,0.125 0.51563,0 0.90625,-0.132812 0.39063,-0.132813 0.65625,-0.375 0.26563,-0.242188 0.39844,-0.570313 0.13281,-0.335937 0.13281,-0.726562 0,-0.429688 -0.17187,-0.773438 -0.16407,-0.34375 -0.49219,-0.59375 -0.32031,-0.25 -0.79688,-0.382812 -0.46875,-0.132813 -1.07031,-0.132813 h -0.96093 q -0.0625,0 -0.125,-0.02344 -0.0547,-0.03125 -0.10157,-0.09375 -0.0391,-0.0625 -0.0703,-0.164063 -0.0234,-0.101562 -0.0234,-0.265625 0,-0.148437 0.0234,-0.242187 0.0234,-0.101563 0.0625,-0.15625 0.0469,-0.0625 0.10156,-0.08594 0.0547,-0.03125 0.125,-0.03125 h 0.88281 q 0.51563,0 0.92188,-0.132812 0.41406,-0.132813 0.69531,-0.382813 0.28906,-0.25 0.4375,-0.59375 0.15625,-0.351562 0.15625,-0.781249 0,-0.3125 -0.10156,-0.59375 -0.10156,-0.289063 -0.30469,-0.5 -0.20312,-0.210938 -0.52344,-0.328125 -0.3125,-0.125 -0.72656,-0.125 -0.45312,0 -0.83593,0.140625 -0.375,0.132812 -0.67188,0.289062 -0.29687,0.15625 -0.49219,0.296875 -0.19531,0.132813 -0.27343,0.132813 -0.0547,0 -0.10157,-0.01563 -0.0391,-0.02344 -0.0703,-0.07813 -0.0234,-0.0625 -0.0391,-0.164063 -0.008,-0.109375 -0.008,-0.28125 0,-0.117187 0.008,-0.203125 0.008,-0.09375 0.0312,-0.15625 0.0234,-0.07031 0.0547,-0.125 0.0312,-0.05469 0.10156,-0.125 0.0781,-0.07813 0.30469,-0.21875 0.22656,-0.140625 0.55468,-0.273437 0.33594,-0.140625 0.76563,-0.234375 0.4375,-0.09375 0.9375,-0.09375 0.70312,0 1.23437,0.179687 0.53125,0.179688 0.88281,0.507813 0.35938,0.328125 0.53125,0.789062 0.17969,0.453125 0.17969,1.007813 0,0.476562 -0.125,0.890624 -0.125,0.40625 -0.36719,0.726563 -0.24218,0.3125 -0.59375,0.539062 -0.35156,0.21875 -0.8125,0.304688 v 0.01563 q 0.52344,0.05469 0.95313,0.265625 0.4375,0.203125 0.75,0.515625 0.3125,0.3125 0.48437,0.734375 0.17969,0.414062 0.17969,0.890625 z"
     style="font-style:normal;font-variant:normal;font-weight:normal;font-stretch:normal;font-family:Calibri;-inkscape-font-specification:Calibri;text-align:center;direction:ltr;text-anchor:middle;stroke-width:0.75"
     id="path939" /><path
     d="m 417.51453,-58.44659 q 0,0.140625 -0.0234,0.25 -0.0156,0.109375 -0.0547,0.1875 -0.0312,0.07031 -0.0937,0.109375 -0.0547,0.03125 -0.125,0.03125 h -5.58594 q -0.10937,0 -0.19531,-0.02344 -0.0781,-0.03125 -0.14062,-0.09375 -0.0547,-0.0625 -0.0859,-0.179687 -0.0234,-0.117188 -0.0234,-0.289063 0,-0.15625 0.008,-0.273437 0.0156,-0.117188 0.0547,-0.203125 0.0391,-0.09375 0.0937,-0.179688 0.0625,-0.09375 0.15625,-0.195312 l 1.96094,-2.078125 q 0.67969,-0.71875 1.08594,-1.289063 0.41406,-0.570312 0.63281,-1.039062 0.22656,-0.46875 0.29687,-0.851563 0.0703,-0.382812 0.0703,-0.718749 0,-0.335938 -0.10938,-0.632813 -0.10937,-0.304687 -0.32031,-0.53125 -0.20313,-0.226562 -0.51563,-0.359375 -0.3125,-0.132812 -0.71875,-0.132812 -0.47656,0 -0.85937,0.132812 -0.375,0.132813 -0.66406,0.289063 -0.28125,0.15625 -0.47657,0.289062 -0.1875,0.132813 -0.28125,0.132813 -0.0547,0 -0.10156,-0.03125 -0.0391,-0.03125 -0.0703,-0.101563 -0.0234,-0.07031 -0.0391,-0.1875 -0.0156,-0.117187 -0.0156,-0.28125 0,-0.117187 0.008,-0.203125 0.008,-0.08594 0.0234,-0.148437 0.0234,-0.0625 0.0547,-0.117188 0.0312,-0.05469 0.125,-0.132812 0.0937,-0.08594 0.32031,-0.226563 0.23438,-0.140625 0.57813,-0.273437 0.35156,-0.140625 0.76562,-0.234375 0.42188,-0.09375 0.88281,-0.09375 0.73438,0 1.28125,0.210937 0.55469,0.203125 0.91407,0.5625 0.36718,0.359375 0.54687,0.835938 0.17969,0.476562 0.17969,1.015625 0,0.484375 -0.0859,0.968749 -0.0859,0.476563 -0.36719,1.039063 -0.27343,0.554687 -0.79687,1.242187 -0.52344,0.679688 -1.39063,1.570313 l -1.60156,1.671875 h 4.39844 q 0.0625,0 0.11719,0.03906 0.0625,0.03125 0.10156,0.101563 0.0469,0.07031 0.0625,0.179687 0.0234,0.101563 0.0234,0.242188 z"
     style="font-style:normal;font-variant:normal;font-weight:normal;font-stretch:normal;font-family:Calibri;-inkscape-font-specification:Calibri;text-align:center;direction:ltr;text-anchor:middle;stroke-width:0.75"
     id="path941" /><path
     d="m 429.70984,-61.673153 q 0,0.914063 -0.20313,1.648438 -0.19531,0.726562 -0.58593,1.242187 -0.38282,0.515625 -0.94532,0.789063 -0.5625,0.273437 -1.28906,0.273437 -0.33594,0 -0.625,-0.07031 -0.28125,-0.0625 -0.55469,-0.210938 -0.27343,-0.148437 -0.54687,-0.375 -0.27344,-0.226562 -0.57813,-0.546875 v 0.859375 q 0,0.0625 -0.0312,0.109375 -0.0312,0.04687 -0.10156,0.07813 -0.0703,0.02344 -0.17969,0.03906 -0.10156,0.01563 -0.26562,0.01563 -0.15625,0 -0.26563,-0.01563 -0.10937,-0.01563 -0.17968,-0.03906 -0.0703,-0.03125 -0.0937,-0.07813 -0.0234,-0.04687 -0.0234,-0.109375 v -10.437499 q 0,-0.0625 0.0234,-0.109375 0.0312,-0.04687 0.10156,-0.07813 0.0781,-0.03125 0.20312,-0.04687 0.125,-0.01563 0.3125,-0.01563 0.19532,0 0.32032,0.01563 0.125,0.01563 0.19531,0.04687 0.0703,0.03125 0.10156,0.07813 0.0312,0.04687 0.0312,0.109375 v 4.210937 q 0.3125,-0.320313 0.60156,-0.539063 0.29688,-0.218749 0.57813,-0.351562 0.28125,-0.140625 0.5625,-0.203125 0.28125,-0.0625 0.59375,-0.0625 0.76562,0 1.30469,0.304688 0.54687,0.304687 0.88281,0.820312 0.34375,0.507812 0.5,1.195312 0.15625,0.6875 0.15625,1.453125 z m -1.35938,0.148438 q 0,-0.539063 -0.0859,-1.046875 -0.0781,-0.507813 -0.28125,-0.898438 -0.20313,-0.390625 -0.53907,-0.625 -0.33593,-0.242187 -0.83593,-0.242187 -0.25,0 -0.49219,0.07031 -0.24219,0.07031 -0.49219,0.234375 -0.25,0.164063 -0.52344,0.421875 -0.26562,0.257813 -0.57031,0.648438 v 2.804687 q 0.53125,0.648438 1.01563,0.992188 0.48437,0.335937 1.00781,0.335937 0.48437,0 0.82812,-0.234375 0.34375,-0.234375 0.55469,-0.617187 0.21875,-0.390625 0.3125,-0.867188 0.10156,-0.484375 0.10156,-0.976562 z"
     style="font-style:normal;font-variant:normal;font-weight:normal;font-stretch:normal;font-family:Calibri;-inkscape-font-specification:Calibri;text-align:center;direction:ltr;text-anchor:middle;stroke-width:0.75"
     id="path943" /><path
     d="m 432.9364,-58.063778 q 0,0.0625 -0.0312,0.109375 -0.0312,0.03906 -0.10156,0.07031 -0.0703,0.03125 -0.19532,0.04687 -0.125,0.01563 -0.32031,0.01563 -0.1875,0 -0.3125,-0.01563 -0.125,-0.01563 -0.20312,-0.04687 -0.0703,-0.03125 -0.10157,-0.07031 -0.0234,-0.04687 -0.0234,-0.109375 v -7.031249 q 0,-0.05469 0.0234,-0.101563 0.0312,-0.04687 0.10157,-0.07813 0.0781,-0.03125 0.20312,-0.04687 0.125,-0.01563 0.3125,-0.01563 0.19531,0 0.32031,0.01563 0.125,0.01563 0.19532,0.04687 0.0703,0.03125 0.10156,0.07813 0.0312,0.04687 0.0312,0.101563 z m 0.14844,-9.406249 q 0,0.453125 -0.17188,0.617187 -0.17187,0.164063 -0.63281,0.164063 -0.45313,0 -0.625,-0.15625 -0.16406,-0.164063 -0.16406,-0.609375 0,-0.453125 0.17187,-0.617188 0.17188,-0.164062 0.63281,-0.164062 0.45313,0 0.61719,0.164062 0.17188,0.15625 0.17188,0.601563 z"
     style="font-style:normal;font-variant:normal;font-weight:normal;font-stretch:normal;font-family:Calibri;-inkscape-font-specification:Calibri;text-align:center;direction:ltr;text-anchor:middle;stroke-width:0.75"
     id="path945" /><path
     d="m 438.99109,-58.579403 q 0,0.226563 -0.0312,0.359375 -0.0312,0.132813 -0.0937,0.195313 -0.0625,0.0625 -0.1875,0.117187 -0.125,0.05469 -0.28907,0.08594 -0.15625,0.03906 -0.33593,0.0625 -0.17969,0.02344 -0.35938,0.02344 -0.54687,0 -0.9375,-0.140625 -0.39062,-0.148437 -0.64062,-0.4375 -0.25,-0.296875 -0.36719,-0.742187 -0.10938,-0.453125 -0.10938,-1.0625 v -4.109375 h -0.98437 q -0.11719,0 -0.1875,-0.125 -0.0703,-0.125 -0.0703,-0.40625 0,-0.148438 0.0156,-0.25 0.0234,-0.101562 0.0547,-0.164062 0.0312,-0.07031 0.0781,-0.09375 0.0547,-0.03125 0.11719,-0.03125 h 0.97656 v -1.671875 q 0,-0.05469 0.0234,-0.101563 0.0312,-0.04687 0.10156,-0.07813 0.0781,-0.03906 0.20313,-0.05469 0.125,-0.01563 0.3125,-0.01563 0.19531,0 0.32031,0.01563 0.125,0.01563 0.19531,0.05469 0.0703,0.03125 0.10157,0.07813 0.0312,0.04687 0.0312,0.101563 v 1.671875 h 1.80468 q 0.0625,0 0.10938,0.03125 0.0469,0.02344 0.0781,0.09375 0.0391,0.0625 0.0547,0.164062 0.0156,0.101562 0.0156,0.25 0,0.28125 -0.0703,0.40625 -0.0703,0.125 -0.1875,0.125 h -1.80468 v 3.921875 q 0,0.726562 0.21093,1.101562 0.21875,0.367188 0.77344,0.367188 0.17969,0 0.32031,-0.03125 0.14063,-0.03906 0.25,-0.07813 0.10938,-0.03906 0.1875,-0.07031 0.0781,-0.03906 0.14063,-0.03906 0.0391,0 0.0703,0.02344 0.0391,0.01563 0.0547,0.07031 0.0234,0.05469 0.0391,0.148437 0.0156,0.09375 0.0156,0.234375 z"
     style="font-style:normal;font-variant:normal;font-weight:normal;font-stretch:normal;font-family:Calibri;-inkscape-font-specification:Calibri;text-align:center;direction:ltr;text-anchor:middle;stroke-width:0.75"
     id="path947" /><path
     d="m 445.1239,-59.97784 q 0,0.539062 -0.20313,0.960937 -0.19531,0.421875 -0.5625,0.710938 -0.36718,0.289062 -0.875,0.4375 -0.50781,0.148437 -1.11718,0.148437 -0.375,0 -0.71875,-0.0625 -0.33594,-0.05469 -0.60938,-0.140625 -0.26562,-0.09375 -0.45312,-0.1875 -0.1875,-0.101562 -0.27344,-0.179687 -0.0859,-0.07813 -0.125,-0.21875 -0.0391,-0.140625 -0.0391,-0.382813 0,-0.148437 0.0156,-0.25 0.0156,-0.101562 0.0391,-0.164062 0.0234,-0.0625 0.0625,-0.08594 0.0469,-0.03125 0.10157,-0.03125 0.0859,0 0.25,0.109375 0.17187,0.101563 0.41406,0.226563 0.25,0.125 0.58594,0.234375 0.33593,0.101562 0.77343,0.101562 0.32813,0 0.59375,-0.07031 0.26563,-0.07031 0.46094,-0.203125 0.19531,-0.140625 0.29688,-0.351563 0.10937,-0.210937 0.10937,-0.5 0,-0.296875 -0.15625,-0.5 -0.14844,-0.203125 -0.39844,-0.359375 -0.25,-0.15625 -0.5625,-0.273437 -0.3125,-0.125 -0.64843,-0.257813 -0.32813,-0.132812 -0.64844,-0.296875 -0.3125,-0.171875 -0.5625,-0.414062 -0.25,-0.242188 -0.40625,-0.578125 -0.14844,-0.335938 -0.14844,-0.804688 0,-0.414062 0.15625,-0.789062 0.16406,-0.382813 0.48438,-0.664063 0.32031,-0.289062 0.79687,-0.460937 0.48438,-0.171875 1.125,-0.171875 0.28125,0 0.5625,0.04687 0.28125,0.04687 0.50781,0.117188 0.22657,0.07031 0.38282,0.15625 0.16406,0.07813 0.24218,0.140625 0.0859,0.0625 0.10938,0.109374 0.0312,0.04687 0.0391,0.109375 0.0156,0.05469 0.0234,0.140625 0.0156,0.08594 0.0156,0.210938 0,0.132812 -0.0156,0.234375 -0.008,0.09375 -0.0391,0.15625 -0.0234,0.0625 -0.0625,0.09375 -0.0391,0.02344 -0.0859,0.02344 -0.0703,0 -0.20313,-0.08594 -0.13281,-0.08594 -0.34375,-0.179688 -0.21093,-0.101562 -0.5,-0.1875 -0.28125,-0.08594 -0.64843,-0.08594 -0.32813,0 -0.57813,0.07813 -0.25,0.07031 -0.41406,0.210937 -0.15625,0.132813 -0.24219,0.320313 -0.0781,0.1875 -0.0781,0.40625 0,0.304687 0.15625,0.515625 0.15625,0.203125 0.40625,0.359375 0.25,0.15625 0.57031,0.28125 0.32031,0.125 0.64844,0.257812 0.33593,0.132813 0.65625,0.296875 0.32812,0.164063 0.57812,0.398438 0.25,0.234375 0.39844,0.5625 0.15625,0.328125 0.15625,0.78125 z"
     style="font-style:normal;font-variant:normal;font-weight:normal;font-stretch:normal;font-family:Calibri;-inkscape-font-specification:Calibri;text-align:center;direction:ltr;text-anchor:middle;stroke-width:0.75"
     id="path949" /></g>
</g></svg>